<svg id="Layer_1" data-name="Layer 1" xmlns="http://www.w3.org/2000/svg" viewBox="0 0 220.99 24.42"><defs><style>.cls-1{fill:#e11f26;}</style></defs><path class="cls-1" d="M33.89,158.41h8.37L44.43,154H59.6l2.33,4.38h8.33L56.85,134H47.09l-13.2,24.41M52,139.72l4.87,9.16H47.24Z" transform="translate(-33.89 -134)"/><polyline class="cls-1" points="39.87 0 47.34 0 47.34 8.97 50.85 8.97 60.28 0 70.47 0 57.24 12.02 72.03 24.42 61.44 24.42 50.65 15.07 47.34 15.07 47.34 24.42 39.87 24.42 39.87 0"/><path class="cls-1" d="M117,139.91h13.25c1.4,0,2.18.38,2.18,1.91,0,1.33-.78,1.91-2.18,1.91H117v-3.82m-7.48,18.5h23.84c4.28,0,7.45-1.14,7.45-6.48,0-3.63-1.23-5.34-4.49-5.91,2.08-.58,3.59-1.34,3.59-5.54,0-5-2.88-6.48-8.87-6.48H109.54Zm7.48-9.72h13.41c1.62,0,2.71.38,2.71,2.09,0,1.34-1.09,1.72-2.71,1.72H117Z" transform="translate(-33.89 -134)"/><path class="cls-1" d="M143.8,158.41h8.36l2.17-4.38h15.18l2.31,4.38h8.32L166.73,134H157l-13.2,24.41m18-18.69,4.86,9.16h-9.58Z" transform="translate(-33.89 -134)"/><polyline class="cls-1" points="149.76 0 161.36 0 175.4 17.74 175.47 17.74 175.47 0 182.95 0 182.95 24.42 171.35 24.42 157.31 6.68 157.26 6.68 157.26 24.42 149.76 24.42 149.76 0"/><polyline class="cls-1" points="188.86 0 196.34 0 196.34 8.97 199.84 8.97 209.28 0 219.44 0 206.25 12.02 220.99 24.42 210.42 24.42 199.63 15.07 196.34 15.07 196.34 24.42 188.86 24.42 188.86 0"/></svg>