<svg xmlns="http://www.w3.org/2000/svg" viewBox="0 0 448.01 136.18"><defs><style>.cls-1{fill:#e98536;}.cls-2{fill:#e30613;}.cls-3{fill:#9d9d9c;fill-rule:evenodd;}</style></defs><g id="Foreground"><path class="cls-1" d="M416,353.56a32.37,32.37,0,1,1,60.86,15.37c-.46.85-28.5,47.48-28.5,47.48l-7-11.7L459,358.09a11.5,11.5,0,1,0-22.06-4.53v43.72c-7.8-13-16.74-27.88-17-28.35A32.27,32.27,0,0,1,416,353.56Z" transform="translate(-74.99 -321.19)"/><path class="cls-2" d="M523,424.41A32.37,32.37,0,1,1,462.14,409c.46-.85,28.49-47.49,28.49-47.49l7,11.71-17.6,46.61a11.5,11.5,0,1,0,22.06,4.54V380.69c7.8,13,16.74,27.87,17,28.35A32.24,32.24,0,0,1,523,424.41Z" transform="translate(-74.99 -321.19)"/><path class="cls-3" d="M363.67,404.67h15l-17.92,19L380.41,456H366.17L352.3,432.6l-8.13,8.62V456H332.3v-70h11.87v39.74Zm46.17,39.21c-6.13,6-16.8,3.42-17.24-2.66s4.37-8,9.18-8h8.06Zm-19.93-38.15a70.68,70.68,0,0,1,16.68-.69c8.5.88,16.19,4.5,16.19,19.62v26.18a15,15,0,0,0,1,5.19H413l-2-4.13c-11.16,10.08-31.14,6-31.14-10.43,0-16.68,19.06-17.06,24.55-17.06h5.5v-1.62c0-4.94-3.37-8.19-10.62-8.31a31.61,31.61,0,0,0-9.31,1.12ZM158.16,386.48v70h23.3c27.06,0,31.93-32.12,10.5-38,0,0,8.63-3.19,8.63-14.94s-10.38-17.06-20.31-17.06Zm12.93,10.81h7.69a9,9,0,0,1,9.18,9.19,9.18,9.18,0,0,1-9.18,9.18h-7.69Zm0,29h10.43c6.41,0,10.81,4.42,10.81,9.77s-5.11,9.58-11.52,9.58h-9.72Zm140.65,17.59c-6.13,6-16.8,3.42-17.24-2.66s4.37-8,9.18-8h8.06Zm-19.93-38.15a70.68,70.68,0,0,1,16.68-.69c8.5.88,16.19,4.5,16.19,19.62v26.18a15,15,0,0,0,1,5.19H314.87l-2-4.13c-11.17,10.08-31.15,6-31.15-10.43,0-16.68,19.06-17.06,24.55-17.06h5.5v-1.62c0-4.94-3.37-8.19-10.62-8.31a31.61,31.61,0,0,0-9.31,1.12ZM258.63,456V421.92c0-11.56,9.06-19.63,26.25-16.13v9.81c-9.5-3.12-13.31,1.88-13.31,7.76V456ZM239,443.88c-6.13,6-16.8,3.42-17.24-2.66s4.37-8,9.18-8H239Zm-19.93-38.15a70.68,70.68,0,0,1,16.68-.69c8.5.88,16.19,4.5,16.19,19.62v26.18a15,15,0,0,0,1,5.19H242.14l-2-4.13C228.94,462,209,457.92,209,441.47c0-16.68,19.06-17.06,24.55-17.06H239v-1.62c0-4.94-3.37-8.19-10.62-8.31a31.61,31.61,0,0,0-9.31,1.12Zm-95-19.37V439c0,11.56,7.94,18.06,22.5,17.25v-9.62c-6.25,0-9.56-3.19-9.56-9.06V386.36Zm-19,57.52c-6.13,6-16.8,3.42-17.25-2.66s4.38-8,9.19-8h8.06ZM85.12,405.73A70.63,70.63,0,0,1,101.8,405c8.5.88,16.18,4.5,16.18,19.62v26.18a15,15,0,0,0,1,5.19H108.17l-2-4.13C95,462,75,457.92,75,441.47c0-16.68,19.06-17.06,24.56-17.06h5.5v-1.62c0-4.94-3.38-8.19-10.62-8.31a31.53,31.53,0,0,0-9.31,1.12Z" transform="translate(-74.99 -321.19)"/></g></svg>