<svg xmlns="http://www.w3.org/2000/svg" viewBox="0 0 239.43 45.79"><defs><style>.cls-1,.cls-2{fill:#005092;}.cls-1{fill-rule:evenodd;}</style></defs><g id="Foreground"><path class="cls-1" d="M228.12,338.05v2.22c0,2.15,0,4.07-.07,5.75s-.13,3.3-.24,4.9a12.86,12.86,0,0,1,1.44-.07h3.5a12.86,12.86,0,0,1,1.44.07c-.1-1.6-.18-3.24-.23-4.9s-.08-3.6-.08-5.75V335c0-2.15,0-4.06.08-5.72s.13-3.37.23-5.05l-1.44.15c-.52,0-1.1,0-1.75,0s-1.23,0-1.75,0l-1.44-.15q.16,2.52.24,5c0,1.64.07,3.53.07,5.68l-2.45.08h-7l-2.41-.08c0-2.15,0-4,0-5.68s.14-3.33.27-5l-1.44.15c-.51,0-1.1,0-1.75,0s-1.23,0-1.75,0l-1.44-.15c.11,1.68.19,3.37.24,5.05s.08,3.57.08,5.72v5.29c0,2.15,0,4.07-.08,5.75s-.13,3.3-.24,4.9a13.11,13.11,0,0,1,1.44-.07h3.5a12.86,12.86,0,0,1,1.44.07c-.1-1.6-.18-3.24-.23-4.9s-.08-3.6-.08-5.75v-2.22c1-.05,2-.09,3-.11s2,0,3,0,2,0,3,.07Z" transform="translate(-164.09 -314.84)"/><path class="cls-1" d="M248,331.52c-.68,1.55-1.31,3.1-1.91,4.63s-1.18,3-1.75,4.62h7.12q-.86-2.37-1.71-4.62C249.2,334.62,248.62,333.07,248,331.52Zm13.77,19.4c-.63-.05-1.22-.07-1.79-.07h-3.31c-.54,0-1.09,0-1.63.07-.42-1.27-.84-2.56-1.29-3.88s-.9-2.65-1.4-4c-.83,0-1.65,0-2.48,0s-1.66,0-2.49,0c-.68,0-1.35,0-2,0s-1.34,0-2,0c-.52,1.32-1,2.64-1.44,4s-.84,2.61-1.2,3.88a6,6,0,0,0-.94-.07h-1.82a7.5,7.5,0,0,0-1,.07c.32-.67.73-1.6,1.25-2.8s1.09-2.54,1.71-4l2-4.82q1.1-2.61,2.14-5.25c.73-1.77,1.43-3.5,2.1-5.21s1.34-3.31,1.91-4.79l.74.16c.23,0,.48,0,.74,0s.5,0,.74,0L251,324c.83,2.21,1.72,4.57,2.65,7.08s1.92,5,2.88,7.43,1.89,4.7,2.8,6.88S261,349.42,261.77,350.92Z" transform="translate(-164.09 -314.84)"/><path class="cls-1" d="M264.8,335v5.29c0,2.15,0,4.07-.08,5.75s-.13,3.3-.23,4.9l.74-.07h11.7l2.61.07a3.06,3.06,0,0,1-.12-.58c0-.23,0-.56,0-1s0-.74,0-1,.07-.5.12-.78c-1.5.18-3,.31-4.47.39s-3,.11-4.44.11c0-1-.05-2.2-.07-3.57V335c0-2.15,0-4.06.07-5.72s.13-3.37.24-5.05l-1.44.15c-.52,0-1.1,0-1.75,0s-1.23,0-1.75,0l-1.44-.15c.1,1.68.18,3.37.23,5.05S264.8,332.83,264.8,335Z" transform="translate(-164.09 -314.84)"/><path class="cls-1" d="M288.68,338.83h.08q2,3,3.89,6.11c1.27,2,2.56,4,3.89,6,.57-.05,1.12-.07,1.67-.07h3.46c.6,0,1.27,0,2,.07-.52-.62-1.2-1.54-2.06-2.76l-2.8-4c-1-1.48-2-3-3-4.51s-1.94-2.93-2.77-4.2c.52-.63,1.25-1.47,2.18-2.53s1.91-2.2,2.92-3.35,2-2.2,2.92-3.18,1.58-1.7,2-2.14l-1.25.15c-.36,0-.72,0-1.09,0s-.72,0-1.08,0l-1.09-.15c-.34.49-.89,1.23-1.64,2.21s-1.59,2-2.52,3.19l-2.92,3.62q-1.51,1.83-2.84,3.38v-3.73c0-1.89,0-3.62,0-5.17a28.44,28.44,0,0,1,.27-3.5l-1.44.15c-.52,0-1.1,0-1.75,0s-1.23,0-1.75,0l-1.44-.15c.11,1.68.18,3.37.24,5.05s.07,3.57.07,5.72v5.29c0,2.15,0,4.07-.07,5.75s-.13,3.3-.24,4.9a12.86,12.86,0,0,1,1.44-.07h3.5a12.86,12.86,0,0,1,1.44.07,43.4,43.4,0,0,1-.27-4.82Q288.67,343.07,288.68,338.83Z" transform="translate(-164.09 -314.84)"/><path class="cls-1" d="M318.31,343.54a6.48,6.48,0,0,1-.35,2.25,5.28,5.28,0,0,1-.93,1.67,4.09,4.09,0,0,1-1.36,1,4,4,0,0,1-1.63.35h-1.13l-1-.08c0-.34,0-.77,0-1.29v-1.71c0-.62,0-1.26,0-1.9v-4c0-.6,0-1.17,0-1.71h.74a8.38,8.38,0,0,1,.93,0,4.46,4.46,0,0,1,3.54,1.36A5.73,5.73,0,0,1,318.31,343.54ZM318,331a5.62,5.62,0,0,1-.39,2.18,4.78,4.78,0,0,1-1,1.56,4.26,4.26,0,0,1-1.44.89,4.21,4.21,0,0,1-1.59.31h-1.75c0-.67,0-1.32,0-1.94v-2c0-.68,0-1.51,0-2.49s.06-2,.12-2.92a3.66,3.66,0,0,1,.69-.08c.24,0,.64,0,1.21,0a4.34,4.34,0,0,1,1.95.39,3.54,3.54,0,0,1,1.28,1,3.24,3.24,0,0,1,.7,1.44A6.61,6.61,0,0,1,318,331Zm-12,4v5.29c0,2.15,0,4.07-.07,5.75s-.13,3.3-.24,4.9a16.5,16.5,0,0,1,1.75-.07h2.18c1,0,1.92,0,2.8,0s1.88,0,2.92,0a16.35,16.35,0,0,0,3.38-.34,7.62,7.62,0,0,0,2.88-1.33,6.51,6.51,0,0,0,2-2.41,7.57,7.57,0,0,0,.78-3.58,5.32,5.32,0,0,0-.78-2.95,6.38,6.38,0,0,0-1.83-2,7.41,7.41,0,0,0-2.29-1.13,8.25,8.25,0,0,0-2.1-.43v-.08a10.2,10.2,0,0,0,2-.58,7.9,7.9,0,0,0,2.06-1.17,6.85,6.85,0,0,0,1.64-1.9,5.54,5.54,0,0,0,.66-2.77,5.84,5.84,0,0,0-.59-2.72,4.37,4.37,0,0,0-1.59-1.86,7.06,7.06,0,0,0-2.49-1.09,13.15,13.15,0,0,0-3.19-.35c-1.11,0-2.28,0-3.5.11s-2.38.08-3.5.08c-.65,0-1.23,0-1.75,0l-1.44-.15c.11,1.68.18,3.37.24,5.05S306.06,332.83,306.06,335Z" transform="translate(-164.09 -314.84)"/><path class="cls-1" d="M337,331.52c-.67,1.55-1.31,3.1-1.9,4.63s-1.18,3-1.75,4.62h7.11q-.86-2.37-1.71-4.62C338.23,334.62,337.64,333.07,337,331.52Zm13.77,19.4c-.62-.05-1.22-.07-1.79-.07h-3.31c-.54,0-1.09,0-1.63.07-.41-1.27-.84-2.56-1.28-3.88s-.91-2.65-1.4-4c-.83,0-1.66,0-2.49,0s-1.66,0-2.49,0c-.68,0-1.35,0-2,0s-1.35,0-2,0c-.51,1.32-1,2.64-1.43,4s-.85,2.61-1.21,3.88a5.82,5.82,0,0,0-.93-.07H327a7.36,7.36,0,0,0-1,.07c.31-.67.72-1.6,1.24-2.8s1.09-2.54,1.71-4,1.29-3.11,2-4.82,1.44-3.49,2.14-5.25,1.42-3.5,2.1-5.21,1.33-3.31,1.9-4.79l.74.16c.23,0,.48,0,.74,0s.5,0,.74,0L340,324q1.25,3.32,2.64,7.08t2.88,7.43q1.44,3.62,2.8,6.88T350.79,350.92Z" transform="translate(-164.09 -314.84)"/><path class="cls-1" d="M354.17,332q0,3-.11,6.18c-.06,2.13-.13,4.11-.24,5.95s-.15,3.36-.23,4.63a18.68,18.68,0,0,1-.2,2.21c.6-.05,1.2-.07,1.79-.07h.9a5.82,5.82,0,0,1,.93.07c0-.28-.05-.66-.08-1.12s-.05-1.12-.07-1.87-.06-1.67-.08-2.76V334.4l.08-2.26q9,9.45,17,18.78a13.76,13.76,0,0,1,1.52-.07c.54,0,1.07,0,1.59.07V341c0-1.66.07-3.33.12-5s.12-3.47.19-5.37.19-4.05.31-6.41a10.19,10.19,0,0,1-1.75.19,10.39,10.39,0,0,1-1.75-.19,10.5,10.5,0,0,1,.12,1.51c.05.76.08,1.65.08,2.69s0,2.17,0,3.42,0,2.46,0,3.73v7.16q-4.37-4.71-8.52-9.26t-8.36-9.25a8.15,8.15,0,0,1-3.5,0c0,.93.06,2,.11,3.22S354.17,330.16,354.17,332Z" transform="translate(-164.09 -314.84)"/><path class="cls-1" d="M388.51,338.83h.08q2,3,3.89,6.11t3.89,6c.57-.05,1.13-.07,1.67-.07h3.46c.6,0,1.27,0,2,.07q-.78-.93-2.07-2.76t-2.8-4l-3-4.51-2.76-4.2c.52-.63,1.24-1.47,2.18-2.53s1.9-2.2,2.91-3.35,2-2.2,2.92-3.18,1.58-1.7,2-2.14l-1.24.15c-.37,0-.73,0-1.09,0s-.73,0-1.09,0l-1.09-.15c-.34.49-.88,1.23-1.63,2.21s-1.6,2-2.53,3.19-1.91,2.37-2.92,3.62-2,2.35-2.84,3.38v-3.73c0-1.89,0-3.62,0-5.17a30.61,30.61,0,0,1,.27-3.5l-1.43.15c-.52,0-1.11,0-1.75,0s-1.24,0-1.75,0l-1.44-.15c.1,1.68.18,3.37.23,5.05s.08,3.57.08,5.72v5.29c0,2.15,0,4.07-.08,5.75s-.13,3.3-.23,4.9a12.86,12.86,0,0,1,1.44-.07h3.5a12.8,12.8,0,0,1,1.43.07,46,46,0,0,1-.27-4.82C388.53,344.08,388.51,341.66,388.51,338.83Z" transform="translate(-164.09 -314.84)"/><path class="cls-2" d="M170.74,318.74v37.93H169.4V318.74Zm-2.6,3.95v30H166.8v-30Zm-2.71,3.91v22.25h-1.34V326.6Zm27.74,34V338.41H173.42v22.21h-1.34V314.84h1.34v22.23h19.75V314.84h1.34v45.78Zm2.68-3.9V318.79h1.34v37.93Zm2.6-4v-30h1.34v30Zm2.71-3.91V326.61h1.34v22.24ZM190.53,335.7H176l-1.33,0v-17H176v15.64h14.52V318.71h1.34v17h-1.34Zm-1.86-2.65h-10l-1.32,0V322.65h1.34v9.06h9.23v-9.06h1.34V333h-.57Zm-2.93-2.57h-4.5l-1.33,0v-3.87h1.35v2.55h4v-2.55h1.34v3.87h-.83ZM176,339.64h15.86v17h-1.34V341H176v15.64h-1.35v-17H176Zm1.86,2.64h10l1.33,0v10.38h-1.34v-9.06h-9.23v9.06h-1.34V342.3h.57Zm2.93,2.57h4.5l1.32,0v3.87h-1.34v-2.55h-4v2.55H180v-3.87h.83Z" transform="translate(-164.09 -314.84)"/></g></svg>