<svg xmlns="http://www.w3.org/2000/svg" viewBox="0 0 253.8 71.72"><defs><style>.cls-1{fill:#003671;}.cls-1,.cls-2{fill-rule:evenodd;}.cls-2{fill:#ef7d00;}</style></defs><path class="cls-1" d="M184.91,543.93a4.9,4.9,0,0,1,3.76,1.22c.86.93,1.24,2.45,1.24,4.94v31.13c0,4.3-.84,6.23-5.78,6.23h-.67v1.91h22.19v-1.9H205c-4.89-.07-5.71-2-5.71-6.23V550.09c0-2.48.38-4,1.23-4.92a4.94,4.94,0,0,1,3.82-1.24h1.33V542H183.46v1.94Z" transform="translate(-183.46 -518.28)"/><path class="cls-1" d="M252.54,573.58s-.37-1.94-.43-3V556.37c-.08-8.28.92-12.4-5.49-12.37v-1.85h14.75V544c-6.6,0-5.77,4.09-5.81,12.37V589.5l-2.1,0-31.85-37.6s.36,1.93.42,3v23.23c-.18,8.48.75,9.5,5.59,9.4v1.94H212.24v-1.94c4.85,0,5.8-.72,5.79-10.09V555.09l0-3.63c.18-4.7-1.36-7.43-6.06-7.39v-1.86h14.16l26.45,31.37Z" transform="translate(-183.46 -518.28)"/><path class="cls-1" d="M309.94,541.57h-1.7l-.08.62c-.12.92-.46,2.46-1.45,2.46a4.74,4.74,0,0,1-1.78-.53,29.91,29.91,0,0,0-11.69-2.55,24.79,24.79,0,0,0-25.41,25.56,21.3,21.3,0,0,0,7.42,16.41c5,4.53,10.6,6.45,18.74,6.45,6.79,0,10.67-1,16.63-4.41l1-.6V572.81c0-5.19.6-6,4.59-6.17l.65,0v-1.81H297.4v1.81l.65,0c4.45.19,5.29,1,5.29,5.32v11.28c-3.3,2.3-5.7,3.17-8.72,3.17a15.57,15.57,0,0,1-11.51-5c-3.58-3.79-5.33-9.31-5.33-15.55,0-6.72,1.69-12.45,5.18-16.13a14.35,14.35,0,0,1,10.66-4.56,18.44,18.44,0,0,1,11.1,4.21,13.92,13.92,0,0,1,4.65,7.51l.14.51h1.67l-1.24-15.78Z" transform="translate(-183.46 -518.28)"/><path class="cls-2" d="M429.86,582.58A15.3,15.3,0,0,1,418,587.26h-2.22a8.14,8.14,0,0,1-3.7,1.23H400.05c0-1.23.49-1.47.49-2.21s1-2,1.48-2l1,2.21a1.35,1.35,0,0,0,1-1.47c0-1-1.24-2.22-1.24-2.22l1-1c.49.25.74,1,1,1,1,0,1.48-.49,1.48-.74s-.74-.74-1.23-1.23a2.55,2.55,0,0,0-2-1c-1.48,0-3.45,3.45-3.7,5.18l-.49,3.44h-2c.25-1.72-.25-3,.25-4.43.24-.25.74.25,1.23.49,0-.49.74-1,.49-1.72a3.53,3.53,0,0,0-1.23-1c.25-.49.74-1.72.74-1.72s2,.74,1.72.49c0-.49-.49-.49-.24-1,.49-.24,1.23.5,1.72.25v-.74a6.07,6.07,0,0,0-2.71-.74c-1.72.25-1.48.5-1.72,1-2,.24-3.21.74-4.19.74l-2.22,2.71c.25,1.23,0,2.71.49,3.69a7.43,7.43,0,0,0,1,2H369.75c.49-.73.74-1.72,1.48-2.21,0,.24.24.24.49.49h1.48c.74,0,1.23,0,1.48-.49-.74-.5-2-.74-2.71-1.23,0-.74.24-1.48.24-2.22a2.23,2.23,0,0,0-2.46-2.22,2.59,2.59,0,0,0-2.22,1.23,8.86,8.86,0,0,0-2-1.23v-2c1.48-.74,2.71,0,3.94.49h1c0-.24-.49-.24-.49-.49-1-1.73-3-2-5.18-1.73-.74.25-.74,2-1.48,1-1,0-1.47.49-2.21.49l-1.24.5c-.49.24-.24.24-.49.73-.49,1.24-1.23,2.22-1.72,3.21,0,1.23-.5,2.71,0,3.69.49.74.73,1.24,1.23,2H329.83a7.16,7.16,0,0,1-1.23-4.43,4,4,0,0,1,1.23-2.71c0-1.23,0-2,1.73-3.45a3,3,0,0,1,3.2-.49,4.31,4.31,0,0,1,3.2-1.48,4.43,4.43,0,0,1,3.45,1s.74-2.95,1.23-4.43a41.19,41.19,0,0,1,3-7.15c-1.23-3.94-2.71-7.63-3.2-11.33a2.61,2.61,0,0,1,.24-.74l.5-.49c.49-.74.49-1.72,1-2.22-.49,0-1,.5-1.23.5s-.74.74-.74,1c-.25-.24-.25-.49-.25-1,0-.74-.24-1.48-.24-2a1.6,1.6,0,0,1,1.23-1.47c0-.74.25-2,.25-2.71l-1.73,1.72v-3.2c.25-.25.74-.49,1-1a35.58,35.58,0,0,1,1.23-10.59c.25-1,1-1.48,1.48-2.22V526.9c.74-.49,1.23-1.23,2-1.48a1.83,1.83,0,0,0-1.23-.25,9,9,0,0,1,2.95-3.69,6.65,6.65,0,0,1,1.48-1.23c.49,0,.49.24.49.24,1.24,0,2,.5,3.46.5a3,3,0,0,0-2-1l.25-.25a6.13,6.13,0,0,1,2.71-1c.49,1,1.23,1.48,1.48,2.22l.74.49c-.25-1,.25-2.22-.74-3.2.74,0,2.46,1,3.94,1.72.74,0,1.48-.74,2.22-.74a14.11,14.11,0,0,0-.74,3.45c.49-.49.74-1.23,1.23-1.72,0-.74.74-1.24,1-2.22a6.9,6.9,0,0,1,3.2,0c-1,.49-.74,1.23-.74,1.72H367a6.35,6.35,0,0,0,2-.74,3.46,3.46,0,0,1,2.22.74c-.74.25-1.48.5-1.73,1h3.21L373,521c2.47,1.72,3.45,4.43,4.44,7.14-.5-.25-.74-.49-1.24-.49.25.49.25,1.48.74,1.48,1,0,1.24.73,1.73,1.23,1,1,2.71,2,3.2,3.69,1.72,3.46,1.48,4.44,2.22,6.66-.5-.49-1.48-.25-2-1a2.83,2.83,0,0,0,2.71,2.71,9.47,9.47,0,0,1,1.23,3.7c-.49,0-.74-.49-1.48-.74v.25c0,1.23.49,1.72,1.72,2.21v2.71c2.22,1.48,4.69,2.71,7.15,2.71a17.55,17.55,0,0,0,6.16-1.47,3.61,3.61,0,0,1,1.23-3.45,4.3,4.3,0,0,1,3-1c2.46,0,4.93,1.72,6.9,3.7a56.7,56.7,0,0,1,5.17,8.12,35.84,35.84,0,0,1,2.46,13.56,35,35,0,0,1-1,8.13,5.47,5.47,0,0,0,3.2.74c3,0,5.67-1.73,7.64-3.7,3.2-3.45,5.42-8.63,5.42-16.26,0-5.91-2.22-12.57-8.13-19a20.55,20.55,0,0,0-6.9-4.93c-2.22-.49-4.43.74-7.14.25a12.71,12.71,0,0,1-4.44-3l.25-.24c.49.73,1.48.49,2.46.73.25-.24-.24-.73-.24-1a5.67,5.67,0,0,1,2.95-.5c-.74-1.47-2.22-.73-2.95-1.23a1.16,1.16,0,0,0-1.24,0c0,.25.5.74.5,1.23-.5,0-1-.49-1.48-.49H406c-1-1-1.48-3.2-3.21-3.94v-.49c3-.5,5.67-2,8.87-1.48a1.88,1.88,0,0,1,1.23.24l-.74.74a4.6,4.6,0,0,0,2.71,1.23h.25c-.25-.73-.74-1.23-.74-1.72a7.11,7.11,0,0,1,2.71,2.22,23,23,0,0,0,6.65,7.15,27.22,27.22,0,0,1,3.95,3.2,31.11,31.11,0,0,1,9.6,22.91c0,3.45-.24,12.32-7.39,19Zm-68.73,5.91c-.5-1.72-2-2.71-1.48-4.68.49-.24,1.72-.24,1.72-1.47,0-.25-.24-.5-.74-.5l-.74.25a2.25,2.25,0,0,1,.74-1.23l2-.74a7.87,7.87,0,0,0-.49,3.45,13.72,13.72,0,0,0,1.23,4.92Zm34-4.68a31.41,31.41,0,0,0,.74,4.68h-2a10.48,10.48,0,0,1-1.23-4.18c0-.5.25-1.48.49-1.48.5.74.5,1.23,1,1.48.49-.25.49-.74.49-1.48a2.09,2.09,0,0,0-.49-1.48l1.72-.25c0,.74-.74,1.73-.74,2.71Zm-28.82,4.68h-1.48a19.19,19.19,0,0,1-1-5.17c.24-.49.49-1.23,1-1.48h0l1.48,1.48h.25c0,1.73-.25,3.2-.25,5.17Zm2.71,0h-1.48s.74-4.18.74-4.92a1.57,1.57,0,0,1,1.23-1.23,1.17,1.17,0,0,1,1.24,1.23c0,.74-1,2.95-1.73,4.92Zm40.16-59.37c-1,.49-1.48,1.23-2.71,1.23.74.25,1,.49,1.48.49a1.08,1.08,0,0,1,1.23-.24,5.44,5.44,0,0,0,2,0c-.49-.5-1.23-.75-2-1.48Zm-62.34,1.23a10.65,10.65,0,0,0-1.23,1.72v1l1.23-.49v-2.22Zm69.73,3.2c-.25-.49-.74-1.23-1.23-2.21a4.73,4.73,0,0,0-2.22.73c.74,0,1.48.74,2,1.48.74,0,1.23.49,2,1.24l-.49-1.24Zm-40.65,11.83a14.73,14.73,0,0,0-7.64-2v-.49a3.91,3.91,0,0,0,2.47-2.71c.73-.74,1.47-1.73,1.23-2.71a.79.79,0,0,1,.24-.5c0-.24.25-.74,0-.74-.24.5-.74.5-1,.74a7.67,7.67,0,0,0,.24-4.68c.5,0,.74-.25,1.24-.25l1-1.23c1-.49.49-2.22,1-3.2-.5-1.23-.74-2.22-1.48-2.71-.49-1.23-2-.74-2.71-1.48-1.48-.25-2.22.74-3.2,1.23-.25,0-.25.49-.5.25-.24.74-.49,1.48-.74,2.22a7.34,7.34,0,0,0-4.68.73,7.17,7.17,0,0,0-2.46-.73,4.16,4.16,0,0,1-1.73-.25c-.49-1-.49-2-1.48-2.22-.74-.49-.74-.49-.74-1a4.57,4.57,0,0,0-2-.5c-1-.49-1.72.25-2.71.5a1,1,0,0,1-1,.49,8.15,8.15,0,0,0-1.48,3c0,1,.49,1.47.74,2.46a6.25,6.25,0,0,0,2.71,2.22,9.1,9.1,0,0,0,0,5.17l-.5.25c0,1.23,1,2.71,2,3.94.49,0,.49.74.74,1v.74a11.88,11.88,0,0,0-7.15,1.72c-.49.25,0,.74,0,1.48a14.86,14.86,0,0,1,4.43-2.22h2.47v1.48c-2,1.23-3.94,1.72-5.67,3.45,0,.49-.25,1,0,1.23a15.5,15.5,0,0,1,1.48-1,24.66,24.66,0,0,1,4.68-3,10.82,10.82,0,0,0,1.23,1.72,21.74,21.74,0,0,0,3.45-1.72c.74-.25,1.48,0,2.22-.49V543.9a1.69,1.69,0,0,1-1.23-2c-.25,0-.49.25-1,.25,0,0-.73-.25-.73-.5,0-.49,0-1,.24-1,1-.74,2-.49,3.21-.49,1,0,3.45,0,3.45,1,0,.74,0,1-.5,1.23-.24,0-.74,0-.74-.24a2.08,2.08,0,0,1-2,1.72l.25,1c0,.49.25,1.23.74,1.23a12.39,12.39,0,0,1,4.43,2.22,3.74,3.74,0,0,1,1-1.48c2.71.49,4.93,2.46,6.65,4.19v-1.48c-1.72-1.73-3.94-2.71-6.16-3.94v-1.24a15.62,15.62,0,0,1,7.64,2.47v-1.48Zm-30.31-9.61a11.53,11.53,0,0,0-.74,2.71l.74,2.71c0-1.48,1-2.71.74-4.93l.74-1-1.48.49Zm29.82.49-1,4.19,1.48-.49.24-1.48a8,8,0,0,0-.73-2.22Zm4.18,9.37c0-.25,0-1-.74-.74-.49-.25-.49-1-.73-1.48a6.45,6.45,0,0,0,0,2.22c.49,1.23,1,1.72,2.21,1.72a5.12,5.12,0,0,0-.74-1.72Zm-14.78,2.71a11.62,11.62,0,0,0-9.12,0,5.22,5.22,0,0,0,1,3.45l1-1.24v2.22a2.65,2.65,0,0,0,1.72.49,2.09,2.09,0,0,1,.74-1.23c0-.24,0-1,.49-1h0a2,2,0,0,0,.5,1.72v.49c.74.5,1.47,0,2,0,0-1,.24-1.47.24-2.21v-.5a3.14,3.14,0,0,1,1,1.73c1.23-.49,1.48-2.47,1.72-3.45a1.35,1.35,0,0,0-1.23-.49Zm15.52,2a2.79,2.79,0,0,0-2,.24c0,.5.25.5.49,1.24h1.48c.5,0,1,.49,1.48,0-.74,0-1-.74-1.48-1.48Zm25.38.74c-.49-.5-2,0-2-1a1.08,1.08,0,0,0-1.48,0c-.74.25-1.73,2-1.23,2.46a7.4,7.4,0,0,1,2.46-.73,20.17,20.17,0,0,1,3.21.73,5.28,5.28,0,0,0-1-1.47Zm-29.07,1.72L375.42,554c.49,1,1.72.5,2.95.5l-1.72-1.73ZM372.71,555c0-1.73-1.48-1.73-2.22-2.47a17.71,17.71,0,0,0,.74,3c.74.49,1.48,1.48,2.71,1.23-.74-.74-1.23-1.23-1.23-1.72Zm-19.47-1.73a8.41,8.41,0,0,0,1.48,3.7l.24-2.46-1.72-1.24Zm-2.47.74v-.24a4.36,4.36,0,0,0-1.72-1.24,9,9,0,0,0,.49,2.47,4.84,4.84,0,0,0,3.21,2.46c-.25-1.48-1.48-2.46-2-3.45Zm53.23-.24a4.72,4.72,0,0,0-2.47,1.23,4.11,4.11,0,0,0,0,1.72,5,5,0,0,1,2.71-1.48c1,0,1.23.25,2.22.25,0-.74-1.23-1.72-2.46-1.72ZM384,555l-1.48,1a3.4,3.4,0,0,0,3.45,0,3,3,0,0,1-2-1Zm-14.29,2.46a7.62,7.62,0,0,0-.74-3.2c-.49,1.23-1.23,3,0,4.68.49.74,1.73.49,2.46.24-.24-.49-1.47-1-1.72-1.72Zm-23.16-1h0c-.25.24-1,.73-1,1.23s.25,1.23.25,1.72c.49-1.23,1.47-1.72,2.21-2.46-.49-.25-1-.25-1.47-.49Zm34,.49a3.82,3.82,0,0,1-1.73.74c.74,1,2,1.47,3.95,1.47l1-.24a11.33,11.33,0,0,1-3.2-2Zm-14.54-.49a5.23,5.23,0,0,0-1.47,1.72c-.25,1,1.47,1.23,2.46,1.72-.74-1-.74-2.21-1-3.44Zm42.87.73c-.49,0-.74.25-1.23.25-.74,0-.49-1-1.23-1-.25,0-.74.49-1.23.49s-1.23.24-1.73.24c-.74,0-.74,1-2,1l.25,2a8.36,8.36,0,0,1,3.94-2,15,15,0,0,1,5.17,1.48c-.24-1-1-2.47-2-2.47Zm-50.51,0a2.65,2.65,0,0,0-1.72-.49c0,1,1,2.22,2,3.2.25-1-.25-1.72-.25-2.71Zm2.22,1.48.74,1.73c1.23-.5,1.23-2.22,1.23-3.45a6.53,6.53,0,0,1-2,1.72Zm36,1.23c-.24-.49-.74-.74-1-1-1-.25-1.73-1.73-3.21-1.73a36.19,36.19,0,0,0,4.19,4.44v-1.73Zm-9.61-.74a3.78,3.78,0,0,0-.24,1.73,4,4,0,0,0,.74,1.48c.49-.5.74-.74.74-1.24,0-.73-.74-1.47-1.24-2Zm-10.59,0a12.19,12.19,0,0,0-2.22.74,16.46,16.46,0,0,0,2,1.73,6.3,6.3,0,0,0,3,.49,9.85,9.85,0,0,1-2.71-3Zm-27.35.74c0,1-.49,2-.49,3.21l.74-.74a5,5,0,0,0,1.47-2.71,2,2,0,0,0-1.72.24Zm61.84,2c-.74-.24-1-1-2-1s-.24.49-1.23.49c-.74,0-1.23-.49-2-.49-1.23,0-1,.74-3.45.74v2a2.26,2.26,0,0,0,1.23.24,1.63,1.63,0,0,0,1.73-1.47c0-.5,1,.24,1.48,0a1.7,1.7,0,0,1,1-.5c.74,0,.49.74,1,1.24,0,.49,1.47,1,2.71,1a16,16,0,0,0-.5-2.22Zm-36.95,1.24-.74-1.24h-.49c-.74.25-1.73.25-3,.5,1.72,1.23,3.45,2.46,5.67,2h.49a4.29,4.29,0,0,0-2-1.23Zm-21.69-1c-.49,1-1.48,2.71-3.2,3.2,1,0,2.22.5,3.2-.49l1-2.71c-.49,0-.49-.25-1,0Zm37.95,1.72v-1.47a1.05,1.05,0,0,1-.74-.25,7.3,7.3,0,0,0-.49,2.22,4,4,0,0,0,1.23,1.48.88.88,0,0,0,.74-.5c.24-.49-.25-1-.74-1.48Zm-22.67,0c-.24,0-.49-.24-.49-.73l-3-.74c0,.24,0,.74.25.74,1.23.73,1.23,2.21,2.71,2.71a3.64,3.64,0,0,0,2.22-.5,11.62,11.62,0,0,0-1.73-1.48Zm-10.59-1.23-1.73,1.73a3.89,3.89,0,0,0-1.72,1c1,.5,2,0,2.71,0,1-.49,1.48-1.48,2.21-2.71Zm37.69,3.21s0-.74.49-.74a.49.49,0,0,1,.5-.5c-1-1-1-2.71-2.22-2.71-.49-.49-.74-.74-.74-1.23a4.77,4.77,0,0,0-2.46-.74,3.87,3.87,0,0,1,1.72,1.73c.74,1.72,1.73,3,2.22,4.68.49,1,.49,2.22,1,3.2,0,.74,0,1.23.5,1.23,0-1.23.24-2.71.24-3.94a2.41,2.41,0,0,0-1.23-1Zm-35-1.24a6.39,6.39,0,0,1-1.24,2.22c-.49.49-1,.74-1.23,1.23,1.23-.49,2.22-.74,3-1a7,7,0,0,0,1.73-2.71,7.79,7.79,0,0,0-2.22.24Zm49,.74c0-.74-1.48-.74-3-.74-.49,0-2,.74-2.47.74a7.25,7.25,0,0,0,.75,1.48,13.71,13.71,0,0,1,2.46-.49c1,0,1.48.24,1.48,1,0,.5,1.23.74,1.72.74,0-1.72-1-2.21-1-2.71Zm-10.84,0c0-.49-.5-.49-1-.49l-.49.49h.24a22.25,22.25,0,0,1,1.73,3.45c-.25-.74.24-1.48.24-2.22,0-.49-.49-1-.73-1.23Zm-9.37,3.94a2.63,2.63,0,0,0,.25-1.23c0-1.23-.74-1.72-.74-1.48-.49.5-1.23,1-1.23,2,0,.73,1.23,1.23,1.23,1.23.25.49-.25.49-.25,1a3.71,3.71,0,0,1,1.24,3c0-1.23.49-2.21.49-3.45,0-.49-1.23-.49-1-1Zm20.21.25c-.74,0-1-.49-1.73-.74-1.23-.24-.74-.74-2.22-.74a1.81,1.81,0,0,0-1,1.48V571c.74-.25,1-1.23,1.72-1.23,2.71,0,2,2.46,3.21,2.46v-2.71ZM366.3,569c-.49,0-.74.24-1.48.24a2.43,2.43,0,0,0,.25,1,4.87,4.87,0,0,0,2,1h.25l-1-2.22Zm11.83.74c-.5,0-1.24,0-1.48-.25-1.23-1.48-2.22,1.23-3.45.74-.49.49-1.23,1-1.23,1.48l.24.25a4.88,4.88,0,0,0,2-1c1.24-.25,2.22,1,3,.25.49-.25.74.25,1,.25.49.73,1.23.73,2.21.73-.74-.73-1-2-2.21-2.46Zm15,1.73a4.08,4.08,0,0,0-.24-2.47,4.3,4.3,0,0,0-.25-2.47c-.25.74-1.72,1-1.72,2.22,0,.49.74.74.74,1.48,0,.49-.25,1.24-.25,1.73s.74.24,1,.24c.74,0,.5,2,0,3,.5-.74,1.73-2,1.73-3,0-.49-1,0-1-.73Zm-31.53-1.24h-2.71l1,1.48a2.4,2.4,0,0,0,2.22-.24l-.49-1.24Zm-8.87,1v-.5c-.5-.49-1.48-1-2-1.48-.73-1.23-2.21-.73-3.69-1.23l-1.48,1.73v.49a5.81,5.81,0,0,1,2.71-.49c.74.49,1.23,0,1.73.49a3.26,3.26,0,0,0,1.47,1.73c1.24,0,2,1.23,2.47,2.71,0,0,.25-2.47.25-3-.5-.24-1.24-.24-1.48-.49ZM407.2,573c-.74,0-1.48-1-2.22-.74-.49-.24-1.23.25-1.73.25,0,.49-.49.49-.24,1.73,1,0,2.46-.74,3.2.24.25.25.25,1.73,1.73,2,0-1,.24-1.23.24-2a15.83,15.83,0,0,0-1-1.48Zm-26.61,1.73c-1.73-1.73-3.94-1.73-6.16-1.73h-1.72c-.74,0-1.24.74-2,.74l-1,2.22c1.23-1.23,2.46-1.23,3.45-1.72.49.24.24.49.49.49a8.21,8.21,0,0,0,2.46-.25,6.74,6.74,0,0,1,2.22.25c.49,1,1.48,1,2.47,1.48l-.25-1.48Zm32-1.23c-.5.74-.5,1.72-1.23,2.21l1.47,1.48a3.28,3.28,0,0,0,.5-2.22c0-.24-.5-1.47-.74-1.47ZM352,575.93c-.25-.25-.74-.74-.5-1.23A6.7,6.7,0,0,1,349.3,573c-.74-.24-1-1-1.73-1a2.66,2.66,0,0,0-2-.49c-1,0-1,1-1.48,1.47a1.2,1.2,0,0,0,.25.74,6,6,0,0,1,2.22-.74,10.24,10.24,0,0,0,2.46,2.22,16.36,16.36,0,0,1,2.46,1c.25.24-.24.49-.24.73.74.5.24,1.73.74,2.22l1.23-1.23c-.49-1,0-2-1.23-2Zm32.52-.74c0-1-1.23-2-2-3V573c.49,1.73,1.48,3.45,1,5.67.25,0,.5.49,1,1h0a26,26,0,0,0,0-4.43Zm20.7,2c-.5-.25-1,0-1.48-.25a1.81,1.81,0,0,0,.25-1c-.5,0-.75-.25-1.24-.74-.49,0-.49,0-.74.49l-1.72,1.48c1,0,.74-.49,2-.49.49,0,.74,1,.74,1.48a4.51,4.51,0,0,1,2.71,1l.49-.49a1.67,1.67,0,0,0-1-1.48Zm-55.19,2-2-.74a2.26,2.26,0,0,1-.24-1.23c0-1-1.23-1-2-1.48l-1-.49h-1.23a2.15,2.15,0,0,0-.74,1.48c.74.24.74-.25,1.23,0,1,.49,2.71.74,4.44,2.46l1.23,3.21.49-1.73-.24-1.48Zm61.35.25v-1a1.64,1.64,0,0,0-1.24-1.72l-.73,1.23c.73,1.72,2,2.22,2,3.2,0-.24.24-.49.73-1,0-.5-.73-.5-.73-.74Zm-30.06,0a2.24,2.24,0,0,0-1-2c-1.48-.5-2.71-1.23-4.43-1.23l-1.48.24c-.74.25-1.72,0-2.46.49l-.74,1.73c.74-.74,2,0,2.95-.74.5-.49.5.49,1,.74.74.49,1,2,2,1.48,1.48.74,1.23,2.22,1.23,3.45l1.23-.74c-.24-.49,0-1.23-.24-1.73-.5-1-1-1-1.73-1.48.74-1-.49-1.23-.74-1.72h1.73a1.85,1.85,0,0,1,1,1.72c1.48,0,1.73,1.73,2.22,2.72l.74-2.22c0-.5-.74-.5-1.23-.74Zm-5.67,1.72c-.24-.24-1,0-1.23-.24,0-.74-.49-.74-.74-1.24a1.21,1.21,0,0,0-1,0l-.5.5c.5,0,1,1,2,1,1,.25.5,1.73,1.24,2.47l.49-.74a2.19,2.19,0,0,0-.25-1.73Zm-32.52-1,.74-1-1-.24a3.9,3.9,0,0,0-2.71,1.23c-1.48,1.48-1.48,4.93-1.48,6.4v.25c.49-1,1.48-2.22,2-3.2.25-.74.25-1.23.74-1.48a2.73,2.73,0,0,1,1.73.74,16.42,16.42,0,0,0-.5,3.45s2.47-2.22,2.47-3.94c0-1-1.23-1.73-2-2.22Zm-5.92,0c0-.74,0-1.48.74-1.73l-2.22.25a6.54,6.54,0,0,0-1.23,2.22,7.87,7.87,0,0,0-.74,3.45,6.14,6.14,0,0,0,.5,3,5,5,0,0,1,1.47-1c-.73-2.47-.49-3,.25-4.44,1,0,1.48,1,1.73,1.73a4,4,0,0,0,.73-2.22,1.28,1.28,0,0,0-1.23-1.23Zm-4.92.49-2,2.22v2.95c.49.74,1.23,1.48,1.47,1.48a5.59,5.59,0,0,0,.25-1c0-1.23-.49-2.22,0-3.45.49,0,1,.74,1.23.74a2.38,2.38,0,0,0-1-3ZM352,529.85c-.74-1.23-2,0-2.47-1.72.25-1.23.5-3,2.22-3.2h.49c1.24.49,3.45.74,3.45,2.71a14.72,14.72,0,0,0-3.69,2.21Zm19.46,1H371a6.29,6.29,0,0,0-3.45-3.2,2.33,2.33,0,0,1,1.23-2.22l1.48-.49a20.13,20.13,0,0,1,2.47,1.48,5.46,5.46,0,0,1,0,3.94c0,.49-.74,0-1.24.49Zm-6.89.5c-.74,0-.25-1.49-1.24-1.49-.24,0-.49,0-.24-.24.24-.49.74,0,1.23,0,.74-.49.74,1,1.72,1,.25.24.25.24.25.74Zm-6.17,0h-2c0-.5.5-1,1.24-1.24s1.72-1,2.21-.49c-.49.49-1,1.23-1.48,1.73Zm-.73,7.63c-.74.74-1.24,1.24-1.24,1.73-.74.49-1.48.49-2,1-.49-.49,0-1.72.25-2,.74-.74,2-.74,2.22-2v-2.46c0-.49-.25.24-.74,0a1.14,1.14,0,0,1-1.24,0c-.49-.25-1-.49-1-1.24-.49,0-1.23-.49-1.23-1h4.68c.49.25,1,.49,1,1,0,1.73-.73,3.46-.73,4.93ZM368.52,534c-.49,0-.49,1-1,1.24-.49.49-1.23.24-2,.24-.49-.24-.74-.49-.74-.73l-.24.24a11.34,11.34,0,0,1,.24,3l1.23.49c0,1.73,1.48,1.23,2.47,2a2.26,2.26,0,0,1-1,1.48c-.49-.74-1.23-.74-2-1.23a1.85,1.85,0,0,0-1.72-1.73,15.78,15.78,0,0,0-.5-4.93h.5c.24-.73,1-.73,1.48-1l4.18.25c.25.24,0,.24,0,.24a1,1,0,0,1-1,.49ZM355,544.89c-.49-.25-.24-1-.24-1,1,0,1.72-.49,2.22,0a6.85,6.85,0,0,0-2,1Zm9.86-.5.25-.49h2v1.23l-2.22-.74Z" transform="translate(-183.46 -518.28)"/></svg>