<svg id="Layer_1" data-name="Layer 1" xmlns="http://www.w3.org/2000/svg" viewBox="0 0 510.43 123.05"><defs><style>.cls-1{fill:#00684b;}.cls-2{fill:#c99c00;}</style></defs><path class="cls-1" d="M99.29,171.9a59,59,0,1,1,59,59,59,59,0,0,1-59-59" transform="translate(-99.29 -112.86)"/><path class="cls-1" d="M328.17,157.81V172.9c0,5.2,1.26,8.41,4.65,12l1.45,1.54,1.52-1.54c3.33-3.55,4.56-6.93,4.56-12V157.81h9.9V172.9c0,13-6.69,18-10.49,22h-11c-3.8-4-10.49-9-10.49-22V157.81Z" transform="translate(-99.29 -112.86)"/><path class="cls-1" d="M237.12,149.19H247v18.27h2.74l10.37-18.27h11.47l-10.56,18.6c8.83,1.11,9.92,5,9.92,12.34v14.79h-9.9v-14.6c0-4.2-2.37-4.26-6.52-4.26H247v18.86h-9.91Z" transform="translate(-99.29 -112.86)"/><polygon class="cls-1" points="358.24 53.56 348.74 53.56 348.74 82.06 338.84 82.06 338.84 53.56 329.33 53.56 329.33 44.95 358.24 44.95 358.24 53.56"/><polygon class="cls-1" points="201.42 44.95 211.32 44.95 211.32 82.06 179.34 82.06 179.34 44.95 189.25 44.95 189.25 73.95 201.42 73.95 201.42 44.95"/><polygon class="cls-1" points="285.39 53.06 268.52 53.06 268.52 59.4 284.36 59.4 284.36 67.51 268.52 67.51 268.52 73.95 285.74 73.95 285.74 82.06 258.61 82.06 258.61 44.95 285.39 44.95 285.39 53.06"/><path class="cls-1" d="M413,167.32v-9.51h9.9V168c0,8.41-3.36,11.67-11,12.46v14.5h-9.9V180.41c-9.86-.91-11-4.76-11-12.45V157.81h9.9v10c0,4.2,2.38,4.25,6.54,4.25s5.64-.35,5.64-4.7" transform="translate(-99.29 -112.86)"/><path class="cls-1" d="M518.23,181.91V157.8h9.9v24.75c0,9.9-4.66,12.67-15.55,12.67-14.84,0-16.42-3.76-16.42-12.67V157.8h9.89v24.55c0,4.21,2.38,4.26,6.53,4.26s5.65-.35,5.65-4.7" transform="translate(-99.29 -112.86)"/><path class="cls-1" d="M518.23,181.91V157.8h9.9v24.75c0,9.9-4.66,12.67-15.55,12.67-14.84,0-16.42-3.76-16.42-12.67V157.8h9.89v24.55c0,4.21,2.38,4.26,6.53,4.26s5.65-.35,5.65-4.7" transform="translate(-99.29 -112.86)"/><path class="cls-1" d="M575.33,157.81h9.89v13.95h3l10-13.95h11.53l-10.26,14.32c8.65,1.13,9.72,5,9.72,12.3v10.49h-9.9V184.63c0-4.2-2.38-4.26-6.53-4.26h-7.52v14.55h-9.89Z" transform="translate(-99.29 -112.86)"/><path class="cls-1" d="M557.63,194.92,549.82,184h-4.13v10.89h-9.9V157.81h31.87V184h-6.3l7.8,10.89Zm.13-28.5H545.69v9h12.07Z" transform="translate(-99.29 -112.86)"/><polygon class="cls-1" points="394.38 44.95 382.5 44.95 382.5 82.06 372.61 82.06 372.61 44.95 360.73 44.95 360.73 36.34 394.38 36.34 394.38 44.95"/><rect class="cls-1" x="514.56" y="145.52" width="7.34" height="7.34" transform="translate(-53.07 297.15) rotate(-44.98)"/><rect class="cls-1" x="502.38" y="145.52" width="7.34" height="7.34" transform="translate(-56.59 288.63) rotate(-44.99)"/><path class="cls-2" d="M152,230.57l19.17-11.33-3.66,11a60.62,60.62,0,0,1-9,.68,58.37,58.37,0,0,1-6.51-.36m4-57.9L128.22,154.9a18.61,18.61,0,0,0-10.28-3.46l-9.28,0,18.5-11.12a8.87,8.87,0,0,1,12.38,2.87Zm-53.56,2.63,6-7.36c4.86-6,9.27-11.76,22.58-4.91l23.87,12.28Zm58.22-2.63,16.46-29.5a8.87,8.87,0,0,1,12.38-2.87L208,151.42l-9.28,0a18.61,18.61,0,0,0-10.28,3.46Zm53.56,2.63H161.81L185.68,163c13.31-6.85,17.72-1.11,22.58,4.91ZM158.34,172s-9.88-28.51-11.76-34.21c-.76-2.33-1.09-4.33.4-6.27l11.35-14.88,11.35,14.88c1.49,1.94,1.16,3.94.4,6.27-1.88,5.7-11.74,34.21-11.74,34.21m3.25,42.48,9.76-6.06-3.8,9.94ZM152.23,179H164.5l-5.83,4.6Zm.57,10.58,18.38-11.06L167.85,188l-9,5.42Zm-6.89-.64,18.45,10.6-6.08,4.15-9.2-5.57Zm7.15,20.66,18.1-10.95-2.91,8.8-9.43,6.38ZM145.9,209l18.31,11.1-5.54,3.58-9.51-5.32Zm15.69-14.16,9.76-6.06-3.8,9.94Zm-15.86-16.48,10,6-5.87,4.22ZM146,198.8l9.54,5.9L150,208.51Zm9.47,26.08-5.93,3.72-3.92-9.52Z" transform="translate(-99.29 -112.86)"/><text x="-99.29" y="-112.86"/></svg>