<svg id="katman_1" data-name="katman 1" xmlns="http://www.w3.org/2000/svg" xmlns:xlink="http://www.w3.org/1999/xlink" viewBox="0 0 1191 357.92"><defs><style>.cls-1{fill:none;clip-rule:evenodd;}.cls-2{fill:#878786;}.cls-11,.cls-2{fill-rule:evenodd;}.cls-3{clip-path:url(#clip-path);}.cls-4{fill:url(#Adsız_degrade);}.cls-5{clip-path:url(#clip-path-2);}.cls-6{fill:url(#Adsız_degrade_2);}.cls-7{clip-path:url(#clip-path-3);}.cls-8{fill:url(#Adsız_degrade_3);}.cls-9{clip-path:url(#clip-path-4);}.cls-10{fill:url(#Adsız_degrade_4);}.cls-11{fill:#00193e;}</style><clipPath id="clip-path" transform="translate(0 -2)"><path class="cls-1" d="M6.81,180.45a102.76,102.76,0,0,1,1.46-17.4h81.5L27.14,100.43C32.2,90,39.33,79.61,47.91,69.21L143,164.33a22.86,22.86,0,0,1,0,32.24L47.91,291.69c-8.58-10.4-15.71-20.81-20.77-31.21l62.63-62.63H8.27a102.59,102.59,0,0,1-1.46-17.4"/></clipPath><linearGradient id="Adsız_degrade" x1="6.8" y1="178.45" x2="149.68" y2="178.45" gradientUnits="userSpaceOnUse"><stop offset="0" stop-color="#003a73"/><stop offset="0.35" stop-color="#003a73"/><stop offset="0.73" stop-color="#0062af"/><stop offset="1" stop-color="#0062af"/></linearGradient><clipPath id="clip-path-2" transform="translate(0 -2)"><path class="cls-1" d="M178.45,8.81a102.59,102.59,0,0,1,17.4,1.46v81.5l62.63-62.63c10.4,5.06,20.81,12.19,31.21,20.77L194.57,145a22.86,22.86,0,0,1-32.24,0L67.21,49.91C77.61,41.33,88,34.2,98.43,29.14l62.62,62.63V10.27a102.76,102.76,0,0,1,17.4-1.46"/></clipPath><linearGradient id="Adsız_degrade_2" x1="67.21" y1="78.24" x2="289.69" y2="78.24" gradientUnits="userSpaceOnUse"><stop offset="0" stop-color="#ab004c"/><stop offset="0.35" stop-color="#ab004c"/><stop offset="0.61" stop-color="#760030"/><stop offset="1" stop-color="#1a1a18"/></linearGradient><clipPath id="clip-path-3" transform="translate(0 -2)"><path class="cls-1" d="M350.09,180.45a101.57,101.57,0,0,1-1.46,17.4h-81.5l62.63,62.63c-5.05,10.4-12.19,20.81-20.77,31.21l-95.12-95.12a22.86,22.86,0,0,1,0-32.24L309,69.21c8.58,10.4,15.72,20.81,20.77,31.22l-62.63,62.62h81.5a101.74,101.74,0,0,1,1.46,17.4"/></clipPath><linearGradient id="Adsız_degrade_3" x1="207.22" y1="178.45" x2="350.1" y2="178.45" gradientUnits="userSpaceOnUse"><stop offset="0" stop-color="#0062af"/><stop offset="0.27" stop-color="#0062af"/><stop offset="0.65" stop-color="#003a73"/><stop offset="1" stop-color="#003a73"/></linearGradient><clipPath id="clip-path-4" transform="translate(0 -2)"><path class="cls-1" d="M178.45,352.09a101.74,101.74,0,0,1-17.4-1.46v-81.5L98.43,331.76C88,326.71,77.61,319.57,67.21,311l95.12-95.13a22.86,22.86,0,0,1,32.24,0L289.69,311c-10.4,8.57-20.81,15.71-31.21,20.76l-62.63-62.63v81.5a101.57,101.57,0,0,1-17.4,1.46"/></clipPath><linearGradient id="Adsız_degrade_4" x1="178.45" y1="350.1" x2="178.45" y2="207.22" xlink:href="#Adsız_degrade"/></defs><path class="cls-2" d="M154.24,285.57,99.81,340l-4.36-2.12c-11.69-5.68-22.57-13.39-32.57-21.64l-5.79-4.77L157.51,211.06a29.67,29.67,0,0,1,41.88,0L299.81,311.48,294,316.25c-10,8.25-20.88,16-32.58,21.64L257.09,340l-54.43-54.44v70.81l-5.67,1a111.66,111.66,0,0,1-37.08,0l-5.67-1Zm129.33-80.91L338,259.09l-2.12,4.36C330.21,275.15,322.5,286,314.25,296l-4.77,5.78L209.06,201.39a29.67,29.67,0,0,1,0-41.88L309.48,59.09l4.77,5.79c8.25,10,16,20.88,21.64,32.57l2.12,4.36-54.44,54.43h70.81l1,5.67a111.66,111.66,0,0,1,0,37.08l-1,5.67ZM202.66,75.33,257.09,20.9,261.45,23C273.15,28.69,284,36.4,294,44.65l5.78,4.77L199.39,149.85a29.7,29.7,0,0,1-41.88,0L57.09,49.42l5.79-4.77c10-8.25,20.88-16,32.57-21.63l4.36-2.12,54.43,54.43V4.52l5.67-1a111,111,0,0,1,37.08,0l5.67,1ZM73.33,156.24,18.9,101.81,21,97.45C26.69,85.76,34.4,74.88,42.65,64.88l4.77-5.79L147.85,159.51a29.7,29.7,0,0,1,0,41.88L47.42,301.81,42.65,296c-8.25-10-16-20.88-21.63-32.58l-2.12-4.36,54.43-54.43H2.52l-1-5.67a111,111,0,0,1,0-37.08l1-5.67Z" transform="translate(0 -2)"/><g class="cls-3"><rect class="cls-4" x="6.8" y="67.21" width="142.88" height="222.49"/></g><g class="cls-5"><rect class="cls-6" x="67.21" y="6.8" width="222.49" height="142.88"/></g><g class="cls-7"><rect class="cls-8" x="207.22" y="67.21" width="142.88" height="222.49"/></g><g class="cls-9"><rect class="cls-10" x="67.21" y="207.22" width="222.49" height="142.88"/></g><path class="cls-11" d="M858.33,43.54h69.44a23.61,23.61,0,0,1,23.55,23.54v2.17A25.79,25.79,0,0,1,925.61,95H869.2c0,16.49,8,27.39,20.67,27.39h38.32c13.8,0,32,9.88,32,23.55v2.16a25.79,25.79,0,0,1-25.71,25.71H858.33V43.54ZM631.68,17.29h19c9.4,0,17.73,5.73,21.76,9.76l94,122.52V17.29H796V201.11H777.43c-9.39,0-12.25-4.82-16.28-8.85L661.72,64.39V201.11h-30ZM504.21,139l34.28,35a59.84,59.84,0,0,1-27.55,6.45c-37,0-62.23-30.25-62.23-70.84,0-40.94,24.91-70.83,62.23-70.83s62.23,29.89,62.23,70.83c0,17.8-4.85,33.61-13.42,45.74l-14.93-15.11S527.51,121.33,504.21,139Zm6.73-126.14c57.6,0,95.15,43.3,95.15,96.71,0,26.11-9.15,49.8-25.14,67.2l24.18,24.46s-8.89,8.17-20.43,8.17a28.73,28.73,0,0,1-19.1-7.81l-7-7.17C545,202,528.87,206.28,510.94,206.28c-56.88,0-95.15-43.3-95.15-96.72S453.34,12.85,510.94,12.85ZM906,269H860.85v87.94h47.9c29.4,0,37.6-36.28,14-44.06-1.9-.62-4.24-.66-1.24-1.91a15.59,15.59,0,0,0,5.89-4.82C940.12,290.92,927,269,906,269Zm-374,0h8.65c4.27,0,11.74,1.06,14.9,5.45l36.29,56.12V269h15v87.94h-9.36c-4.28,0-6.25-2.31-8.09-4.24l-41.19-61.17v65.41H532Zm171.57,0h8.64c4.28,0,11.74,1.06,14.9,5.45l36.29,56.12V269h15v87.94H769c-4.28,0-6.25-2.31-8.08-4.24l-41.19-61.17v65.41h-16.2ZM1027,269h8.64c4.28,0,11.75,1.06,14.91,5.45l36.28,56.12V269h15v87.94h-9.37c-4.27,0-6.24-2.31-8.08-4.24l-41.19-61.17v65.41H1027ZM423.07,242.34h96.6v4.56c0,6.93-4.37,12.5-13.22,12.5H443v31.7h47.51v17.06H443v48.77H423.07ZM519.67,269v87.95h-2.5c-7.46,0-13.36-6.48-13.36-10.76V269Zm144.84,0,12.74,32.16,21.27,56.1H687.3c-4,0-7.6-3.4-8.24-5.27l-7.12-18.76H638.55l-9.11,24h-16l21.28-56.1L647.43,269Zm-9.09,20.36-11.59,30h22.72ZM987.2,269l12.73,32.16,21.28,56.1H1010c-4,0-7.59-3.4-8.24-5.27l-7.11-18.76H961.24l-9.12,24h-16l21.28-56.1L970.11,269Zm-9.1,20.36-11.59,30h22.72ZM795.05,335.41l-9.8,11.6s11.3,12.91,33.64,12.91S854,346.83,854,332.53c-.1-33-47.55-21.56-47.33-41,.13-12,16-11.17,16-11.17s11.83-1.68,24.51,9.61c13.08-18.71-17.2-23.91-25.29-23.43-22.35,0-33,10.69-33,25s7.87,21.91,28.35,27.39c0,0,19.22,3.13,19.22,15.14s-17.66,11.42-17.66,11.42S807.72,346.71,795.05,335.41ZM1113.46,269H1130v40.42L1167,269h20.42l-30,32.79L1191,356.93c-5.68,3.68-18.21,1.48-19.94-1.39l-25.14-41.19L1130,331.71v25.22h-16.57ZM875.68,281.55h30.09A11.25,11.25,0,0,1,917,292.81v1a12.29,12.29,0,0,1-12.21,12.29h-23.9c0,7.9,3.8,13.11,9.81,13.11H906c6.54,0,15.17,4.72,15.17,11.26v1a12.29,12.29,0,0,1-12.21,12.3H875.68v-62.3ZM928.25,17.29H827.09V201.11h107c61.93,0,79.2-75.83,29.44-92.09-4-1.3-8.91-1.39-2.6-4,4.89-2,8.54-5.51,12.4-10.08C1000.13,63.14,972.46,17.29,928.25,17.29Z" transform="translate(0 -2)"/></svg>