<svg xmlns="http://www.w3.org/2000/svg" xmlns:xlink="http://www.w3.org/1999/xlink" viewBox="0 0 110.18 45.35"><defs><style>.cls-1{fill:url(#linear-gradient);}.cls-2{fill:url(#linear-gradient-2);}.cls-3{fill:url(#linear-gradient-3);}.cls-4{fill:url(#linear-gradient-4);}.cls-5{fill:url(#linear-gradient-5);}.cls-6{fill:url(#linear-gradient-6);}.cls-7{fill:#fff;}.cls-8{fill:#1d1d1b;}</style><linearGradient id="linear-gradient" x1="22.68" y1="-1.12" x2="22.68" y2="46.76" gradientUnits="userSpaceOnUse"><stop offset="0" stop-color="#00774a"/><stop offset="0.6" stop-color="#8ccaae"/><stop offset="1" stop-color="#00975f"/></linearGradient><linearGradient id="linear-gradient-2" x1="33.94" y1="0.07" x2="33.94" y2="53.87" gradientUnits="userSpaceOnUse"><stop offset="0" stop-color="#00975f"/><stop offset="0.3" stop-color="#8ccaae"/><stop offset="0.55" stop-color="#00975f"/><stop offset="0.84" stop-color="#00774a"/><stop offset="0.89" stop-color="#008052"/><stop offset="0.98" stop-color="#009869"/><stop offset="1" stop-color="#00a070"/></linearGradient><linearGradient id="linear-gradient-3" x1="42.56" y1="50.9" x2="42.56" y2="16.09" gradientUnits="userSpaceOnUse"><stop offset="0" stop-color="#00a97c"/><stop offset="1" stop-color="#00975f"/></linearGradient><linearGradient id="linear-gradient-4" x1="20.96" y1="50.9" x2="20.96" y2="16.08" xlink:href="#linear-gradient-3"/><linearGradient id="linear-gradient-5" x1="27.69" y1="50.9" x2="27.69" y2="16.09" xlink:href="#linear-gradient-3"/><linearGradient id="linear-gradient-6" x1="33.51" y1="50.9" x2="33.51" y2="16.08" xlink:href="#linear-gradient-3"/></defs><g id="Embleme"><rect class="cls-1" width="45.35" height="45.35"/><path class="cls-2" d="M55.29,34.28c0,9.46.44,19.16.44,19.16a1.65,1.65,0,0,1-1.59,1.78H14.88c-.88,0-1.48-.78-1.59-1.78a171,171,0,0,1-1.13-20.92c0-12.65,1.13-18.6,1.13-18.6.14-1,.71-1.78,1.59-1.78H54.14a1.69,1.69,0,0,1,1.59,1.78S55.29,24.81,55.29,34.28Z" transform="translate(-11.34 -11.34)"/><path class="cls-3" d="M46.56,23.59c-2.81,1.64-3.66,1.77-6.71,3.6l.15-.34a30.74,30.74,0,0,0,3.34-4A68.53,68.53,0,0,0,33.54,24h0l.15-.32a42,42,0,0,1,10.06-2.89c-.61-.86-5.58-3.55-6.82-4.07h0l.14-.32A32.63,32.63,0,0,1,48,19.9a17.46,17.46,0,0,1,3.57-.47s-.26,1-2.12,2.31h0c.46,1.23-.64,8.07-1.56,9.89h0C47.87,28.76,47.62,25.15,46.56,23.59Z" transform="translate(-11.34 -11.34)"/><path class="cls-4" d="M26.06,48.1l.15-.31A12.14,12.14,0,0,1,22,45.62h0a12.62,12.62,0,0,1,1.52-2.93h0l.15-.32c-1.28.19-2.44.66-3.54.88h0a20.87,20.87,0,0,1-1.65-5.63l-.15.32h0a19,19,0,0,0,0,5.73h0a19.4,19.4,0,0,0-2.47.61l-.15.31h0A31.34,31.34,0,0,0,19.2,46.5h0a11.83,11.83,0,0,0,2.65,3.76h0l.15-.32a6.59,6.59,0,0,1-.39-2.55h0A16.64,16.64,0,0,0,26.06,48.1Z" transform="translate(-11.34 -11.34)"/><path class="cls-5" d="M30.2,25.33a16.1,16.1,0,0,0-1.08,2.47H29a24.92,24.92,0,0,1,7.62,2.37l-.15.31h0A24.73,24.73,0,0,0,29.6,30h0a5,5,0,0,0-1.63.3h0a26.31,26.31,0,0,0-1.41,5.5l-.15.32h0c-.66-1.6-1.62-4.78-1.62-4.78h0c-1.83,1-6,4.93-6,4.93h0a24.17,24.17,0,0,1,4.67-6.74h0c-.81-.81-2.93-1.23-4.47-1.29h0l.14-.32a24.23,24.23,0,0,1,4.31-.46h0a22.38,22.38,0,0,1,2.54,0h0A12.62,12.62,0,0,1,30.2,25.33Z" transform="translate(-11.34 -11.34)"/><path class="cls-6" d="M34.65,45.23c-.74,1-1.36,1.77-2.17,2.68h0a16.42,16.42,0,0,1-3.73.22l-.14.32h0a9.48,9.48,0,0,0,2.51.87h0a18.93,18.93,0,0,1-2.31,1.57l-.14.31h0a17.87,17.87,0,0,0,4.67-1.75h0a8.25,8.25,0,0,0,1.89-.12h0s.15-.32.15-.31c-.09-.32-.37-.52-.46-1h0a32.7,32.7,0,0,0,3.34-3h0l.15-.32a29.16,29.16,0,0,1-3.64,2.36h0C34.72,46.45,34.68,45.92,34.65,45.23Z" transform="translate(-11.34 -11.34)"/><path class="cls-7" d="M46.7,23.27c-2.8,1.64-3.65,1.78-6.7,3.6a31.36,31.36,0,0,0,3.49-4.35,68.33,68.33,0,0,0-9.8,1.13h0A38.87,38.87,0,0,1,43.9,20.44c-.61-.85-5.59-3.55-6.83-4.07h0a29.37,29.37,0,0,1,11.1,3.21,17.76,17.76,0,0,1,3.58-.45h0a4.76,4.76,0,0,1-2.13,2.29h0c.46,1.24-.65,8.08-1.56,9.89h0C48,28.45,47.77,24.84,46.7,23.27Z" transform="translate(-11.34 -11.34)"/><path class="cls-7" d="M26.21,47.79a11,11,0,0,1-4-2.49h0a12.63,12.63,0,0,1,1.52-2.93h0c-1.3.2-2.27.34-3.39.56h0a17.28,17.28,0,0,1-1.8-5.31h0a19.32,19.32,0,0,0,0,5.73h0a16.56,16.56,0,0,0-2.61.93h0a33.91,33.91,0,0,0,3.48,1.91h0A12,12,0,0,0,22,49.94h0a6.91,6.91,0,0,1-.24-2.86h0A16.64,16.64,0,0,0,26.21,47.79Z" transform="translate(-11.34 -11.34)"/><path class="cls-7" d="M30.4,25.06h0a8.84,8.84,0,0,0-1.24,2.42h0a20.64,20.64,0,0,1,7.47,2.69h0a24.39,24.39,0,0,0-6.89-.44h0a5.27,5.27,0,0,0-1.62.29h0a28.34,28.34,0,0,0-1.56,5.82h0c-.66-1.59-1.62-4.78-1.62-4.78h0c-1.83,1-6,4.94-6,4.94h0a24,24,0,0,1,4.66-6.74h0c-.81-.82-2.93-1.23-4.48-1.3h0a17.76,17.76,0,0,1,4.45-.78h0a22.64,22.64,0,0,1,2.55,0h0A12.63,12.63,0,0,1,30.4,25.06Z" transform="translate(-11.34 -11.34)"/><path class="cls-7" d="M34.79,44.92c-.73,1-1.36,1.77-2.17,2.68h0a13.37,13.37,0,0,1-3.87.53h0a9.67,9.67,0,0,0,2.52.87h0a17.25,17.25,0,0,1-2.46,1.89h0a17.78,17.78,0,0,0,4.67-1.76h0a8.4,8.4,0,0,0,1.9-.11h0a10,10,0,0,1-.31-1.28h0a33.86,33.86,0,0,0,3.34-3h0a22.27,22.27,0,0,1-3.5,2h0C34.86,46.13,34.82,45.61,34.79,44.92Z" transform="translate(-11.34 -11.34)"/></g><g id="N2_N1" data-name="N2 + N1"><path class="cls-8" d="M84.19,25.82V28.4A48.45,48.45,0,0,0,78.4,28c-.08,2.15-.1,5-.1,6.2,0,1.54,0,6.83.28,9.28h-5c.25-2.45.3-7.74.3-9.28,0-1.24-.07-4.05-.13-6.2A48.33,48.33,0,0,0,68,28.4V25.82Z" transform="translate(-11.34 -11.34)"/><path class="cls-8" d="M101.21,25.82V28.4a64.77,64.77,0,0,0-7.38-.23c-.66,0-1.19,0-2.13,0,0,1.67-.07,3.67-.07,5.06l6.47-.16v2.69l-6.5-.16c0,1.55.05,3.77.13,5.59,3.34-.05,6.65-.07,10-.28v2.56H87c.23-2.45.26-7.71.26-9.26,0-1.72-.1-6.39-.23-8.44Z" transform="translate(-11.34 -11.34)"/><path class="cls-8" d="M114.11,25.82c3.16,0,6.5,1.16,6.5,4.09,0,1.77-1.49,3.34-3.74,3.92,3.06.94,4.65,2.58,4.65,4.83,0,3.59-4.25,4.86-8.29,4.86H105c.23-2.33.28-5.67.28-9.28,0-2.43,0-6.1-.26-8.42Zm-2.73,2a12.38,12.38,0,0,0-1.57.1c-.1,2.35-.15,3.62-.15,6.35,0,3.21,0,4.55.13,7.15.58,0,1.52,0,2,0q5.11,0,5.11-3c0-2.33-2.81-3.16-4.94-3.16h-1l1-2.5h.61c1.44,0,3.49-.66,3.49-2.43S114.85,27.79,111.38,27.79Z" transform="translate(-11.34 -11.34)"/></g></svg>