<svg xmlns="http://www.w3.org/2000/svg" width="432.28" height="52.5" viewBox="0 0 432.28 52.5">
  <defs>
    <style>
      .cls-1 {
        fill: #1d1d1b;
      }

      .cls-1, .cls-2 {
        fill-rule: evenodd;
      }

      .cls-2 {
        fill: #ffe454;
      }
    </style>
  </defs>
  <g id="Vakıfbank" transform="translate(99.18 -50.23)">
    <path id="Path_3159" data-name="Path 3159" class="cls-1" d="M0,51.92l9.77,50.69,6.49.1H19L46.92,51.92H36.33L16.25,91.95,12.07,51.92H0Z"/>
    <path id="Path_3160" data-name="Path 3160" class="cls-1" d="M200.66,351c1.59-8.3,3.09-16.29,4.67-24.59,1.06-7.1-2.44-10.82-9.07-12.24a28.9,28.9,0,0,0-18.43,1.59l-2.74,5.76a32.16,32.16,0,0,1,15-2.31q7.92.85,5.33,8.21c-13.27.17-23.17,3-27.07,10.51-1.61,5.23.43,8.22,2.44,10.08,4.19,2.67,9.21,3.65,14.92,3.57a122.86,122.86,0,0,0,15-.58Zm-6.12-19.69-2.83,15.94c-4.58-.06-14.12.95-14.58-5.66.36-4.31,2.85-7.21,7.44-8.7a35.34,35.34,0,0,1,10-1.58Z" transform="translate(-133 -249)"/>
    <path id="Path_3161" data-name="Path 3161" class="cls-1" d="M85.43,51.92l-9.71,50.79H85.81l3.58-18.77,11.64,18.77h11.38L99.05,82.74l18.43-16.71-10.23-.14L89.73,82.19l5.78-30.27Z"/>
    <path id="Path_3162" data-name="Path 3162" class="cls-1" d="M123.48,66.03l-7,36.68h9.09l7-36.68Z"/>
    <path id="Path_3163" data-name="Path 3163" class="cls-1" d="M278.45,311.15l-.77,4.05h-6.3l-1.09,5.28h6.38l-6,31.22h10.08c2-10.4,3.85-20.8,5.78-31.2h7.33l1.09-5.28h-7.44l.34-1.8.39-2.08c.41-5.58,4.79-7.72,11.55-6.74l.23-.21c.67-2,1.9-3.08,4.46-3.95-10.48-2-19.68-.38-24.76,7.14a8.09,8.09,0,0,0-1.31,3.56Z" transform="translate(-133 -249)"/>
    <path id="Path_3164" data-name="Path 3164" class="cls-1" d="M303.9,306.61l-8.56,44.77h0v.06l-.07.27h4.63l17.55-.14c11.48-.09,21.49-4.27,21.85-16.2-.27-6.48-4.5-9.75-10.42-11.31v-.16h0c6.57-.29,13.2-5.66,12.91-12.09-.25-5.9-4.21-10-12.56-12-6.31-1.22-22.78-1.17-25.36,6.8ZM310.27,327l.09-.47c9.57-.45,17.74-.34,18.11,8.41-.68,7.53-5.64,10.65-13.27,11l-8.41-.15Zm1-5.23,3.13-16.14,1.22-.33a22.78,22.78,0,0,1,8.8-.66h.2c3.57.51,6.58,2.25,7,6.25a12.4,12.4,0,0,1-.88,4.78,8.09,8.09,0,0,1-2.48,3.32c-2.23,1.83-5.46,2.66-9.39,2.86l-7.64-.12Z" transform="translate(-133 -249)"/>
    <path id="Path_3165" data-name="Path 3165" class="cls-1" d="M375.12,351c1.58-8.3,3.09-16.29,4.67-24.59,1.06-7.1-2.45-10.82-9.07-12.24a28.9,28.9,0,0,0-18.43,1.59q-1.38,2.88-2.74,5.76a32.16,32.16,0,0,1,15-2.31q7.92.85,5.32,8.21c-13.26.17-23.16,3-27.07,10.51-1.61,5.23.44,8.22,2.45,10.08,4.18,2.67,9.21,3.65,14.91,3.57a123.081,123.081,0,0,0,15-.58ZM369,331.31l-2.83,15.94c-4.58-.06-14.12.95-14.58-5.66q.56-6.46,7.45-8.7a35.33,35.33,0,0,1,10-1.58Z" transform="translate(-133 -249)"/>
    <path id="Path_3166" data-name="Path 3166" class="cls-1" d="M417.58,351.65c1.58-8.27,2.91-16.57,4.66-24.8a18.278,18.278,0,0,0,.46-3.32c.39-14.08-27.52-9.57-34.12-6.91l-6.44,35,9.32.07h.73L397.65,321c3.35-1.38,15.44-3.44,15.16,3.73l-5.08,27h3.86l6-.06Z" transform="translate(-133 -249)"/>
    <path id="Path_3167" data-name="Path 3167" class="cls-1" d="M301.05,51.92l-9.71,50.79h10.08l3.59-18.77,11.64,18.77h11.38L314.66,82.74,333.1,66.03l-10.23-.14-17.52,16.3,5.78-30.27Z"/>
    <path id="Path_3168" data-name="Path 3168" class="cls-2" d="M393.05,299.93l17.45-.11c9.16-.05,16.86-5.55,17.16-15.49-.27-6.48-5-9.92-10.91-11.48v-.16h0c6.58-.28,13.2-5.65,12.92-12.09-.3-7.21-8.2-11.6-14.67-11.6H374.38a17.07,17.07,0,0,0-13.75,8.55,6.468,6.468,0,0,0-.81,2.17l-9,40.21Zm-29.2-37.38q-3.89,16.67-7.76,33.33c5.85.45,12.25.41,17.06-3.45a37.176,37.176,0,0,0,5.24-5.17l18.15-21.91c4-4.78,7.85-9.58,14.23-12.74a33.22,33.22,0,0,0-15.75,4,13.841,13.841,0,0,0-3.9,3.33l-23.7,26.45c1.39-6.45,3-14.25,4.76-21.18.12-.49.28-1,.37-1.43,1.57-8.1,7.7-10.6,9.17-10.63-8.7-1.76-15.42,2.42-17.87,9.36Z" transform="translate(-450 -198)"/>
  </g>
</svg>
