<svg id="Layer_1" data-name="Layer 1" xmlns="http://www.w3.org/2000/svg" viewBox="0 0 190 33.21"><defs><style>.cls-1{fill:#0b4371;}.cls-2{fill:#c5c1c3;}</style></defs><rect class="cls-1" x="184.58" y="0.75" width="5.42" height="4.39"/><path class="cls-1" d="M94.56,111.61l-.24-1c-.94,1-2,1.55-4.1,1.55s-3.87-2-3.82-4.52l0-3.54c.09-5.75,7.92-4,7.92-8.3,0-.9-.05-1.65-1.09-1.65S92,94.86,92,95.76V97.5H86.45V95.76c0-3.72,3.2-5.47,6.83-5.47,4.63,0,6.75,2.59,6.75,5.42v15.9Zm-.29-10.47c-1.32.84-2.26,1.27-2.26,3v2.55c0,1.23.33,1.7,1.13,1.7s1.13-.47,1.13-1.7Z" transform="translate(-5 -83.39)"/><path class="cls-1" d="M116.32,106c0,3.3-.56,6.07-4.24,6.07a4.27,4.27,0,0,1-4-1.89v6.42h-5.42V90.76h5.42l0,2.12a4.26,4.26,0,0,1,4.34-2.54c3,0,4,2.82,4,5.51V106Zm-5.79-9.73c0-1-.52-1.46-1.23-1.46s-1.27.56-1.27,1.55v9.86c0,.94.52,1.46,1.22,1.46s1.28-.52,1.28-1.51Z" transform="translate(-5 -83.39)"/><rect class="cls-1" x="113.92" y="7.42" width="5.42" height="20.8"/><polygon class="cls-1" points="132.64 28.18 129.09 18.56 128.26 20.07 128.26 28.18 122.13 28.18 122.13 0.73 128.26 0.73 128.26 9.26 132.16 0.73 138.25 0.73 132.64 12.28 138.72 28.18 132.64 28.18"/><path class="cls-1" d="M155.63,96.46c-1.36-.51-5-.56-5,2.79v12.36h-5.42V90.81h5l0,2.21a5.75,5.75,0,0,1,5.38-2.73v6.17Z" transform="translate(-5 -83.39)"/><path class="cls-1" d="M170.89,106.37c0,4.14-2.87,5.75-6.79,5.75-3.58,0-6.79-1.74-6.79-5.84V96.56c0-4,2.41-6.18,6.79-6.18,3.58,0,6.79,1.47,6.79,6.23v5.48h-8v5c0,.85.38,1.32,1.18,1.32s1.18-.47,1.18-1.32V104h5.61v2.35Zm-5.7-10.94c0-.85-.38-1.32-1.13-1.32s-1.19.47-1.19,1.32v2.83h2.36Z" transform="translate(-5 -83.39)"/><path class="cls-1" d="M181.57,111.61v-2.13c-.51,1.84-2.21,2.55-4.24,2.55-3.35,0-4-2.83-4-5.47V96.46c0-3.3.8-6.17,4.15-6.17a4.84,4.84,0,0,1,4.1,1.88v-8H187v27.45Zm0-15.47c0-1-.51-1.47-1.27-1.42s-1.27.52-1.27,1.46l0,9.91c0,.94.52,1.46,1.23,1.46s1.27-.56,1.27-1.51Z" transform="translate(-5 -83.39)"/><rect class="cls-1" x="184.58" y="7.44" width="5.42" height="20.8"/><polygon class="cls-1" points="77.51 16.32 77.51 28.21 71.38 28.21 71.38 16.32 66 0.77 72.51 0.77 74.44 8.41 76.42 0.77 82.93 0.77 77.51 16.32"/><path class="cls-2" d="M61.83,106.1a6.85,6.85,0,0,1-7.28,1.39,4.92,4.92,0,0,1-2.7-3.13c1.93,1.93,5.43,2.91,8.64-.47,0,0,3-2.78,1.3-8-.85-2.59-4-4.75-6.67-5a10.1,10.1,0,0,0-10.23,4.31c-3,4.69-3.42,9.92-5.61,15.13a1.94,1.94,0,0,1-1.94,1.19h0a1.93,1.93,0,0,1-1.94-1.19c-2.2-5.21-2.58-10.44-5.61-15.13a10.11,10.11,0,0,0-10.24-4.31c-2.63.27-5.81,2.43-6.66,5-1.71,5.24,1.3,8,1.3,8,3.21,3.38,6.71,2.4,8.65.47a5,5,0,0,1-2.71,3.13,6.87,6.87,0,0,1-7.29-1.39,10.11,10.11,0,0,1-2.37-10.82c1.51-4.49,6-6.74,9.66-7C24.4,87.88,30.3,90.5,32.65,95c.55,1,1.7,3.7,1.7,3.7h6S41.48,96,42,95c2.36-4.47,8.25-7.09,12.52-6.71,3.61.28,8.15,2.53,9.66,7a10.1,10.1,0,0,1-2.38,10.82m7.09-12C65.41,84,55.36,83.42,54.33,83.4a18.46,18.46,0,0,0-13.24,5.17,23.17,23.17,0,0,0-3.75,4.65h0a23.17,23.17,0,0,0-3.75-4.65A18.46,18.46,0,0,0,20.35,83.4c-1,0-11.08.58-14.59,10.67a15.33,15.33,0,0,0,.9,11.72c1.85,4,6.27,7.2,10.94,6.86A9.55,9.55,0,0,0,26.05,107a8.27,8.27,0,0,0-1.85-9.09,3.33,3.33,0,0,1-.57,2.5,3.68,3.68,0,0,1-4.49,1.2,3,3,0,0,1-2-3.28,3.46,3.46,0,0,1,2.16-2.68c2-.89,3.92-.44,5.76,1.32,3,3.36,3.37,8.47,4.8,12.34,1,3.19,2.61,6,6.13,6.76a6.41,6.41,0,0,0,1.31.14h0a6.41,6.41,0,0,0,1.31-.14c3.51-.8,5.12-3.57,6.13-6.76,1.43-3.87,1.79-9,4.8-12.34,1.84-1.76,3.72-2.21,5.76-1.32a3.48,3.48,0,0,1,2.16,2.68,3,3,0,0,1-2,3.28,3.68,3.68,0,0,1-4.49-1.2,3.38,3.38,0,0,1-.57-2.5A8.27,8.27,0,0,0,48.63,107a9.55,9.55,0,0,0,8.45,5.69c4.66.34,9.09-2.89,10.93-6.86a15.29,15.29,0,0,0,.91-11.72M37.35,83.4h0" transform="translate(-5 -83.39)"/></svg>