<svg id="Layer_1" data-name="Layer 1" xmlns="http://www.w3.org/2000/svg" viewBox="0 0 1653.36 352.56"><defs><style>.cls-1{fill:#ec1c24;fill-rule:evenodd;}.cls-2{fill:#231f20;}</style></defs><path class="cls-1" d="M329.37,958.55,303.8,978.77l-17,13.36v61.32l8.8-6.81v28.45l-8.8,6.82v61.31l8.8-7v28.45l-8.8,7V1233l17-13.36,25.57-20.21,33.92-26.61V1070c0-4.27-3.26-8.84-6.52-11,5.39-4.41,6.52-9.11,6.52-14.24V931.94Zm21.86,156.22c0,5.41-2.13,7.84-6.82,11.54l-15,11.8-21.73,17.23v-28.45l21.73-17.22,13.05-10.11c4.4-3.56,8.81-2.7,8.81,2.12Zm0-89.76c0,5.4-2.13,7.83-6.82,11.51l-15,11.82-21.73,17.21V1037.1l21.73-17.22,13.05-10.09c4.4-3.57,8.81-2.7,8.81,2.12Z" transform="translate(-197.32 -880.45)"/><polygon class="cls-1" points="123.38 66.86 123.38 44.95 106.47 58.47 101.52 62.46 101.52 39.56 106.47 35.56 123.38 21.91 123.38 0 106.47 13.65 89.44 27.31 89.44 94.18 106.47 80.53 123.38 66.86"/><polygon class="cls-1" points="42.6 0 42.6 21.91 53.52 30.73 53.52 54.78 49.26 51.36 49.26 73.28 59.48 81.65 69.85 90.05 69.85 68.15 65.44 64.61 65.44 40.41 76.38 49.23 76.38 27.31 59.48 13.65 42.6 0"/><polygon class="cls-1" points="0 51.5 0 112.81 59.49 159.77 66.59 165.33 59.49 172.44 50.69 181.13 0 141.28 0 202.61 16.18 215.28 0 231.05 0 292.38 59.49 339.2 76.38 352.56 76.38 291.25 59.49 277.87 9.94 238.76 25.98 222.96 59.49 249.42 76.38 262.79 76.38 201.46 60.48 188.79 76.38 173 76.38 111.68 59.49 98.32 0 51.5"/><polygon class="cls-2" points="262.9 81.42 254.18 112.93 331.5 112.93 246.92 251.68 246.92 281.72 365.27 281.72 377.25 251.68 292.66 251.68 377.6 112.58 377.6 81.42 262.9 81.42"/><path class="cls-2" d="M605.36,1004.93a19.56,19.56,0,1,0-19.53-19.56,19.53,19.53,0,0,0,19.53,19.56" transform="translate(-197.32 -880.45)"/><rect class="cls-2" x="392.76" y="135.66" width="31.31" height="145.97"/><rect class="cls-2" x="1629.95" y="135.66" width="23.41" height="145.97"/><path class="cls-2" d="M649.28,1161.81V1016.65h26V1033s8.82-9.82,21.46-13.08a51.31,51.31,0,0,1,23.52-.44v27.94H699.81c-8.27,0-23.52,11.34-23.52,22.25v92.12Z" transform="translate(-197.32 -880.45)"/><path class="cls-2" d="M793.47,1124.71c0,5.68-8,14.91-25.41,14.91s-23.38-12.38-23.38-20.39,6.31-26.36,25-26.36c16.7,0,23.79-.18,23.79-.18ZM827,1162.14V1062c0-39.17-25.38-49.87-44.44-49.87s-39.2,5.13-39.2,5.13l-7.09,29.35s24-7,38.46-7,19.6,11.36,19.6,17v14.08s-25.39-1-44,4.69-37,17.89-37,50.64,28.8,38.85,46.89,38.85a51.46,51.46,0,0,0,30-9.61h5.43v6.88Z" transform="translate(-197.32 -880.45)"/><path class="cls-2" d="M916.4,1124.71c0,5.68-8,14.91-25.41,14.91s-23.38-12.38-23.38-20.39,6.32-26.36,25-26.36c16.69,0,23.77-.18,23.77-.18Zm33.54,37.43V1062c0-39.17-25.37-49.87-44.44-49.87s-39.21,5.13-39.21,5.13l-7.06,29.35s23.95-7,38.44-7,19.6,11.36,19.6,17v14.08s-25.37-1-44,4.69-37,17.89-37,50.64,28.82,38.85,46.89,38.85a51.39,51.39,0,0,0,30-9.61h5.43v6.88Z" transform="translate(-197.32 -880.45)"/><path class="cls-2" d="M975.34,977.93h30.27v39.28h34.86l-7.85,22.37h-26.57v83.82c0,10.9,2,17.12,12.32,17.12h17.95v21.29h-32.11c-8.72,0-30-6-30-28.39V1039H959.54v-22.38h15.8Z" transform="translate(-197.32 -880.45)"/><path class="cls-2" d="M1187.43,1015.84c0,24.27-21.23,30.83-31.3,30.83h-40V985.55h37.83c10.63,0,33.49,6,33.49,30.29m-72.14,53.85h50c18.08,0,31.37,16.38,31.37,37.75s-18.74,31.72-36.59,31.72h-44.76Zm96.93-61.23c0-28.37-29.52-45.27-59.91-45.27h-62.62v199.16h84.52c13.5,0,46.72-18,46.72-57.3S1185,1055.4,1185,1055.4s27.23-18.56,27.23-46.94" transform="translate(-197.32 -880.45)"/><path class="cls-2" d="M1311.86,1109.42c0,17.69-8,38-34.48,38s-27.24-16.94-27.24-29.68,8.36-32,37.76-32h24Zm24,54.9V1055.38c0-26.72-22.32-42.71-44.28-42.71s-45.74,10.91-45.74,10.91l-2.53,22a131.47,131.47,0,0,1,35.93-12.19c21.57-4.07,33,8.37,33,18v19.32h-33.59c-29.38,0-50.62,20.72-50.62,50.74,0,35.62,32.63,42.89,51,42.89s35.08-11.25,35.08-11.25v11.25Z" transform="translate(-197.32 -880.45)"/><path class="cls-2" d="M1673.65,1109.42c0,17.69-8,38-34.5,38s-27.23-16.94-27.23-29.68,8.36-32,37.76-32h24Zm23.95,54.9V1055.38c0-26.72-22.34-42.71-44.29-42.71s-45.75,10.91-45.75,10.91l-2.53,22a131.46,131.46,0,0,1,35.94-12.19c21.56-4.07,33,8.37,33,18v19.32h-33.59c-29.41,0-50.63,20.72-50.63,50.74,0,35.62,32.62,42.89,51,42.89s35.07-11.25,35.07-11.25v11.25Z" transform="translate(-197.32 -880.45)"/><path class="cls-2" d="M1351.06,1162.68h24.85v-100c0-9.15,16.94-23.56,36.16-23.56s19.59,12.66,19.59,19.64v103.9h26.14V1049.62c0-12.63-14.52-36.62-41.39-37.56-25.74-.86-41.83,18.78-41.83,18.78v-19.2l-23.52,5Z" transform="translate(-197.32 -880.45)"/><polygon class="cls-2" points="1276.64 82.3 1304.48 82.3 1304.48 189.68 1310.14 189.68 1358.06 128.58 1393.34 128.58 1331.05 197.33 1399.87 280.48 1361.76 280.48 1310.14 204.52 1304.04 204.52 1304.04 281.8 1276.6 281.8 1276.64 82.3"/><path class="cls-2" d="M1799.76,1042.09l5.25-17.52s-19-10.47-41.55-10.47-46.11,14.21-46.11,38.94,15.27,39.65,41.41,45.83,31.21,14.2,31.21,21.82-7.65,21.47-29.78,21.47-39.2-11.48-39.2-11.48l-7.26,19.48a104.36,104.36,0,0,0,49.36,12.74c28.34,0,50.47-24,50.47-45.47s-23.23-36.37-42.84-40.39-28.3-12.36-28.3-24.37,14.14-17.82,27.22-17.82,30.12,7.24,30.12,7.24" transform="translate(-197.32 -880.45)"/></svg>