<svg xmlns="http://www.w3.org/2000/svg" xmlns:xlink="http://www.w3.org/1999/xlink" width="601" height="366.76" viewBox="0 0 601 366.76">
  <defs>
    <style>
      .cls-1, .cls-2, .cls-3, .cls-32 {
        opacity: 0.5;
        isolation: isolate;
      }

      .cls-1 {
        fill: url(#linear-gradient);
      }

      .cls-17, .cls-2 {
        fill: #cdd9ff;
      }

      .cls-3, .cls-6 {
        fill: #c8d9f1;
      }

      .cls-4 {
        fill: #a0bfeb;
      }

      .cls-5 {
        fill: #fff;
      }

      .cls-7 {
        fill: #ff6382;
      }

      .cls-8 {
        fill: #fec40c;
      }

      .cls-9 {
        fill: #10c392;
      }

      .cls-10 {
        fill: #f3f7ff;
      }

      .cls-11 {
        fill: url(#linear-gradient-2);
      }

      .cls-12 {
        fill: #467fcf;
      }

      .cls-13 {
        fill: #2d132c;
      }

      .cls-14 {
        fill: #495057;
      }

      .cls-15 {
        fill: #343a40;
      }

      .cls-16 {
        fill: #f9bf9d;
      }

      .cls-18 {
        fill: #f19381;
      }

      .cls-19 {
        fill: url(#linear-gradient-3);
      }

      .cls-20 {
        fill: #3866a6;
      }

      .cls-21 {
        fill: #801336;
      }

      .cls-22 {
        fill: #2c3449;
      }

      .cls-23 {
        fill: #414e6e;
      }

      .cls-24 {
        fill: #b7c0e2;
      }

      .cls-25 {
        fill: none;
        stroke: #fff;
        stroke-linecap: round;
        stroke-miterlimit: 10;
      }

      .cls-26 {
        fill: #353f5a;
      }

      .cls-27 {
        fill: #e07a00;
      }

      .cls-28 {
        fill: #f79c1d;
      }

      .cls-29 {
        fill: url(#linear-gradient-4);
      }

      .cls-30 {
        fill: url(#linear-gradient-5);
      }

      .cls-31 {
        fill: url(#linear-gradient-6);
      }

      .cls-32 {
        fill: url(#linear-gradient-7);
      }

      .cls-33 {
        fill: #8f9bc1;
      }
    </style>
    <linearGradient id="linear-gradient" x1="-0.637" y1="8.362" x2="-0.637" y2="8.333" gradientUnits="objectBoundingBox">
      <stop offset="0" stop-color="#cdd9ff"/>
      <stop offset="1" stop-color="#cdd9ff" stop-opacity="0"/>
    </linearGradient>
    <linearGradient id="linear-gradient-2" x1="-11.162" y1="6.633" x2="-11.162" y2="6.645" gradientUnits="objectBoundingBox">
      <stop offset="0" stop-color="#2d132c"/>
      <stop offset="1" stop-color="#801336"/>
    </linearGradient>
    <linearGradient id="linear-gradient-3" x1="-41.987" y1="23.457" x2="-42.022" y2="23.495" xlink:href="#linear-gradient-2"/>
    <linearGradient id="linear-gradient-4" x1="-17.305" y1="17.848" x2="-17.291" y2="17.895" xlink:href="#linear-gradient-2"/>
    <linearGradient id="linear-gradient-5" x1="-22.986" y1="13.149" x2="-22.948" y2="13.132" gradientUnits="objectBoundingBox">
      <stop offset="0" stop-color="#801336"/>
      <stop offset="1" stop-color="#801336" stop-opacity="0"/>
    </linearGradient>
    <linearGradient id="linear-gradient-6" x1="-37.398" y1="15.564" x2="-37.295" y2="15.536" xlink:href="#linear-gradient-5"/>
    <linearGradient id="linear-gradient-7" x1="-41.757" y1="20.604" x2="-41.86" y2="20.666" gradientUnits="objectBoundingBox">
      <stop offset="0" stop-color="#b7c0e2"/>
      <stop offset="1" stop-color="#b7c0e2" stop-opacity="0"/>
    </linearGradient>
  </defs>
  <g id="Object" transform="translate(-382 -114.24)">
    <path id="Path_1" data-name="Path 1" class="cls-1" d="M983,443.45l-.29.21C952.93,465,830.06,481,683,481s-269.93-16-299.7-37.34l-.3-.21c9.49-.81,140.17-1.45,300-1.45S973.52,442.64,983,443.45Z"/>
    <path id="Path_2" data-name="Path 2" class="cls-2" d="M983,444.14c0,.16-.29.29-.85.44-11.61,3-141.33,5.36-299.65,5.36s-288-2.36-299.65-5.36c-.56-.15-.85-.28-.85-.44s.19-.23.55-.35c9.49-3,140.15-5.43,300-5.43s290.47,2.4,300,5.43C982.81,443.91,983,444,983,444.14Z"/>
    <path id="Path_11" data-name="Path 11" class="cls-2" d="M808.73,367.41A75.841,75.841,0,0,0,811,385.857,177.67,177.67,0,0,0,855.37,297.49,75.72,75.72,0,0,0,808.73,367.41Z"/>
    <path id="Path_12" data-name="Path 12" class="cls-3" d="M732.2,119.23l-11.27-4.81L715.62,125a31.81,31.81,0,0,0-11.18-.12l-5.09-10.64L688,118.76l3.69,11.2a31.63,31.63,0,0,0-8,7.82l-11.12-3.93-4.8,11.27,10.53,5.31a31.81,31.81,0,0,0-.12,11.18l-10.65,5.09,4.57,11.37,11.2-3.69a31.75,31.75,0,0,0,7.82,8l-3.93,11.12,11.27,4.81,5.31-10.53a31.809,31.809,0,0,0,11.18.12L720,198.53,731.4,194l-3.7-11.2a31.631,31.631,0,0,0,8-7.82l11.12,3.93,4.81-11.27-10.53-5.31a31.81,31.81,0,0,0,.12-11.18L751.86,146l-4.57-11.36-11.2,3.69a31.631,31.631,0,0,0-7.82-8Zm-7.51,43.53a16.3,16.3,0,1,1-8.6-21.4h0a16.3,16.3,0,0,1,8.61,21.38Z"/>
    <path id="Path_13" data-name="Path 13" class="cls-3" d="M636.7,151h-8.9l-.55,8.55a23.34,23.34,0,0,0-7.51,3.11L613.31,157,607,163.29l5.66,6.44a23.249,23.249,0,0,0-3.11,7.51l-8.55.54v8.9l8.55.55a23.291,23.291,0,0,0,3.11,7.5L607,201.17l6.29,6.29,6.43-5.66a23.339,23.339,0,0,0,7.51,3.11l.55,8.55h8.9l.54-8.55a23.25,23.25,0,0,0,7.51-3.11l6.43,5.66,6.3-6.29-5.67-6.44a22.85,22.85,0,0,0,3.11-7.5l8.56-.55v-8.9l-8.56-.54a22.82,22.82,0,0,0-3.11-7.51l5.67-6.44-6.3-6.29-6.43,5.66a23.25,23.25,0,0,0-7.51-3.11Zm7.4,31.23a11.85,11.85,0,1,1-11.85-11.84h0a11.84,11.84,0,0,1,11.84,11.84Z"/>
    <g id="Monitor">
      <path id="Rectangle_1" data-name="Rectangle 1" class="cls-4" d="M531.54,238.24H833.7a10,10,0,0,1,10,10V443.09H521.54V248.24a10,10,0,0,1,10-10Z"/>
      <path id="Rectangle_2" data-name="Rectangle 2" class="cls-5" d="M837,260.28V436.42H528.21V260.28A15.26,15.26,0,0,1,543.47,245h278.3A15.26,15.26,0,0,1,837,260.28Z"/>
      <g id="_404" data-name=" 404">
        <path id="Path_14" data-name="Path 14" class="cls-6" d="M655.59,335.76h-8.07v10.39h-15V335.76h-28.7v-10l24.36-33.9h15.9L622,323.58h11v-9.23h14.5v9.23h8.07Z"/>
        <path id="Path_15" data-name="Path 15" class="cls-6" d="M658.69,319c0-17.92,10.09-28.24,24-28.24s23.89,10.32,23.89,28.24-10.08,28.23-23.89,28.23S658.69,336.92,658.69,319Zm32.42,0c0-11.4-3.56-15.67-8.45-15.67s-8.53,4.26-8.53,15.67,3.57,15.66,8.53,15.66S691.11,330.41,691.11,319Z"/>
        <path id="Path_16" data-name="Path 16" class="cls-6" d="M763,335.76h-8v10.39H740V335.76H711.3v-10l24.35-33.9h15.9l-22.1,31.73h11v-9.23H755v9.23h8Z"/>
      </g>
      <path id="Path_17" data-name="Path 17" class="cls-6" d="M830.1,245h-295a6.92,6.92,0,0,0-6.92,6.92v9.91H837v-9.91a6.92,6.92,0,0,0-6.9-6.92Z"/>
      <g id="Group_4" data-name="Group 4">
        <circle id="Ellipse_1" data-name="Ellipse 1" class="cls-7" cx="3.13" cy="3.13" r="3.13" transform="translate(541.77 250.3)"/>
        <circle id="Ellipse_2" data-name="Ellipse 2" class="cls-8" cx="3.13" cy="3.13" r="3.13" transform="translate(553.33 250.3)"/>
        <circle id="Ellipse_3" data-name="Ellipse 3" class="cls-9" cx="3.13" cy="3.13" r="3.13" transform="translate(564.89 250.3)"/>
      </g>
      <path id="Rectangle_3" data-name="Rectangle 3" class="cls-10" d="M601.86,250.06H763.38a3.37,3.37,0,0,1,3.38,3.37h0a3.38,3.38,0,0,1-3.38,3.38H601.86a3.38,3.38,0,0,1-3.38-3.38h0a3.37,3.37,0,0,1,3.38-3.37Z"/>
      <path id="Rectangle_4" data-name="Rectangle 4" class="cls-10" d="M786.57,250.06h34.64a3.37,3.37,0,0,1,3.37,3.37h0a3.37,3.37,0,0,1-3.37,3.38H786.57a3.38,3.38,0,0,1-3.38-3.38h0a3.37,3.37,0,0,1,3.38-3.37Z"/>
    </g>
    <path id="Path_18" data-name="Path 18" class="cls-6" d="M864.55,182.1a7.14,7.14,0,0,0-6.13-10.81,14.29,14.29,0,0,0-28.58,0h0a7.13,7.13,0,0,0-6.13,10.81c-9.66.47-16,1.27-16,2.18,0,1.45,16.31,2.63,36.42,2.63s36.42-1.18,36.42-2.63C880.55,183.37,874.2,182.57,864.55,182.1Z"/>
    <path id="Path_19" data-name="Path 19" class="cls-6" d="M939.79,252.24a4.23,4.23,0,0,0-1.45-5.81,4.28,4.28,0,0,0-2.18-.6,8.47,8.47,0,1,0-16.94,0,4.22,4.22,0,0,0-3.63,6.41c-5.73.28-9.49.75-9.49,1.29,0,.86,9.66,1.56,21.59,1.56s21.59-.7,21.59-1.56C949.28,253,945.52,252.52,939.79,252.24Z"/>
    <path id="Path_20" data-name="Path 20" class="cls-6" d="M448,277.22a3.09,3.09,0,0,0-2.65-4.68,6.19,6.19,0,0,0-12.37,0,3.09,3.09,0,0,0-2.65,4.68c-4.18.2-6.92.55-6.92.94,0,.63,7.05,1.14,15.76,1.14s15.76-.51,15.76-1.14C455,277.77,452.21,277.42,448,277.22Z"/>
    <path id="Path_21" data-name="Path 21" class="cls-6" d="M509.88,206.27a5,5,0,0,0-1.71-6.87,5.08,5.08,0,0,0-2.58-.71,10,10,0,0,0-20,0,5,5,0,0,0-5,5,4.89,4.89,0,0,0,.71,2.58c-6.77.33-11.22.89-11.22,1.53,0,1,11.43,1.84,25.54,1.84s25.54-.82,25.54-1.84C521.11,207.16,516.65,206.6,509.88,206.27Z"/>
    <g id="Woman">
      <path id="Hair" class="cls-11" d="M661.52,422.82s-7.73-5.73-5.85-17.42,13.46-7.61,14.19-20.34,4.59-20.14,13-20.66,9.8,4.9,9.8,4.9,4.18-3.34,7.83,1.87-.94,17.12,7.62,24,7.61,19.62-1.25,26.5S661.52,422.82,661.52,422.82Z"/>
      <g id="Body">
        <ellipse id="Ellipse_4" data-name="Ellipse 4" class="cls-2" cx="45" cy="4.84" rx="45" ry="4.84" transform="translate(637.62 457.6)"/>
        <g id="Body-2">
          <path id="Path_24" data-name="Path 24" class="cls-12" d="M706.06,399.67a30.89,30.89,0,0,0-8-3.19,56.36,56.36,0,0,0-6.17-1.3h-11.7a56.351,56.351,0,0,0-6.17,1.3,30.891,30.891,0,0,0-8,3.19c-5.21,3.23-6.78,29.73-6.67,33.7s10,8.87,11.27,9.39a55.751,55.751,0,0,0,15.4,2.3h.07a55.81,55.81,0,0,0,15.4-2.3c1.25-.52,11.17-5.43,11.26-9.39S711.28,402.9,706.06,399.67Z"/>
          <circle id="Ellipse_5" data-name="Ellipse 5" class="cls-5" cx="0.95" cy="0.95" r="0.95" transform="translate(685.34 407.37)"/>
          <circle id="Ellipse_6" data-name="Ellipse 6" class="cls-5" cx="0.95" cy="0.95" r="0.95" transform="translate(685.34 418.22)"/>
        </g>
        <g id="Legs">
          <path id="Path_23" data-name="Path 23" class="cls-13" d="M671.67,444.64s1.85,11.27,15.57,8.45,10.12-10.23,9.83-10.44S671.67,444.64,671.67,444.64Z"/>
          <path id="Path_27" data-name="Path 27" class="cls-14" d="M659.58,439.81,695.75,458l-2,5.22-39.36-9.49a8.78,8.78,0,0,1-6.81-8.38c0-3.14,1.6-6.18,7.61-6.47A8.74,8.74,0,0,1,659.58,439.81Z"/>
          <path id="Path_28" data-name="Path 28" class="cls-15" d="M693.76,463.21l3.31.83s1.42,2.19,6.74,2.75,8.69-1.34,8.69-4.55-2.59-2.34-6.5-1.88a16.83,16.83,0,0,1-6.37-.94,35.32,35.32,0,0,1-3.88-1.43Z"/>
          <path id="Path_29" data-name="Path 29" class="cls-16" d="M693.76,463.21l3.31.83s2.56-.33,2.56-4.62a35.32,35.32,0,0,1-3.88-1.43Z"/>
          <path id="Path_30" data-name="Path 30" class="cls-5" d="M698.68,463a13.621,13.621,0,0,0,4,1.07c4,.47,4.6-1,2.56-1.61-1.25-.35-3.9-1-5.74-1.45A4.539,4.539,0,0,1,698.68,463Z"/>
          <path id="Path_31" data-name="Path 31" class="cls-14" d="M709.16,439.81,673,458l2,5.22,39.36-9.49a8.76,8.76,0,0,0,6.81-8.38c0-3.14-1.6-6.18-7.61-6.47A8.76,8.76,0,0,0,709.16,439.81Z"/>
          <path id="Path_32" data-name="Path 32" class="cls-15" d="M675,463.21l-3.31.83s-1.42,2.19-6.74,2.75-8.68-1.34-8.68-4.55,2.58-2.34,6.49-1.88a16.83,16.83,0,0,0,6.37-.94A35.307,35.307,0,0,0,673,458Z"/>
          <path id="Path_33" data-name="Path 33" class="cls-16" d="M675,463.21l-3.31.83s-2.56-.33-2.56-4.62A35.32,35.32,0,0,0,673,458Z"/>
          <path id="Path_34" data-name="Path 34" class="cls-5" d="M670.06,463a13.54,13.54,0,0,1-4,1.07c-4,.47-4.6-1-2.56-1.61,1.26-.35,3.9-1,5.74-1.45a4.539,4.539,0,0,0,.82,1.99Z"/>
        </g>
        <g id="Laptop">
          <path id="Rectangle_5" data-name="Rectangle 5" class="cls-17" d="M672.65,425.07h26.77a5.4,5.4,0,0,1,5.4,5.4h0v18.08H667.25V430.47A5.4,5.4,0,0,1,672.65,425.07Z"/>
          <circle id="Ellipse_7" data-name="Ellipse 7" class="cls-10" cx="3.5" cy="3.5" r="3.5" transform="translate(682.53 433.31)"/>
        </g>
        <g id="Collar">
          <path id="Path_25" data-name="Path 25" class="cls-5" d="M686.07,395.18v6.5l-1.66,3.7a1.08,1.08,0,0,1-1.44.54,1,1,0,0,1-.34-.24l-8.6-9.2a54.111,54.111,0,0,1,6.17-1.3Z"/>
          <path id="Path_26" data-name="Path 26" class="cls-5" d="M686,395.18v6.5l1.66,3.7a1.08,1.08,0,0,0,1.44.54,1,1,0,0,0,.34-.24l8.6-9.2a54.109,54.109,0,0,0-6.17-1.3Z"/>
        </g>
      </g>
      <g id="Head">
        <g id="Head-2">
          <path id="Path_35" data-name="Path 35" class="cls-16" d="M695.06,385.21s-.46,4.8-3.26,7.91v2.31l-5.73,6.25-5.88-6.5v-2s-2.5-2-3.2-8.09c0,0-3.1.31-2.74-2.76s2.87-2.25,2.87-2.25,1.31,3.44,6.21,3.5,11.74-7.2,11.74-7.2v4a1.92,1.92,0,0,1,2.7-.15,2.11,2.11,0,0,1,.48.67C699.71,383.13,695.06,385.21,695.06,385.21Z"/>
          <path id="Path_36" data-name="Path 36" class="cls-18" d="M691.8,393.12v2.31l-5.73,6.24-5.87-6.5v-2a7,7,0,0,0,5.47,2.7A9.661,9.661,0,0,0,691.8,393.12Z"/>
        </g>
        <g id="Headset">
          <g id="Group_9" data-name="Group 9">
            <path id="Path_37" data-name="Path 37" class="cls-14" d="M686,361.1c-7.82,0-14.19,6.61-14.19,14.74a8.92,8.92,0,0,0,.07,1.37,14.9,14.9,0,0,0,3.77,8.7,15.384,15.384,0,0,0,1.36,1.32v-2.59a13.275,13.275,0,0,1-1.36-1.8,13,13,0,0,1-1.95-5.8c0-.4-.06-.81-.06-1.21a12.369,12.369,0,1,1,24.721-.92c0,.31,0,.61,0,.92v1.21a13.12,13.12,0,0,1-1.86,5.64,12.823,12.823,0,0,1-1.37,1.85v2.61a14.553,14.553,0,0,0,1.37-1.35,14.91,14.91,0,0,0,3.68-8.62c0-.44.06-.89.06-1.34A14.517,14.517,0,0,0,686,361.1Z"/>
          </g>
          <g id="Group_10" data-name="Group 10">
            <rect id="Rectangle_6" data-name="Rectangle 6" class="cls-5" width="1.35" height="10.97" transform="translate(675.76 377.5)"/>
            <path id="Rectangle_7" data-name="Rectangle 7" class="cls-14" d="M675.63,377.5h.13v11h-.13a5.49,5.49,0,0,1-5.49-5.49h0a5.49,5.49,0,0,1,5.49-5.51Z"/>
          </g>
          <g id="Group_11" data-name="Group 11">
            <rect id="Rectangle_8" data-name="Rectangle 8" class="cls-5" width="1.35" height="10.97" transform="translate(695.04 377.5)"/>
            <path id="Rectangle_9" data-name="Rectangle 9" class="cls-14" d="M696.53,388.48h-.13v-11h.13A5.48,5.48,0,0,1,702,383h0a5.48,5.48,0,0,1-5.47,5.48Z"/>
          </g>
        </g>
      </g>
      <g id="Question_Mark" data-name="Question Mark">
        <path id="Path_38" data-name="Path 38" class="cls-6" d="M722.45,377.8c.36-1.16-.43-2.22-2-2.7a4.21,4.21,0,0,0-4,.67l-2.34-2.59c1.89-1.54,4.51-2.07,7.71-1.06,3.56,1.12,5.53,3.49,4.64,6.29-1.2,3.79-5.31,3-6.1,5.48l-3.58-1.13C717.86,379.44,721.79,379.87,722.45,377.8Zm-7.3,8.6a2.39,2.39,0,0,1,3.11-1.33,2.24,2.24,0,1,1-1.64,4.17,2.39,2.39,0,0,1-1.47-2.84Z"/>
      </g>
    </g>
    <g id="Plant_2" data-name="Plant 2">
      <g id="Group_13" data-name="Group 13">
        <path id="Path_39" data-name="Path 39" class="cls-4" d="M901.7,311.15S927.07,347,898.56,396c-6.63,6.23-49.48,22.71-56.7,29.51l-3.19-44.83S844.38,323.14,901.7,311.15Z"/>
        <path id="Path_40" data-name="Path 40" class="cls-6" d="M871.24,395.73l1.08.69c.23-.35,22.78-36,23.74-70.12h-1.29C893.83,360.05,871.46,395.38,871.24,395.73Z"/>
      </g>
      <g id="Group_14" data-name="Group 14">
        <path id="Path_41" data-name="Path 41" class="cls-6" d="M935.46,383.7s-6.33,43.45-60.78,59.32q-13.66-.11-28.56-.18l-4.27-52.22S885.67,352.87,935.46,383.7Z"/>
        <path id="Path_42" data-name="Path 42" class="cls-4" d="M844.23,419.74c7.38-.47,56-4.38,77.16-26.19l-.92-.9c-20.9,21.51-69.17,25.35-76.34,25.8Z"/>
      </g>
    </g>
    <g id="Plant_1" data-name="Plant 1">
      <path id="Path_43" data-name="Path 43" class="cls-4" d="M523.45,373.86s-34.56-15.81-40.67,11.25-34.09,7.88-47.84,27.26-10.76,31.78-32.36,31.78H521.76V373.86"/>
      <g id="Group_15" data-name="Group 15">
        <path id="Path_44" data-name="Path 44" class="cls-6" d="M446.1,444.15s-61-17.47-58-59S444.18,373.69,446.1,444.15Z"/>
        <path id="Path_45" data-name="Path 45" class="cls-4" d="M446.1,444.15h0v-1c-43.76-45.8-45.4-69.89-45.41-70.13l-1.29.06c.05,1,1.59,24.62,45.48,70.66Z"/>
      </g>
      <g id="Group_24" data-name="Group 24">
        <g id="Group_16" data-name="Group 16">
          <path id="Path_46" data-name="Path 46" class="cls-4" d="M459.59,435.37l1.77-1.78c-.08-.08-8-8-16.27-22.07-7.64-13-18.61-33.93-20.67-60.49l-1.07.08A144.84,144.84,0,0,0,443,412.87C451.42,427.22,459.26,435.05,459.59,435.37Z"/>
        </g>
        <g id="Group_23" data-name="Group 23">
          <path id="Path_47" data-name="Path 47" class="cls-4" d="M424.42,351s5.89-4.2-1.07-13.76c0,0-5.61,8.07,0,13.84Z"/>
          <g id="Group_17" data-name="Group 17">
            <path id="Path_48" data-name="Path 48" class="cls-4" d="M424.62,361.51s7.14,1.19,9-10.48C433.59,351,424.73,353.47,424.62,361.51Z"/>
            <path id="Path_49" data-name="Path 49" class="cls-4" d="M424.62,361.51s-7.14,1.19-9-10.48C415.65,351,424.51,353.47,424.62,361.51Z"/>
          </g>
          <g id="Group_18" data-name="Group 18">
            <path id="Path_50" data-name="Path 50" class="cls-4" d="M427.41,372.82s7.24.25,7.53-11.57C434.94,361.25,426.47,364.83,427.41,372.82Z"/>
            <path id="Path_51" data-name="Path 51" class="cls-4" d="M427.41,372.82s-6.92,2.12-10.26-9.22C417.15,363.6,426.25,364.86,427.41,372.82Z"/>
          </g>
          <g id="Group_19" data-name="Group 19">
            <path id="Path_52" data-name="Path 52" class="cls-4" d="M429.8,382.88s7.23.25,7.52-11.57C437.32,371.31,428.86,374.89,429.8,382.88Z"/>
            <path id="Path_53" data-name="Path 53" class="cls-4" d="M429.8,382.88s-6.92,2.12-10.26-9.22C419.54,373.66,428.64,374.92,429.8,382.88Z"/>
          </g>
          <g id="Group_20" data-name="Group 20">
            <path id="Path_54" data-name="Path 54" class="cls-4" d="M434.28,393.65s7.15-1.12,5.21-12.78C439.49,380.87,431.85,385.98,434.28,393.65Z"/>
            <path id="Path_55" data-name="Path 55" class="cls-4" d="M434.28,393.65s-6.4,3.38-11.82-7.12C422.46,386.53,431.63,386.05,434.28,393.65Z"/>
          </g>
          <g id="Group_21" data-name="Group 21">
            <path id="Path_56" data-name="Path 56" class="cls-4" d="M439.27,404.06s7.13-1.27,4.94-12.88C444.21,391.18,436.68,396.45,439.27,404.06Z"/>
            <path id="Path_57" data-name="Path 57" class="cls-4" d="M439.27,404.06s-6.32,3.52-12-6.86C427.3,397.2,436.47,396.52,439.27,404.06Z"/>
          </g>
          <g id="Group_22" data-name="Group 22">
            <path id="Path_58" data-name="Path 58" class="cls-4" d="M446.1,416.78s7-1.68,4.18-13.15C450.28,403.63,443.07,409.33,446.1,416.78Z"/>
            <path id="Path_59" data-name="Path 59" class="cls-4" d="M446.1,416.78s-6.11,3.88-12.35-6.15C433.75,410.63,442.86,409.42,446.1,416.78Z"/>
          </g>
        </g>
      </g>
      <g id="Group_26" data-name="Group 26">
        <path id="Path_60" data-name="Path 60" class="cls-6" d="M465.27,443.27s-21-17.14-7.19-34-26.63-32.05-13.8-49.23-12.83-45.57,7.38-46.93,26.28,13.54,17.31,28.55,23.29,24,16.3,51.11S461.55,420.78,465.27,443.27Z"/>
        <g id="Group_25" data-name="Group 25">
          <path id="Path_61" data-name="Path 61" class="cls-4" d="M464.75,443.64c-.09-.12-9-12.7-.06-30.95s4.23-36.38-3.84-45.64c-8.48-9.72-6.56-33.11-2-40.48l1.1.67c-4.26,6.92-6.08,29.8,1.91,39,8.33,9.56,13.15,28.36,4,47-8.56,17.53-.14,29.52,0,29.64Z"/>
        </g>
      </g>
    </g>
    <g id="Man_2" data-name="Man 2">
      <g id="Head-3">
        <path id="Path_69" data-name="Path 69" class="cls-19" d="M857.75,292.58a32.088,32.088,0,0,1,4-4.27,6.55,6.55,0,0,0,.83-8.5c-1.43-1.74-2.45-1-2.45-1s.49-4.2-3.4-4.24-4.05-1.06-5-1.25-1.93.61-3.63.42-1.55-2.23-3.14-2.27-1.55,3.89-.6,7,4.84,5.29,4.84,5.29Z"/>
        <path id="Path_70" data-name="Path 70" class="cls-16" d="M849.57,298.2v-2.63s-2.74.08-2.86-2.3,1-13.46,1-13.46a39.352,39.352,0,0,0,5.4.83c2.83.23,3.66-.71,4.12-.3s-.3,4.65.79,5.71c0,0,1.36-1.43,2.23.12a2.49,2.49,0,0,1-1.22,3.31,2.6,2.6,0,0,1-.47.16s-.15,2.66-.43,4.68a42.935,42.935,0,0,0-.28,4.39,2.31,2.31,0,0,1-1.12,3.06,2.809,2.809,0,0,1-.49.16c-2.64.83-7.63-.49-7.63-.49Z"/>
        <path id="Path_72" data-name="Path 72" class="cls-18" d="M852.74,283.18l-5.58,2.56c-.18,2.12-.35,4.37-.42,5.93l4-3.62s3.1-.43,3.39-2.37a2.2,2.2,0,0,0-1.39-2.5Z"/>
        <path id="Path_73" data-name="Path 73" class="cls-18" d="M851.13,301.37l3.65-7a9.13,9.13,0,0,1-5.21,1.23v2.63l-.61,2Z"/>
      </g>
      <g id="Legs-2">
        <path id="Path_71" data-name="Path 71" class="cls-14" d="M836.43,356.42s.16,20.64,1.37,43.93,3.32,35.38,3.32,35.38h4.65s4.12-26.92,6.09-50.05,1.81-28.12,1.81-28.12Z"/>
        <path id="Path_75" data-name="Path 75" class="cls-14" d="M848.38,355.29s4.31,50.2,9.75,80.44H863s2.91-44.6,4.57-58.21,0-21.1,0-21.1Z"/>
        <path id="Path_84" data-name="Path 84" class="cls-15" d="M841.12,435.73v1.92l-11.49,5.45h16.14v-7.38Z"/>
        <path id="Path_85" data-name="Path 85" class="cls-15" d="M858.13,435.73v1.92l-11.26,5.45H863v-7.37Z"/>
      </g>
      <g id="Body-3">
        <path id="Path_63" data-name="Path 63" class="cls-18" d="M869.07,346.28a2,2,0,0,1-1.27.93c-.85.17-.92,2.64.52,2.72s2.71-1.47,2.71-1.47l-.77-2.47Z"/>
        <path id="Path_64" data-name="Path 64" class="cls-16" d="M835.39,287.83a8,8,0,0,1-1.73,2.22c-.89.64-1.65.51-2,.83a4.37,4.37,0,0,0-.53,1.61l-4.61-1.21,1.23-3.42,6.67-1.68Z"/>
        <path id="Path_67" data-name="Path 67" class="cls-16" d="M830,280.56s1.65.83,2.31.51,1.49.83,2.31.66.23-1.15-.68-1.58-1-.22-2.15-.34S829.94,279.94,830,280.56Z"/>
        <path id="Path_76" data-name="Path 76" class="cls-12" d="M874.8,330.12c.74-3.17-6.24-7.6-6.24-7.6s-.83,18-.68,23.4c.11,4,.3,7.54.39,9.08a1.28,1.28,0,0,0,.61,1h0a1.31,1.31,0,0,1,.28,1.82,1.35,1.35,0,0,1-.9.52,136.331,136.331,0,0,1-17.61.91c-13.21,0-17-1.25-14.68-4.6a179.59,179.59,0,0,0,.87-18.56c.07-12.17.15-22.6.15-22.6s-9.6,2.8-15.57,2.8-5.9-3-5.45-5.9,9.85-20.31,9.85-20.31l5.9,1.75s-3.52,11.12-3.46,12.36,6.47-1.59,9.69-3.29c.43-.22.8-.43,1.16-.63l.6-.34c1.64-.91,3-1.53,6.73-1.73h3.08s.51,2.5,3.86,2.62,4.42-2.1,4.42-2.1.65.18,1.66.5l.66.21a46.362,46.362,0,0,1,8.9,3.82c4.14,2.56,13.25,16.1,15.14,21.49s-9.52,25.12-9.52,25.12l-5.62-3.58S874.06,333.29,874.8,330.12Z"/>
        <path id="Path_78" data-name="Path 78" class="cls-20" d="M868.93,356.07h0a1.28,1.28,0,0,1-.61-1c-.09-1.55-.28-5.08-.39-9.08-.15-5.37.68-23.4.68-23.4l-9.3-5.94s5.3,17.84,5.9,25.25.38,8.47-1.25,10.06.12,4.38,1.78,3.85,2.84,2.69-2.65,3.18c2.43-.17,4.18-.37,5.27-.52a1.29,1.29,0,0,0,1.14-1.44,1.27,1.27,0,0,0-.57-.96Z"/>
        <path id="Path_82" data-name="Path 82" class="cls-16" d="M869.73,346.69a10.862,10.862,0,0,1-1.73,2.76c-1.08,1.19-3.44,2.75-2.7,3.91s3.77.91,5.84-.2a7.49,7.49,0,0,0,3-3.66Z"/>
        <path id="Path_83" data-name="Path 83" class="cls-20" d="M837,313.56v-7.63s-6.8,4.68-13.46,5.74c-5.24.84-6.49-1.66-6-5.2a22.731,22.731,0,0,0-1.55,4c-.45,2.87-.53,5.9,5.45,5.9S837,313.56,837,313.56Z"/>
      </g>
      <path id="Path_77" data-name="Path 77" class="cls-21" d="M849.16,298.2h-2.41l.87,3a3.286,3.286,0,0,1-1,.68,4.17,4.17,0,0,1-4.59-1.29,5.619,5.619,0,0,1-.88-1.37h0l-.61.29a6,6,0,0,0,1,1.54,5.19,5.19,0,0,0,3.76,1.77,4.28,4.28,0,0,0,1.58-.31,4,4,0,0,0,1-.6l.13.48.37-.1c.24-.09.42-.73.55-1.5a6.292,6.292,0,0,0,.37.53,7.44,7.44,0,0,0,5.79,2.88,6.4,6.4,0,0,0,1.85-.25c1.67-.49,2.69-2.65,3.28-4.62h0l-.64-.21c-.54,1.81-1.43,3.76-2.83,4.17a6.57,6.57,0,0,1-6.91-2.39,7.505,7.505,0,0,1-.59-.88,6.361,6.361,0,0,0,.39-1.83h0v-.08Z"/>
      <g id="Binoculars">
        <path id="Path_62" data-name="Path 62" class="cls-22" d="M838.48,288.88h-1.23l.59,1.69h1.27l.59-1.69Z"/>
        <path id="Path_66" data-name="Path 66" class="cls-23" d="M828.81,280.15l10,1.49a2.78,2.78,0,0,1,1.86,1.1,2.52,2.52,0,0,1,.48,1.52,3.31,3.31,0,0,1-.41,1.6,2.82,2.82,0,0,1-2,1.42l-9.86,1.6Z"/>
        <g id="Group_29" data-name="Group 29">
          <circle id="Ellipse_8" data-name="Ellipse 8" class="cls-24" cx="4.37" cy="4.37" r="4.37" transform="translate(824.44 280.14)"/>
          <circle id="Ellipse_9" data-name="Ellipse 9" class="cls-23" cx="3.32" cy="3.32" r="3.32" transform="translate(825.49 281.19)"/>
          <circle id="Ellipse_10" data-name="Ellipse 10" class="cls-22" cx="2.96" cy="2.96" r="2.96" transform="translate(825.85 281.55)"/>
          <path id="Path_68" data-name="Path 68" class="cls-25" d="M831.14,284.51a2.33,2.33,0,0,1-2.33,2.33"/>
          <circle id="Ellipse_11" data-name="Ellipse 11" class="cls-5" cx="0.81" cy="0.81" r="0.81" transform="translate(826.59 282.4)"/>
        </g>
        <path id="Path_74" data-name="Path 74" class="cls-26" d="M846.39,287.86h-1.22l.59,1.69H847l.59-1.69Z"/>
        <g id="Group_31" data-name="Group 31">
          <path id="Path_79" data-name="Path 79" class="cls-26" d="M849.55,282.13h1.85a2.51,2.51,0,0,1,2.52,2.49,2.421,2.421,0,0,1-.21,1v.08a2.45,2.45,0,0,1-2.25,1.38h-3.81Z"/>
          <path id="Path_80" data-name="Path 80" class="cls-23" d="M838.25,279.81l11,1.64a3,3,0,0,1,2,1.21,2.79,2.79,0,0,1,.53,1.67,3.54,3.54,0,0,1-.45,1.75,3.07,3.07,0,0,1-2.25,1.57l-10.83,1.76Z"/>
          <g id="Group_30" data-name="Group 30">
            <circle id="Ellipse_12" data-name="Ellipse 12" class="cls-24" cx="4.8" cy="4.8" r="4.8" transform="translate(833.45 279.81)"/>
            <circle id="Ellipse_13" data-name="Ellipse 13" class="cls-23" cx="3.65" cy="3.65" r="3.65" transform="translate(834.6 280.96)"/>
            <circle id="Ellipse_14" data-name="Ellipse 14" class="cls-22" cx="3.25" cy="3.25" r="3.25" transform="translate(835 281.36)"/>
            <path id="Path_81" data-name="Path 81" class="cls-25" d="M840.81,284.61a2.56,2.56,0,0,1-2.56,2.56"/>
            <circle id="Ellipse_15" data-name="Ellipse 15" class="cls-5" cx="0.89" cy="0.89" r="0.89" transform="translate(835.8 282.29)"/>
          </g>
        </g>
        <g id="Group_32" data-name="Group 32">
          <path id="Path_86" data-name="Path 86" class="cls-27" d="M846.22,305.31a4.07,4.07,0,0,1-1.58.3,5.2,5.2,0,0,1-3.77-1.76,8.669,8.669,0,0,1-1.72-3.51,38.749,38.749,0,0,1-1-9.78h.68a39.29,39.29,0,0,0,.94,9.42,8.251,8.251,0,0,0,1.61,3.39,4.19,4.19,0,0,0,4.59,1.29c1.53-.63,2.4-2.28,2.34-4.41l-.06-2.06h.68l.06,2C849.05,302.68,848,304.57,846.22,305.31Z"/>
        </g>
        <g id="Group_33" data-name="Group 33">
          <path id="Path_87" data-name="Path 87" class="cls-28" d="M860.17,299.42c-.32,1.9-1.34,6.57-3.91,7.32a6.761,6.761,0,0,1-1.84.26,7.45,7.45,0,0,1-5.79-2.88,11.811,11.811,0,0,1-2.15-5.86c-.11-.83-.18-1.65-.25-2.44-.18-2.1-.19-4.26-.17-6.28h.68c0,2,0,4.14.17,6.21.07.83.14,1.66.25,2.48a10.859,10.859,0,0,0,2,5.46,6.58,6.58,0,0,0,6.91,2.39c2.22-.65,3.16-5.17,3.44-6.88Z"/>
        </g>
      </g>
    </g>
    <g id="Man_1" data-name="Man 1">
      <g id="Legs-3">
        <path id="Path_92" data-name="Path 92" class="cls-15" d="M500,436v1.62l10.7,5.45H494.54V436Z"/>
        <path id="Path_93" data-name="Path 93" class="cls-15" d="M515,436v1.62l10.7,5.45H509.51V436Z"/>
        <path id="Path_94" data-name="Path 94" class="cls-14" d="M521,375.25s7.14,22.79,8,29.82S515,436,515,436h-5.44s4.91-18.37,5.44-23-7.48-21.77-7.48-21.77l-3.75-14.18,3.48-4.23Z"/>
        <path id="Path_95" data-name="Path 95" class="cls-14" d="M491.67,366.63s-2.95,5.75-2,15.57,11.18,20.87,11.49,24.88S494.54,436,494.54,436H500s12.47-22.2,16-29.31-8.65-25.12-9.33-38.05Z"/>
      </g>
      <g id="Head-4">
        <ellipse id="Ellipse_16" data-name="Ellipse 16" class="cls-29" cx="14.94" cy="13.07" rx="14.94" ry="13.07" transform="translate(517.45 300.07)"/>
        <path id="Path_90" data-name="Path 90" class="cls-16" d="M522.36,326.91l3.67-6.77s-2.23-.94-1.25-3.78,4.91-1.25,4.57,1.66a4.06,4.06,0,0,0,2.91-2.8c.57-2.26,1.06-2.57,1.59-2.23s1.93,4.54,4.35,5,3.06-.16,3.1.68-3.78,8.2-5.71,10.13a4.21,4.21,0,0,1-4,1.28L530,333.35l-6.55,1.47S519,329.36,522.36,326.91Z"/>
        <path id="Path_91" data-name="Path 91" class="cls-18" d="M526.57,326.91l.73,7,2.65-.6,1.63-3.31S527.57,329.31,526.57,326.91Z"/>
      </g>
      <g id="Body-4">
        <path id="Path_96" data-name="Path 96" class="cls-12" d="M491.89,364.21a3.55,3.55,0,0,0-1.44,3.7c.46,2.57,22,9.76,27.14,10.29,4.12.42,5.28-.61,5.27-1.39a9.06,9.06,0,0,1,.59-2.95l6.35-19.59s3.52,10.85,6.77,14.25,20.11-10.36,20.11-10.36l-1.44-5.84s-11.11,6.14-12.92,6.22-2.57-10.66-2.8-15.42-.46-6.12-1.59-7.34-7.08-4.27-7.08-4.27a4.85,4.85,0,0,1-5.24,1.37c-3.25-1.11-3.25-6-3.25-6H505.88c-4.08,0-20.72,13.27-24.57,17.58s-10.59,17.31-10.59,17.31l3.86,3s11.34-12.17,15.5-15.11,12.55-5,12.55-5Z"/>
        <path id="Path_126" data-name="Path 126" class="cls-16" d="M558.92,351.58s1.16,0,1.3,2.1a4.3,4.3,0,0,1-3.17,4.42c-1.9.51-3.2.11-2.47-2.38a5.25,5.25,0,0,1,3.36-3.6A2.21,2.21,0,0,0,558.92,351.58Z"/>
        <path id="Path_127" data-name="Path 127" class="cls-16" d="M470.73,361.79s-8,8.58-7.34,10.74,6.7-2.72,7.34-2.91.75,1.62,1.93.68.22-4.31,1.92-5.48Z"/>
        <path id="Path_128" data-name="Path 128" class="cls-30" d="M511.7,341.69l-9.07,3-10.74,19.5a3.55,3.55,0,0,0-1.44,3.7c.24,1.34,6.2,3.94,12.59,6.19-9.39-4-7.48-8.49-3.17-15.07S511.7,341.69,511.7,341.69Z"/>
        <path id="Path_129" data-name="Path 129" class="cls-31" d="M544,366.94c-.2.07-5.41,2-7-2.73s-3.19-22.52-3.19-22.52l-4,12.58s3.51,10.85,6.76,14.25C537.75,369.75,540.71,368.73,544,366.94Z"/>
      </g>
      <g id="Loop">
        <path id="Path_88" data-name="Path 88" class="cls-32" d="M573.84,332.28c-.73,3.38-2.35,7.16-5.34,9.6l-.44.34H568c-.12.09-.24.18-.37.26l-.12.07-.3.19-.17.09-.25.14-.21.1-.2.1-.24.1-.17.06-.27.1h-.14l-.28.08h0a7,7,0,0,1-1.2-.47,5.62,5.62,0,0,1-2.95-4c-.77-4.31.15-10.93,5.31-14.87a11.17,11.17,0,0,1,3.59-1.9,6.51,6.51,0,0,1,2.23-.31h0a6.394,6.394,0,0,1,.4.51h0a9,9,0,0,1,1.4,3.18h0a5.27,5.27,0,0,0,.12.65h0c0,.22.06.43.07.64A18.8,18.8,0,0,1,573.84,332.28Z"/>
        <path id="Path_89" data-name="Path 89" class="cls-24" d="M557.67,348.6l2.93-6.07,1.72.78-2.93,6.07Z"/>
        <path id="Path_97" data-name="Path 97" class="cls-23" d="M552.17,358.69l4.62-9.55,2.71,1.24-4.62,9.55Z"/>
        <path id="Path_98" data-name="Path 98" class="cls-22" d="M554.72,361.58l-3.33-1.51A.83.83,0,0,1,551,359a.3.3,0,0,1,0-.08h0a.83.83,0,0,1,1.06-.33l3.32,1.52a.82.82,0,0,1,.41,1.09.2.2,0,0,1,0,.08h0A.81.81,0,0,1,554.72,361.58Z"/>
        <path id="Path_99" data-name="Path 99" class="cls-22" d="M559.7,350.65l-3.33-1.51A.84.84,0,0,1,556,348v-.08h0a.83.83,0,0,1,1.06-.33l3.32,1.52a.82.82,0,0,1,.41,1.09.3.3,0,0,1,0,.08h0a.81.81,0,0,1-1.09.37Z"/>
        <path id="Path_123" data-name="Path 123" class="cls-33" d="M560.54,342.66l-2.6,5.37h0l4.21-4.36-.84-.82-.5-.22Z"/>
        <path id="Path_124" data-name="Path 124" class="cls-24" d="M572.24,322a6.72,6.72,0,0,0-2.23.31,11.74,11.74,0,0,0-3.6,1.9c-5.15,3.94-6.07,10.57-5.3,14.88a5.71,5.71,0,0,0,4.15,4.49,5.94,5.94,0,0,1-7.4-4,5.312,5.312,0,0,1-.19-.88c-.77-4.65.14-11.79,5.3-16.05,1.8-1.48,4.43-2.85,6.82-2.22a4.47,4.47,0,0,1,1.65.81,5.619,5.619,0,0,1,.8.76Z"/>
        <path id="Path_125" data-name="Path 125" class="cls-33" d="M573.84,332.28c-.73,3.38-2.35,7.16-5.34,9.6l-.44.34H568c-.12.09-.24.18-.37.26l-.12.07-.3.19-.17.09-.25.14-.21.1-.2.1-.24.1-.17.06-.27.1h-.14l-.28.08h0a7,7,0,0,1-1.2-.47,9.671,9.671,0,0,0,2-1.25c4.77-3.88,6.06-11.2,5.8-14.79a9.1,9.1,0,0,0-1.8-4.77,6.721,6.721,0,0,1,2.23-.3h0c.14.17.27.33.4.51h0a8.941,8.941,0,0,1,1.4,3.19,5.27,5.27,0,0,0,.12.65h0c0,.22.06.43.07.64A18.8,18.8,0,0,1,573.84,332.28Z"/>
      </g>
    </g>
  </g>
</svg>
