<svg xmlns="http://www.w3.org/2000/svg" xmlns:xlink="http://www.w3.org/1999/xlink" width="488.825" height="461.271" viewBox="0 0 488.825 461.271">
  <defs>
    <style>
      .cls-1 {
        fill: #fae9e9;
        opacity: 0.5;
      }

      .cls-1, .cls-2 {
        isolation: isolate;
      }

      .cls-2 {
        fill: #fcd0d0;
      }

      .cls-3 {
        fill: #3b3a66;
      }

      .cls-4 {
        fill: #242151;
      }

      .cls-5 {
        fill: #6b9fce;
      }

      .cls-6 {
        fill: #1b184a;
      }

      .cls-7 {
        fill: url(#linear-gradient);
      }

      .cls-8 {
        fill: #467fcf;
      }

      .cls-9 {
        fill: #3866a6;
      }

      .cls-10 {
        fill: url(#linear-gradient-2);
      }

      .cls-11 {
        fill: #343a40;
      }

      .cls-12 {
        fill: url(#linear-gradient-3);
      }

      .cls-13 {
        fill: url(#linear-gradient-4);
      }

      .cls-14 {
        fill: url(#linear-gradient-5);
      }

      .cls-15 {
        fill: url(#linear-gradient-6);
      }

      .cls-16 {
        fill: #1d164d;
      }

      .cls-17 {
        fill: url(#linear-gradient-7);
      }

      .cls-18 {
        fill: #d1e4f3;
      }

      .cls-19 {
        fill: #daeaf7;
      }

      .cls-20 {
        opacity: 0.2;
      }

      .cls-21 {
        fill: #fff;
      }

      .cls-22 {
        fill: #989a9c;
      }

      .cls-23 {
        fill: #faafaf;
      }
    </style>
    <linearGradient id="linear-gradient" x1="-0.284" y1="27.402" x2="-0.255" y2="27.367" gradientUnits="objectBoundingBox">
      <stop offset="0" stop-color="#ffc0ac"/>
      <stop offset="1" stop-color="#ffd6c7"/>
    </linearGradient>
    <linearGradient id="linear-gradient-2" x1="0.531" y1="5.551" x2="0.524" y2="5.537" gradientUnits="objectBoundingBox">
      <stop offset="0" stop-color="#5ca0d3"/>
      <stop offset="1" stop-color="#6236d9"/>
    </linearGradient>
    <linearGradient id="linear-gradient-3" x1="1.032" y1="9.457" x2="1.038" y2="9.476" gradientUnits="objectBoundingBox">
      <stop offset="0" stop-color="#1d164d"/>
      <stop offset="1" stop-color="#4a4975"/>
    </linearGradient>
    <linearGradient id="linear-gradient-4" x1="1.314" y1="10.19" x2="1.303" y2="10.206" xlink:href="#linear-gradient"/>
    <linearGradient id="linear-gradient-5" x1="3.331" y1="8.876" x2="3.345" y2="8.932" xlink:href="#linear-gradient"/>
    <linearGradient id="linear-gradient-6" x1="0.549" y1="8.861" x2="0.564" y2="8.916" xlink:href="#linear-gradient"/>
    <linearGradient id="linear-gradient-7" x1="0.652" y1="29.795" x2="0.674" y2="29.9" xlink:href="#linear-gradient"/>
  </defs>
  <g id="Illustration" transform="translate(-143.907 -203.529)">
    <g id="Background">
      <path id="Path_1-2" data-name="Path 1-2" class="cls-1" d="M210.18,630.16s-82.05-119.68-44.62-216.95,103.79,61,146.9,60.28-132.9-184.23-2.81-231.67c110.3-48.44,160.24-17.08,141.17,78.32C428.15,433.51,463.77,457,502,412c44.11-52,88.2,9,47.89,68.05s84.18,15.05,56.07,73.31c-26.08,54-9,69.14-9,69.14l-32.69,7.7Z"/>
      <path id="Rectangle_1" data-name="Rectangle 1" class="cls-2" d="M487.68,442.19l34.72-24.33a19.09,19.09,0,0,1,26.6,4.68l.12.17a19.09,19.09,0,0,1-4.68,26.6l-34.72,24.33a19.1,19.1,0,0,1-26.6-4.67l-.12-.18a19.1,19.1,0,0,1,4.68-26.6Z"/>
      <path id="Rectangle_2" data-name="Rectangle 2" class="cls-2" d="M319.53,217.11,360,204.41a19.1,19.1,0,0,1,23.94,12.5l.07.2a19.1,19.1,0,0,1-12.5,23.94L331,253.75a19.09,19.09,0,0,1-23.94-12.5l-.06-.2A19.1,19.1,0,0,1,319.53,217.11Z"/>
      <path id="Rectangle_3" data-name="Rectangle 3" class="cls-2" d="M417.9,439.8l15.27-10.71a5,5,0,0,1,7,1.23v.05a5,5,0,0,1-1.24,7L423.7,448.08a5,5,0,0,1-7-1.24h0a5,5,0,0,1,1.2-7.04Z"/>
      <path id="Rectangle_4" data-name="Rectangle 4" class="cls-2" d="M439.48,535l18.44-12.93a3.7,3.7,0,0,1,5.15.91h0a3.7,3.7,0,0,1-.91,5.15L443.74,541.1a3.68,3.68,0,0,1-5.14-.91h0a3.7,3.7,0,0,1,.88-5.19Z"/>
      <path id="Rectangle_5" data-name="Rectangle 5" class="cls-2" d="M383.38,500.44h20.74a9.9,9.9,0,0,1,9.9,9.9v.11a9.91,9.91,0,0,1-9.91,9.91H383.38a9.9,9.9,0,0,1-9.9-9.9v-.11a9.9,9.9,0,0,1,9.9-9.9Z" transform="matrix(0.819, -0.574, 0.574, 0.819, -221.63, 318.42)"/>
      <path id="Rectangle_6-2" data-name="Rectangle 6-2" class="cls-2" d="M534.79,549.86h15.13a7.23,7.23,0,0,1,7.23,7.23v.08a7.22,7.22,0,0,1-7.22,7.22H534.79a7.23,7.23,0,0,1-7.23-7.23v-.08a7.22,7.22,0,0,1,7.22-7.22Z" transform="matrix(0.819, -0.574, 0.574, 0.819, -221.53, 412.16)"/>
      <path id="Rectangle_7" data-name="Rectangle 7" class="cls-2" d="M203.65,521.48,227,505.12a6.77,6.77,0,0,1,9.42,1.66v.06a6.77,6.77,0,0,1-1.65,9.43l-23.33,16.35A6.78,6.78,0,0,1,202,531v-.06a6.77,6.77,0,0,1,1.65-9.46Z"/>
      <rect id="Rectangle_8" data-name="Rectangle 8" class="cls-2" width="28.25" height="9.15" rx="4.55" transform="matrix(0.819, -0.574, 0.574, 0.819, 192.61, 437.586)"/>
    </g>
    <g id="Cable">
      <g id="Group_5" data-name="Group 5">
        <g id="Group_3" data-name="Group 3">
          <path id="Path_2" data-name="Path 2" class="cls-3" d="M621.58,635v-.13a1.61,1.61,0,0,1,1.08-1.88c4.08-1.41,6.61-4.62,6.68-7.11.08-2.84-3-4.13-4.83-4.64-8.41-2.37-20.25.62-35.23,4.41-3.21.81-6.52,1.64-10,2.47-12.92,3.09-20.3,2.92-23.93-.55-2.27-2.17-2.93-5.48-2-10.11a4.85,4.85,0,0,0-1.74-4.85c-5.22-4.62-19.32-5.19-31.42-1.27-7.35,2.37-13.11,2.44-17.11.19a8.92,8.92,0,0,1-4.34-5.22l3.25-.8a5.7,5.7,0,0,0,2.82,3.15c2.18,1.18,6.43,2.05,14.35-.52,13.33-4.31,28.56-3.45,34.66,2a8.15,8.15,0,0,1,2.82,8c-.66,3.42-.31,5.73,1.07,7,2.6,2.49,9.61,2.39,20.83-.29,3.43-.82,6.73-1.66,9.92-2.46,15.48-3.91,27.7-7,37-4.39,6.71,1.89,7.32,6.19,7.27,8-.12,4.29-3.86,8.45-9,10.2a1.6,1.6,0,0,1-2-1Z"/>
        </g>
        <circle id="Ellipse_1" data-name="Ellipse 1" class="cls-4" cx="7.65" cy="7.65" r="7.65" transform="translate(486.76 598.29)"/>
        <path id="Path_3" data-name="Path 3" class="cls-5" d="M446.65,553.35l33.78,16.12a31.9,31.9,0,0,1,17.62,34.66h0a31.9,31.9,0,0,1-31.35,26H425.89Z"/>
        <path id="Path_4-2" data-name="Path 4-2" class="cls-5" d="M446.65,553.35S433.42,552,421.37,572.6s-6.69,52.17,4.52,57.56c0,0,19.76-11.74,23.77-39.87S446.65,553.35,446.65,553.35Z"/>
        <ellipse id="Ellipse_2" data-name="Ellipse 2" class="cls-6" cx="5.74" cy="2.94" rx="5.74" ry="2.94" transform="translate(424.711 608.754) rotate(-75.96)"/>
        <path id="Ellipse_3" data-name="Ellipse 3" class="cls-6" d="M433,580.79c.77-3.07,2.67-5.25,4.25-4.85s2.23,3.2,1.46,6.28-2.67,5.24-4.25,4.85S432.26,583.86,433,580.79Z"/>
        <g id="Group_4" data-name="Group 4">
          <g id="Group_2299" data-name="Group 2299">
            <path id="Path_5" data-name="Path 5" class="cls-5" d="M498.05,604.12h0a31.87,31.87,0,0,0-10.5-30c3.71,4,3.45,10.91-2.4,17.61-6.92,7.93,7.14,16-7.37,27.12s-36.6,11.3-36.6,11.3H466.7a31.891,31.891,0,0,0,31.35-26.033Z"/>
          </g>
          <g id="Group_2300" data-name="Group 2300">
            <path id="Path_6" data-name="Path 6" class="cls-5" d="M485,572.11l.18.12Z"/>
          </g>
        </g>
      </g>
    </g>
    <g id="Confused">
      <path id="Path_7" data-name="Path 7" class="cls-7" d="M367.65,301.14l-3-.47-4.1,7.34,1.59,1.67a11.508,11.508,0,0,1,1.4,1.79l4.2,6.7,9.21-6-5.57-8.59a5.38,5.38,0,0,0-3.73-2.44Z"/>
      <path id="Path_8" data-name="Path 8" class="cls-8" d="M365.44,444.94V636.78H347.93L335,511.68l-19.2,125.1H297.48V444.94Z"/>
      <g id="Group_2301" data-name="Group 2301">
        <path id="Path_9" data-name="Path 9" class="cls-9" d="M297.48,476.27v5c11.19-13.12,29-21.82,48.58-23.5l-.29-3.34C326.76,456,309.3,464.06,297.48,476.27Z"/>
      </g>
      <path id="Path_18941" data-name="Path 18941" class="cls-3" d="M337.62,445.77a5.6,5.6,0,0,0-5.58,5.11c-21.81,2.07-41.54,12.51-52.87,28.06-15.59,21.37-14.67,46.75-13.78,71.28.21,5.58.41,11.34.41,16.89,0,26.48-8.91,48.26-26.48,64.73-21.86,20.47-56.76,31.4-93.64,29.38a1.67,1.67,0,0,0-1.77,1.55h0a1.68,1.68,0,0,0,1.58,1.77q4.45.24,8.85.24c34.47,0,66.53-11.09,87.27-30.52,18.28-17.13,27.55-39.73,27.55-67.17,0-5.61-.21-11.41-.42-17-.87-24-1.77-48.75,13.14-69.19,10.85-14.87,29.85-24.86,50.88-26.74a5.61,5.61,0,1,0,4.86-8.4Z"/>
      <path id="Path_10" data-name="Path 10" class="cls-10" d="M405.23,472.31l-33.37,4.37a30.68,30.68,0,0,1-34.41-26.45v-.19h0a30.69,30.69,0,0,1,24.78-34l31-5.83Z"/>
      <path id="Path_11" data-name="Path 11" class="cls-11" d="M415,379.38l-38-67.24-9.21,6,16.75,48.29L363,356.09a30.5,30.5,0,0,0-5.06-1.89l-10.36-2.8-19.16-1.12-25.39,9a16.7,16.7,0,0,0-11,14l-5.25,50.93a9.55,9.55,0,0,0,4.66,9.21l6.09,2.91v8.49h25.73l22.85,7.53,5.68-7.53H365.5V389.68l33.65,9.75A13.81,13.81,0,0,0,415,379.38Z"/>
      <path id="Path_12" data-name="Path 12" class="cls-12" d="M328.39,334.32s-13.89-10.21-15.06-22.18,9-10,9-10-3.24-10.61,4.13-15.07,14,1.22,14,1.22,7.55-10.6,21.83-5,5.81,23.16-1.78,24.69c0,0-.11,6.22-3.4,9.68S330.74,325,328.39,334.32Z"/>
      <path id="Path_13" data-name="Path 13" class="cls-13" d="M328.4,350.28v-23.1s-6.25-3.74-4.69-8.71,8.31-2.17,9.09,1.84c0,0,4.36-3.68,1.34-10.43,0,0,9.54,6.47,23.38,0,0,0-.84,22.68-2.77,28a6,6,0,0,1-7.19,3.94v9.54S345.47,362.44,328.4,350.28Z"/>
      <g id="Group_6" data-name="Group 6">
        <path id="Path_14" data-name="Path 14" class="cls-14" d="M313.33,653l2.48-16.19H297.48V653Z"/>
        <path id="Path_15" data-name="Path 15" class="cls-15" d="M349.6,653h15.84V636.78H347.93Z"/>
      </g>
      <path id="Path_16" data-name="Path 16" class="cls-16" d="M334.92,335.58s2.35,9.71,12.64,9.71v-3.44S339.78,340.93,334.92,335.58Z"/>
      <path id="Path_17" data-name="Path 17" class="cls-11" d="M351.69,444.82l-12.95-8.2L310.87,419l6.88-38.33c-.25,1.56-1.29,9.23.94,14.22,2.49,5.59-2.52,14,1.33,14.85s9.37-1.46,13.84,11.71A42,42,0,0,0,340.21,433a68.079,68.079,0,0,0,11.48,11.82Z"/>
      <path id="Path_18" data-name="Path 18" class="cls-5" d="M405.23,472.31l-33.37,4.37a30.68,30.68,0,0,1-34.41-26.43v-.21l-.06-.51,8.7,2.86,5.67-7.54h0l-12.95-8.21a30.1,30.1,0,0,1,1.47-3.64,30.64,30.64,0,0,1,22-16.9l3.23-.6,27.79-5.23Z"/>
      <g id="Group_2302" data-name="Group 2302">
        <path id="Path_19" data-name="Path 19" class="cls-5" d="M362.21,416.09a30.64,30.64,0,0,0-22,16.9,30.1,30.1,0,0,0-1.47,3.64l12.95,8.21h0l-5.67,7.54-8.69-2.86.06.51a30.68,30.68,0,0,0,34.23,26.67h.2l3-.4h0s-4.2.5-9.34-5.53-11.83-.45-12.49-6.47,3.09-8.22,8.26-10.72,4.46-2.45-2-7-13-.39-11-10.22S362.21,416.09,362.21,416.09Z"/>
      </g>
      <path id="Path_20" data-name="Path 20" class="cls-11" d="M323.2,444.86l-25.72-8.48v4.8Z"/>
      <path id="Path_21" data-name="Path 21" class="cls-5" d="M393.24,410.26s-11.44,10.66-7.59,33.09,19.58,29,19.58,29,15.24-11.55,10.22-34S393.24,410.26,393.24,410.26Z"/>
      <path id="Path_22" data-name="Path 22" class="cls-17" d="M346.06,452.4l7.69,3.11a8,8,0,0,0,9.84-3.34h0a1.09,1.09,0,0,0-.38-1.49l-.21-.09-6.19-2s2.16-.51,2.55-2-1.53-.14-3.46-.45-2.12-1.2-4.17-1.28Z"/>
      <path id="Path_23" data-name="Path 23" class="cls-9" d="M343.24,475.47,335,511.63l3,29.18Z"/>
      <g id="Group_8" data-name="Group 8">
        <path id="Path_25" data-name="Path 25" class="cls-18" d="M395.53,424.92a4.08,4.08,0,0,0,.91,5.09,1.52,1.52,0,0,0,1.26.35l30.59-5.28a3.17,3.17,0,0,0,2.59-3.67h0a3.17,3.17,0,0,0-3.67-2.59l-30.57,5.27a1.53,1.53,0,0,0-1.11.83Z"/>
        <path id="Path_26" data-name="Path 26" class="cls-19" d="M416.41,423.91a3.17,3.17,0,0,0-3.67-2.59l-16.18,2.79a1.53,1.53,0,0,0-1,.81,4.08,4.08,0,0,0,.91,5.09,1.52,1.52,0,0,0,1.26.35l16.22-2.79a3.18,3.18,0,0,0,2.46-3.66Z"/>
        <path id="Path_27" data-name="Path 27" class="cls-6" d="M399.48,430.06l-1.78.3a1.52,1.52,0,0,1-1.26-.35,4.06,4.06,0,0,1-.9-5.09,1.49,1.49,0,0,1,1.1-.83l1.78-.31a1.51,1.51,0,0,0-1.1.83,4.08,4.08,0,0,0,.9,5.09A1.57,1.57,0,0,0,399.48,430.06Z"/>
      </g>
      <g id="Group_9" data-name="Group 9">
        <path id="Path_28" data-name="Path 28" class="cls-18" d="M399,446.93a4.08,4.08,0,0,0,.9,5.09,1.57,1.57,0,0,0,1.26.36l30.6-5.28a3.18,3.18,0,0,0,2.59-3.68h0a3.17,3.17,0,0,0-3.67-2.59L400.1,446.1a1.49,1.49,0,0,0-1.1.83Z"/>
        <path id="Path_29" data-name="Path 29" class="cls-19" d="M419.9,445.93a3.18,3.18,0,0,0-3.68-2.6l-16.17,2.79a1.51,1.51,0,0,0-1,.81,4.09,4.09,0,0,0,.9,5.09,1.52,1.52,0,0,0,1.26.35l16.22-2.8a3.17,3.17,0,0,0,2.47-3.64Z"/>
        <path id="Path_30" data-name="Path 30" class="cls-6" d="M403,452.07l-1.77.31a1.58,1.58,0,0,1-1.27-.36,4.08,4.08,0,0,1-.9-5.09,1.49,1.49,0,0,1,1.1-.83l1.79-.31a1.58,1.58,0,0,0-1.11.83,4.08,4.08,0,0,0,.91,5.09A1.53,1.53,0,0,0,403,452.07Z"/>
      </g>
      <path id="Path_32" data-name="Path 32" class="cls-11" d="M297.48,644.88h0a4.07,4.07,0,0,0-4.07,4.07h0v10.63a5.21,5.21,0,0,0,5.22,5.22h39.08a3.85,3.85,0,0,0,3.85-3.85h0a2.24,2.24,0,0,0-1.91-2.22c-3.79-.56-12.25-2-16.5-3.89-5.58-2.54-5.82-9.09-8.72-9.09C314.43,645.75,307.07,653.64,297.48,644.88Z"/>
      <path id="Path_33" data-name="Path 33" class="cls-11" d="M348.49,644.88h.27a4.31,4.31,0,0,0-4.34,4.07v10.63a5.22,5.22,0,0,0,5.22,5.22h39.08a3.85,3.85,0,0,0,3.85-3.85h0a2.24,2.24,0,0,0-1.91-2.22c-3.8-.56-12.25-2-16.51-3.89-5.58-2.54-5.81-9.09-8.71-9.09C365.44,645.75,358.08,653.64,348.49,644.88Z"/>
      <g id="Group_11" data-name="Group 11">
        <path id="Path_34" data-name="Path 34" class="cls-21" d="M322.06,655.9c.48-.3,1-.6,1.49-.89l-.4-.17a8.392,8.392,0,0,1-1-.55l-.77.47c-2.53,1.55-4.36,2.57-5,1.62a.63.63,0,0,1-.08-.61c.34-.94,2.19-2,4.14-2.82a13.174,13.174,0,0,1-.94-1c-1.93.85-4,2.05-4.46,3.41a2,2,0,0,0,.23,1.81C316.65,659.21,319.4,657.53,322.06,655.9Z"/>
        <path id="Path_35" data-name="Path 35" class="cls-21" d="M328.94,656.7c-1.46,1.18-2.95,2.38-3.89,1.83a.35.35,0,0,1-.11-.1c-.1-.39,1.27-1.67,1.94-2.28-.52-.15-1-.3-1.48-.46-1,1-1.89,1.95-1.8,2.88a1.47,1.47,0,0,0,.77,1.11,2.35,2.35,0,0,0,1.21.34c1.4,0,2.86-1.19,4.27-2.34l.74-.6Z"/>
      </g>
      <g id="Group_12" data-name="Group 12">
        <path id="Path_36" data-name="Path 36" class="cls-21" d="M375,655.9l.73-.44c-.56-.2-1.09-.41-1.56-.62-2.46,1.5-4.24,2.48-4.86,1.55a.62.62,0,0,1-.09-.61c.26-.73,1.44-1.53,2.87-2.24a11.807,11.807,0,0,1-1-1c-1.44.77-2.73,1.71-3.1,2.75a2,2,0,0,0,.23,1.81C369.58,659.22,372.33,657.53,375,655.9Z"/>
        <path id="Path_37" data-name="Path 37" class="cls-21" d="M381.43,657.05c-1.31,1.05-2.6,2-3.45,1.48a.349.349,0,0,1-.11-.1c-.07-.32.82-1.22,1.51-1.88l-1.51-.4c-.82.83-1.42,1.63-1.33,2.42a1.43,1.43,0,0,0,.76,1.11,2.39,2.39,0,0,0,1.22.34c1.4,0,2.85-1.19,4.26-2.34l.33-.27Z"/>
      </g>
      <g id="Group_14" data-name="Group 14">
        <path id="Path_38" data-name="Path 38" class="cls-22" d="M287.69,305.12A16.58,16.58,0,0,1,277,301.64c-2.95-2.39-4.27-5.12-3.93-8.09,1.09-9.63,19.07-18.56,19.84-18.93l.3.62c-.18.09-18.41,9.13-19.47,18.39-.31,2.72.93,5.24,3.69,7.48,6.25,5.08,15.8,3.75,23.2,0a8.311,8.311,0,0,1-1.92-1.35c-4,.65-8.94.29-12-2.76s-3.06-5.33-2.4-6.61c1.81-3.52,9.73-4.51,20.65-2.59,4,.71,5.12,2.37,5.35,3.64.48,2.65-2.44,6.28-7.45,9.24l-.62.36a14.38,14.38,0,0,0,4.65.71v.68a14.23,14.23,0,0,1-5.44-1,30.361,30.361,0,0,1-13.76,3.69Zm11.87-5.5a7.89,7.89,0,0,0,1.82,1.1c.38-.2.74-.41,1.11-.62,4.68-2.77,7.54-6.2,7.12-8.52-.27-1.52-1.93-2.59-4.8-3.09-10.45-1.84-18.27-1-19.92,2.23-.8,1.55,0,3.55,2.27,5.8,2.81,2.78,7.24,3.18,11,2.65a4.618,4.618,0,0,1-.54-.84,2.91,2.91,0,0,1,.14-3.13c1-1.27,3.05-1.7,5.73-1.2q2.52.48,2.7,1.68c.11.83-.71,1.73-2.32,2.54a17.6,17.6,0,0,1-4.3,1.4Zm1.85-5.14a3.74,3.74,0,0,0-3.1,1.13,2.25,2.25,0,0,0-.07,2.42,4.491,4.491,0,0,0,.72,1,17.7,17.7,0,0,0,4.6-1.44c1.52-.76,2-1.45,1.94-1.84,0-.21-.3-.74-2.14-1.09a9.93,9.93,0,0,0-1.95-.2Z"/>
      </g>
      <g id="Group_18" data-name="Group 18">
        <g id="Group_15" data-name="Group 15">
          <path id="Path_39" data-name="Path 39" class="cls-23" d="M422,288.22H389.46a3.39,3.39,0,0,1-3.89-2.81,3.33,3.33,0,0,1,.72-2.68l16.28-28.21a3.39,3.39,0,0,1,6.34,0l16.29,28.21a3.39,3.39,0,0,1-3.17,5.49Zm-16.29-34.58a2.56,2.56,0,0,0-2.05,1.53l-16.28,28.21a2.13,2.13,0,0,0,2,3.54H422a2.13,2.13,0,0,0,2-3.54l-16.29-28.21a2.56,2.56,0,0,0-1.97-1.53Z"/>
        </g>
        <g id="Group_17" data-name="Group 17">
          <g id="Group_16" data-name="Group 16">
            <path id="Path_40" data-name="Path 40" class="cls-23" d="M403.7,279.14a2,2,0,1,1,1.93,1.93A2,2,0,0,1,403.7,279.14Zm.06-13.13h4l-.66,9.72h-2.64Z"/>
          </g>
        </g>
      </g>
    </g>
  </g>
</svg>
