<svg xmlns="http://www.w3.org/2000/svg" width="932.738" height="495.04" viewBox="0 0 932.738 495.04">
  <defs>
    <style>
      .cls-1 {
        fill: #e2ecfa;
      }

      .cls-1, .cls-10, .cls-11, .cls-2, .cls-4, .cls-5, .cls-6, .cls-7, .cls-8, .cls-9 {
        fill-rule: evenodd;
      }

      .cls-2 {
        fill: #c8d9f1;
      }

      .cls-3 {
        fill: none;
        stroke: #fff;
        stroke-linecap: round;
        stroke-linejoin: round;
        stroke-width: 2px;
      }

      .cls-4 {
        fill: #fff;
      }

      .cls-5 {
        fill: #f9ae8a;
      }

      .cls-6 {
        fill: #1c2458;
      }

      .cls-7 {
        fill: #495057;
      }

      .cls-8 {
        fill: #0e1929;
      }

      .cls-9 {
        fill: #467fcf;
      }

      .cls-10 {
        fill: #a3c4d8;
      }

      .cls-11 {
        fill: #243296;
      }
    </style>
  </defs>
  <g id="under_contruction" data-name="under contruction" transform="translate(-265.31 -271.42)">
    <path id="Path_18941" data-name="Path 18941" class="cls-1" d="M1052.64,642.64s36.3-107.44-12.44-53.26c0,0,31.58-74.57,23.91-87.26s-57.63,65.82-57.63,65.82l-17,89.94Z" transform="translate(-1 -1)"/>
    <path id="Path_18942" data-name="Path 18942" class="cls-2" d="M1173.34,739.18s-.84-41.46-42.31-36.93c0,0,3.28-27.3-19.37-47.14s-50.44-3.48-50.44-3.48,6-52.44-49.62-25-31.55,112.5-31.55,112.5Z" transform="translate(-1 -1)"/>
    <path id="Path_18943" data-name="Path 18943" class="cls-2" d="M1001.63,739.18s16.7-30.85,59.59-36.93,126.29-12.15,136.5-38.13-40.78-20.72-73.84-11.74-34.13,2.08-33.5-13.8,28.86-17.42,25.54-35.11-40.52-8.94-47.86,15.24-11.26,41.52-22.61,45.41-38.42,14.22-52,33.23-13.44,41.83-13.44,41.83Z" transform="translate(-1 -1)"/>
    <path id="Path_18944" data-name="Path 18944" class="cls-3" d="M978.1,730.7s28.1-24.83,57.4-40.52c31.52-16.87,136.16-22.07,149.35-32.3" transform="translate(-1 -1)"/>
    <path id="Path_18945" data-name="Path 18945" class="cls-3" d="M1095,606.54a72.479,72.479,0,0,0-13.5,24c-4.76,14.48-10.57,42.3-35.42,55.22" transform="translate(-1 -1)"/>
    <path id="Path_18946" data-name="Path 18946" class="cls-1" d="M274.07,739.18s-5.83-30.84,5.71-53.2S309.5,667.39,307,644.8s-2.71-65.8,52.6-74.38,29.69,168.76,29.69,168.76Z" transform="translate(-1 -1)"/>
    <path id="Path_18947" data-name="Path 18947" class="cls-2" d="M359.6,739.18s-28.17-82.08-70.09-104.94-19.83,31.35,9.71,58.7,34.69,32.31,34.69,32.31S294,696.6,272.6,709.44,309,736.77,359.6,739.18Z" transform="translate(-1 -1)"/>
    <path id="Path_18948" data-name="Path 18948" class="cls-3" d="M272.6,634.24s62.72,79.09,87,104.94" transform="translate(-1 -1)"/>
    <path id="Path_18949" data-name="Path 18949" class="cls-3" d="M278.89,715.51s59.71,17,79.46,22.32" transform="translate(-1 -1)"/>
    <path id="Path_18950" data-name="Path 18950" class="cls-4" d="M358.55,271.42V738.18H988.86l89.29-415.96Z"/>
    <path id="Path_18951" data-name="Path 18951" class="cls-2" d="M962.68,416.92a15.18,15.18,0,0,1,14,18.77C964.88,484,932.54,616.21,922.57,657a15.19,15.19,0,0,1-15.46,11.56l-213.54-10a15.17,15.17,0,0,1-14.07-18.65c11.37-48.24,42.59-180.59,52.26-221.61a15.2,15.2,0,0,1,15.5-11.68Z" transform="translate(-1 -1)"/>
    <path id="Path_18952" data-name="Path 18952" class="cls-2" d="M477.3,483.55a68.86,68.86,0,1,1-68.86,68.86,68.86,68.86,0,0,1,68.86-68.86Zm27.56-116.94a187.871,187.871,0,0,0-55.12,0L444.4,409.2a146.761,146.761,0,0,0-45.11,18.68L365.4,401.54a187.792,187.792,0,0,0-39,39l26.34,33.89a147,147,0,0,0-18.68,45.1l-42.59,5.34a187.94,187.94,0,0,0,0,55.13l42.59,5.33a146.908,146.908,0,0,0,18.68,45.11L326.4,664.33a188,188,0,0,0,39,39L399.29,677a147,147,0,0,0,45.11,18.68l5.34,42.59a187.871,187.871,0,0,0,55.12,0l5.34-42.59A146.852,146.852,0,0,0,555.3,677l33.89,26.34a187.788,187.788,0,0,0,39-39l-26.34-33.89a146.929,146.929,0,0,0,18.69-45.11L663.1,580a187.246,187.246,0,0,0,0-55.13l-42.58-5.34a147,147,0,0,0-18.69-45.1l26.34-33.89a187.549,187.549,0,0,0-39-39L555.3,427.88a146.6,146.6,0,0,0-45.1-18.68Z" transform="translate(-1 -1)"/>
    <path id="Path_18953" data-name="Path 18953" class="cls-2" d="M425.48,772.19c43.5,0,78.82,4.09,78.82,9.13s-35.32,9.14-78.82,9.14-78.83-4.1-78.83-9.14S382,772.19,425.48,772.19Z" transform="translate(-1 -24)"/>
    <path id="Path_18954" data-name="Path 18954" class="cls-5" d="M495.58,555.87C494,563.19,481.42,558,478,560.06a43.358,43.358,0,0,0-6.63,5.19L456.84,552a27.321,27.321,0,0,0,7.37-7.29c1.47-2.36,2.33-5.1,1.44-7.92-2.5-8-2-16.83,5.72-19.21s20,0,22.23,10.19c0,0,.15.89.38,2.37C494.86,535.83,496.83,550.07,495.58,555.87Z" transform="translate(-1 -1)"/>
    <path id="Path_18955" data-name="Path 18955" class="cls-6" d="M494,530.17a7.55,7.55,0,0,1-2.32,3.35c-2.67,1.69-2.19,5.3-2.4,7.49,0,0-6-1.85-7.66,0s2.06,5.79,2.06,5.79a9.64,9.64,0,0,1-7.24,3.86c-4.18.4-10.09-4.15-12.21-5.92,1.47-2.36,2.33-5.1,1.44-7.92-2.5-8-2-16.83,5.72-19.21s20,0,22.23,10.19C493.6,527.8,493.75,528.69,494,530.17Z" transform="translate(-1 -1)"/>
    <path id="Path_18956" data-name="Path 18956" class="cls-7" d="M506.16,760.1H476.42l-3.37-8.39c-2-5.07-4.47-11.16-5.76-14.44-2.48-6.25-18.53-34-22.06-46.68s-5.47-14.1-5.47-14.1l-27.52-24.77s-3.74,14.15-7.85,28.25c-1.06,3.62-2.13,7.24-3.18,10.62-4.45,14.4-22.92,46.64-29,58-.91,1.68-1.54,2.9-1.81,3.54,0,0,5.32,4.31,6.73,6.3H345.07l3.66-9.84c5.41-14.62,15.15-40.92,16.91-45.93,2.47-7,10-27,11.48-50.93s1.3-45.52,6.1-53.68,45.88,12.19,45.88,12.19,37.13,45.89,40.67,57.1,18.34,72.78,18.34,72.78a54.338,54.338,0,0,0,6.56,11.6c2,2.47,4.22,4.4,6.52,4.59a6.09,6.09,0,0,1,4.97,3.79Z" transform="translate(-1 -1)"/>
    <path id="Path_18957" data-name="Path 18957" class="cls-8" d="M527.67,776.38H497.93L494.56,768h21.62c2,2.47,4.22,4.4,6.52,4.59a6.09,6.09,0,0,1,4.97,3.79Z" transform="translate(-22 -17)"/>
    <path id="Path_18958" data-name="Path 18958" class="cls-8" d="M377.12,758.42H345.07l3.66-9.84H372.2c-.91,1.68-1.54,2.9-1.81,3.54C370.39,752.12,375.71,756.43,377.12,758.42Z" transform="translate(-1 -1)"/>
    <path id="Path_18959" data-name="Path 18959" class="cls-7" d="M412.24,651.72s-3.74,14.15-7.85,28.25c-.09-.75-1.78-15-3.18-22.81-1.44-8-6.46-15.39-11-20.73s-2.78-7.45,1.33-3.18S412.24,651.72,412.24,651.72Z" transform="translate(-1 -1)"/>
    <path id="Path_18960" data-name="Path 18960" class="cls-5" d="M399.92,502.15s4.65-4.88,8.52-6.22,10.05-10.31,0-10.93c-3.11-.47-4.95-6.2-5.75-11.63s-7.71-7.06-12.37-3.19,1.17,16.69,2.43,20.83c.79,3.66-1.62,7.45-1.62,7.45Z" transform="translate(-1 -1)"/>
    <path id="Path_18961" data-name="Path 18961" class="cls-9" d="M524.32,602.7a69.08,69.08,0,0,1-20.87,13.43c-13.41-5.91-46.61-26.76-46.61-26.76a95.517,95.517,0,0,0-10.1,11c-10,12-22.48,28.59-22.48,28.59-26-9-42.72-33.12-42.72-33.12,5.77-8.17,30.6-34.21,30.6-34.21-3.44-1-18.65-6.36-28.67-13.33h0c-5.74-4-9.78-8.51-8.9-13,2.4-12.37,18-39.29,18-39.29A44.889,44.889,0,0,1,405.35,499c-4,11-5.44,36.23-5.44,36.23,7.61,1.23,36.79,3.45,51.14,11.06s32.22,30.05,40.24,40C497.91,594.41,517.65,600.74,524.32,602.7Z" transform="translate(-1 -1)"/>
    <path id="Path_18962" data-name="Path 18962" class="cls-9" d="M456.84,589.37a95.517,95.517,0,0,0-10.1,11c.4-4.17.47-9-1-11-2.86-3.72-5.19-8.09,0-5.88a101.074,101.074,0,0,1,11.1,5.88Z" transform="translate(-1 -1)"/>
    <path id="Path_18963" data-name="Path 18963" class="cls-9" d="M421.07,552.41c-2.37,3-8.93,9.17-8.93,9.17-3.44-1-18.65-6.36-28.67-13.33.6.2,20.95,7.24,25,6.2S423.44,549.45,421.07,552.41Z" transform="translate(-1 -1)"/>
    <path id="Path_18967" data-name="Path 18967" class="cls-2" d="M894.17,344.09a6.87,6.87,0,0,0-6.31-7.37l-44.63-3.44a6.85,6.85,0,0,0-7.37,6.32h0a6.87,6.87,0,0,0,6.31,7.37l44.63,3.44a6.88,6.88,0,0,0,7.37-6.32Z" transform="translate(-1 -1)"/>
    <path id="Path_18968" data-name="Path 18968" class="cls-2" d="M989.49,351.43a6.87,6.87,0,0,0-6.31-7.37l-44.63-3.44a6.87,6.87,0,0,0-7.37,6.32h0a6.87,6.87,0,0,0,6.31,7.37l44.63,3.44a6.86,6.86,0,0,0,7.37-6.32Z" transform="translate(-1 -1)"/>
    <path id="Path_18969" data-name="Path 18969" class="cls-2" d="M861.94,748.67c43.51,0,78.83,4.09,78.83,9.14s-35.32,9.13-78.83,9.13-78.82-4.09-78.82-9.13S818.44,748.67,861.94,748.67Z" transform="translate(-1 -1)"/>
    <path id="Path_18970" data-name="Path 18970" class="cls-1" d="M966.72,577.62l-10.67,45L904.44,610.4l-7.64-1.81-5.61-1.33a87.839,87.839,0,0,0,8.1-4.07A158.055,158.055,0,0,0,894.42,584c-2.45-8-4.83-14.44-4.95-14.79h0l22.09,16.41c6.26-2.75,7.63-7.58,7.63-7.58s-1.44-5.18-6.34-13.13Z" transform="translate(-1 -1)"/>
    <path id="Path_18971" data-name="Path 18971" class="cls-10" d="M916.59,593.43c-4.21.66-17-9.66-16.71-7.16.25,2.15,3.63,19.46,4.56,24.17l-7.64-1.81-24.1-53.28-1.12-2.48s3.45,1.64,8.45,4.22c12.17,6.26,33.51,18,36.56,25C920.88,591.94,920.79,592.77,916.59,593.43Z" transform="translate(-1 -1)"/>
    <path id="Path_18972" data-name="Path 18972" class="cls-8" d="M931.33,740.11l5.49,6.77L941,758.42H907.88s7.37-4.86,11.3-6.3L916.59,744Z" transform="translate(-1 -1)"/>
    <path id="Path_18973" data-name="Path 18973" class="cls-7" d="M936.82,746.88h-27a337.568,337.568,0,0,0-23.93-50.75c-2.13-3.69-4.39-7.44-6.79-11.21-20-31.43-34-71.29-34-71.29l3.53-6.25,50.61-4.15s3.69,23.4,6.71,43c2.06,13.4,3.81,25,3.86,26.22C910,675.39,936.82,746.88,936.82,746.88Z" transform="translate(-1 -1)"/>
    <path id="Path_18974" data-name="Path 18974" class="cls-8" d="M906,646.24c-5,16.62-14.3,37.52-20.07,49.89-2.13-3.69-4.39-7.44-6.79-11.21-20-31.43-34-71.29-34-71.29l3.53-6.25,50.61-4.15S903,626.63,906,646.24Z" transform="translate(-1 -1)"/>
    <path id="Path_18975" data-name="Path 18975" class="cls-8" d="M824,740.11l-1.76,6.77-9.76,13.22h-27a36.938,36.938,0,0,1,15-6.74l5.24-9Z" transform="translate(-1 -1)"/>
    <path id="Path_18976" data-name="Path 18976" class="cls-7" d="M889.46,598l9.83,5.19s6.49,17.34-24.43,66.8c-35.46,56.73-52.65,76.85-52.65,76.85H796.64l62.27-135.27Z" transform="translate(-1 -1)"/>
    <path id="Path_18977" data-name="Path 18977" class="cls-5" d="M916.61,578s5.69,2.38,6.61,7.58-5.26,4.33-8.37,1.75c0,0-2.36,3.9-4.61-4S916.61,578,916.61,578Z" transform="translate(-1 -1)"/>
    <path id="Path_18978" data-name="Path 18978" class="cls-9" d="M919.18,578s-1.37,4.83-7.63,7.58l-22.09-16.41h0c.12.35,2.5,6.83,4.95,14.79a158.055,158.055,0,0,1,4.87,19.26,87.839,87.839,0,0,1-8.1,4.07c-10.53,4.72-29.52,11.24-46,6.33l-2.52-17.83-7-49.22h0L824,543.8s.71-10.66,25.34-16.35h5.43s25.47.65,42.94,18.36a107.241,107.241,0,0,1,15.16,19.05C917.74,572.81,919.18,578,919.18,578Z" transform="translate(-1 -1)"/>
    <path id="Path_18979" data-name="Path 18979" class="cls-11" d="M894.42,584a10.72,10.72,0,0,1-2.89-2.13c-1.8-2.09-11-13.22-18.38-21.38s-15.12-16-7-11.28,23.28,20,23.28,20h0C889.59,569.53,892,576,894.42,584Z" transform="translate(-1 -1)"/>
    <path id="Path_18980" data-name="Path 18980" class="cls-11" d="M835.66,546.57,824,543.8C832.12,538.16,835.66,546.57,835.66,546.57Z" transform="translate(-1 -1)"/>
    <path id="Path_18981" data-name="Path 18981" class="cls-1" d="M841.62,594.79l-3.88-.92-27.89-6.61-18.32-4.33-76.2-18.05L726,519.83l96.97,22.97,4.94,1.18,2.19.52,4.56,1.07Z"/>
    <path id="Path_18982" data-name="Path 18982" class="cls-10" d="M810.85,588.26l-18.32-4.33c3.93-4.1,16-17.83,16-17.83h1c.09-1.78.48-4.63,2-4.4,0,0,3.27-6.23,7.42-1.87,2.19,2.31,1.83,5.75.69,8.6,1.22.44,2,.77,2,.77S821.71,582.66,810.85,588.26Z" transform="translate(-1 -1)"/>
    <path id="Path_18983" data-name="Path 18983" class="cls-10" d="M842.62,595.79l-3.88-.92c-1.25-11.16-4.07-36.22-4.8-42.68a8.229,8.229,0,0,0-.89-2.93c-.53-1-1.27-2.46-1.95-3.76l4.56,1.07Z" transform="translate(-1 -1)"/>
    <path id="Path_18984" data-name="Path 18984" class="cls-5" d="M852.78,521.39a13.231,13.231,0,0,0,2,6.06,24.7,24.7,0,0,1-8.75,7.13c-5.3,2.4-7.46-2.7-7.46-2.7v-5.39s-10-.58-11.69-9.79c-1.61-8.86,5.15-16.12,5.66-16.65h0c4.79-7.8,17.36-6.23,21-1.69,3.85,4.84,2.34,8.67,0,16.4a17.4,17.4,0,0,0-.76,6.63Z" transform="translate(-1 -1)"/>
    <path id="Path_18985" data-name="Path 18985" class="cls-5" d="M806.93,565.44s-.16-6.08,2-5.76c0,0,3.28-6.22,7.43-1.86s-.85,12.77-3,13.6S806.93,565.44,806.93,565.44Z" transform="translate(-1 -1)"/>
    <path id="Path_18986" data-name="Path 18986" class="cls-9" d="M788.76,583s7.83,8.89,19.13,3.41S819,567.18,819,567.18s-7.2-3.18-13-3.12C806,564.06,789.07,583.33,788.76,583Z" transform="translate(-1 -1)"/>
    <path id="Path_18987" data-name="Path 18987" class="cls-1" d="M683.82,514.7l12.95-14.17,31.9,7a13.34,13.34,0,0,1,9.84,9l9.87,31.14-22,24.12a13.34,13.34,0,0,1-12.71,4l-31.9-7L675.3,548.5l33,7.25,13.57-14.85-6.08-19.17Z" transform="translate(-1 -1)"/>
    <path id="Path_18988" data-name="Path 18988" class="cls-1" d="M1013.47,591.62l-5.46-18.4-31.77-7.6a13.35,13.35,0,0,0-12.78,3.79c-8.05,8.51-22.47,23.72-22.47,23.72l9.31,31.32a13.32,13.32,0,0,0,9.67,9.16l31.77,7.6,14.66-15.46-32.84-7.86-5.72-19.28L981.67,584Z" transform="translate(-1 -1)"/>
    <path id="Path_18989" data-name="Path 18989" class="cls-6" d="M853.5,514.73a17.4,17.4,0,0,0-.72,6.66c-4.67.94-7.24-4.06-7.24-4.06s2.11-1.51,2.4-2.87c.6-2.72-1.39-4.61-3.75-3.79s-4.38.18-4.28-2.25-.08-5-3.63-5.89a7.21,7.21,0,0,1-3.78-2.48h0c4.79-7.8,17.36-6.23,21-1.69C857.35,503.17,855.84,507,853.5,514.73Z" transform="translate(-1 -1)"/>
  </g>
</svg>
