<svg id="Layer_3" data-name="Layer 3" xmlns="http://www.w3.org/2000/svg" viewBox="0 0 881.27 514.22"><defs><style>.cls-1{fill:#e4efff;}.cls-2{fill:#b0bfde;}.cls-3{fill:#d1dbea;}.cls-4{fill:#fff;}.cls-5{fill:#b5d1de;}.cls-6{fill:#7dccd0;}.cls-7{fill:#d8e5ed;}.cls-8{fill:#c8d9f1;}.cls-9{fill:#e9d6b8;}.cls-10{fill:#163f59;}.cls-11{fill:#161711;}.cls-12{fill:#e2c59c;}.cls-13{fill:#194866;}.cls-14{fill:#0c1153;}.cls-15{fill:#467fcf;}.cls-16{fill:#f0ca67;}.cls-17{fill:#e5e8ec;}.cls-18{fill:#f4da80;}.cls-19{fill:#73bbbf;}.cls-20{fill:#15100c;}.cls-21{fill:#339cb6;}.cls-22{fill:#ffab01;}.cls-23{fill:#3bb6d5;}.cls-24{fill:#cdd5d7;}.cls-25{fill:#b7bec0;}.cls-26{fill:#ea1c24;}</style></defs><title>sms_activate_disabled</title><polygon class="cls-1" points="785.56 239.71 785.55 282.02 822.23 245.36 785.56 239.71"/><path class="cls-1" d="M915.53,310.35a5.44,5.44,0,0,1-5.44,5.43l-150.06,0a5.43,5.43,0,0,1-5.44-5.43l0-105a5.43,5.43,0,0,1,5.43-5.43l150.07,0a5.43,5.43,0,0,1,5.43,5.43Z" transform="translate(-51.46 -51.9)"/><path class="cls-2" d="M785.15,217.56a8.28,8.28,0,1,1-8.28-8.28A8.29,8.29,0,0,1,785.15,217.56Z" transform="translate(-51.46 -51.9)"/><rect class="cls-3" x="740.93" y="168" width="85.38" height="3.62"/><rect class="cls-2" x="740.93" y="159.71" width="48.13" height="3.62"/><rect class="cls-2" x="717.57" y="182.11" width="133.57" height="68.25"/><polygon class="cls-4" points="791.02 216.24 782.64 221.07 774.25 225.92 774.25 216.23 774.25 206.55 782.64 211.39 791.02 216.24"/><path class="cls-1" d="M475.85,562c-130.91,5.67-245.61,4.93-320.93,1.13-76-3.91-112.51-10.88-101.55-20.06s66.53-19.62,141-30.53C269.25,501.76,363.07,490.41,463,481.7c194.67-17.72,377.12-15.14,422,9.86C930.14,516.39,743.38,551.24,475.85,562Z" transform="translate(-51.46 -51.9)"/><path class="cls-2" d="M771.65,492.54s29.19-8.54,21.13-25.12c-7.55-15.52-22.84,5.14-24,11.42s16-16.56,6.28-20.55-29.11,13.13-28,20,20-16.56,6.85-24.55-17.69,9.14-17.12,18.27,7.42-19.41-1.72-20.55-11.41,18.27-9.7,21.69S735.12,446.3,718,448s-9.13,18.27-6.85,21.7,0-24-17.13-15.42-7.42,34.82,7.43,35.39S771.65,492.54,771.65,492.54Z" transform="translate(-51.46 -51.9)"/><rect class="cls-1" x="120.68" y="133.67" width="128.28" height="19.16" rx="9.16"/><rect class="cls-1" x="150.67" y="164.9" width="110.79" height="41.65" rx="9.16"/><rect class="cls-5" x="129.8" y="140.76" width="36.7" height="4.98"/><rect class="cls-3" x="170.62" y="140.76" width="73.35" height="4.98"/><path class="cls-2" d="M143.6,195.16a10,10,0,1,0,10.05-10A10.05,10.05,0,0,0,143.6,195.16Z" transform="translate(-51.46 -51.9)"/><rect class="cls-5" x="159.79" y="172.42" width="40.86" height="4.98"/><rect class="cls-3" x="206.48" y="172.42" width="39.98" height="4.98"/><rect class="cls-3" x="159.79" y="183.24" width="76.68" height="4.98"/><rect class="cls-3" x="159.79" y="194.07" width="57.52" height="4.99"/><path class="cls-6" d="M173.59,226.81a10,10,0,1,0,10-10.05A10,10,0,0,0,173.59,226.81Z" transform="translate(-51.46 -51.9)"/><rect class="cls-7" x="162.59" y="213.59" width="7.35" height="4.98"/><rect class="cls-7" x="173.9" y="213.59" width="7.35" height="4.98"/><rect class="cls-1" x="150.67" y="229.87" width="110.79" height="31.65" rx="9.16"/><rect class="cls-5" x="159.79" y="237.39" width="61.68" height="4.98"/><rect class="cls-3" x="227.31" y="237.39" width="19.16" height="4.98"/><rect class="cls-3" x="159.79" y="248.21" width="43.36" height="4.98"/><path class="cls-2" d="M173.59,291.78a10,10,0,1,0,10-10A10,10,0,0,0,173.59,291.78Z" transform="translate(-51.46 -51.9)"/><rect class="cls-7" x="162.59" y="268.56" width="7.35" height="4.98"/><rect class="cls-7" x="173.9" y="268.56" width="7.35" height="4.98"/><path class="cls-3" d="M811.22,509.56c-19.77-.12-37.11-2.3-48.51-4.94s-17.06-5.82-15.45-9,10-6,21.16-8.75a314.93,314.93,0,0,1,40.47-6.73c29.34-3.2,56.93.78,63.83,10.62S851.6,510.11,811.22,509.56Z" transform="translate(-51.46 -51.9)"/><path class="cls-3" d="M337,291.29s4.49-4.13,5.24-9.84c.27-2.07-1-5.87-3.15-6.15s-4.24,2.13-4.63,5.14C333.68,286.15,337,291.29,337,291.29Z" transform="translate(-51.46 -51.9)"/><path class="cls-3" d="M335,300.71s0-5.33-3.22-9.1c-1.18-1.37-4.39-2.7-5.85-1.45s-1.16,4,.55,6C329.75,299.93,335,300.71,335,300.71Z" transform="translate(-51.46 -51.9)"/><path class="cls-3" d="M335,311.94s-2.16-4.88-6.66-7c-1.63-.76-5.11-.67-5.93,1.07s.59,4.14,3,5.26C329.81,313.38,335,311.94,335,311.94Z" transform="translate(-51.46 -51.9)"/><path class="cls-3" d="M335.14,301a17.35,17.35,0,0,0,9.28-1.76c1.59-.85,3.72-3.46,3-4.85s-3.37-1.42-5.67-.18A17.39,17.39,0,0,0,335.14,301Z" transform="translate(-51.46 -51.9)"/><path class="cls-3" d="M334.23,311.92a16.8,16.8,0,0,0,9.36-1.62c1.58-.86,3.67-3.53,2.88-5s-3.45-1.56-5.76-.32A16.74,16.74,0,0,0,334.23,311.92Z" transform="translate(-51.46 -51.9)"/><path class="cls-3" d="M335.74,327s4.15,1.2,7.48-.6c1.21-.66,2.66-3,1.87-4.45s-3-1.82-4.74-.87C337,322.83,335.74,327,335.74,327Z" transform="translate(-51.46 -51.9)"/><path class="cls-3" d="M335.14,327a13.42,13.42,0,0,0-4.69-6.14c-1.21-.82-3.94-1.29-4.7-.13s.15,3.11,1.92,4.29A13.47,13.47,0,0,0,335.14,327Z" transform="translate(-51.46 -51.9)"/><path class="cls-3" d="M326.44,387.63l-.08,0,.18-.87c.09,0,2.37.41,4.87-2,2.79-2.66,4.69-7.59,5.64-14.66,1.31-9.68.77-23.13-1.61-40-2.76-19.54-.64-30.09.76-37.07.36-1.79.68-3.33.81-4.66l.89.09c-.14,1.37-.46,2.94-.82,4.75-1.39,6.92-3.49,17.37-.76,36.77,5.29,37.46.56,50.82-4.33,55.44A6.89,6.89,0,0,1,326.44,387.63Z" transform="translate(-51.46 -51.9)"/><path class="cls-3" d="M705.5,372.05l25.21.15a261.51,261.51,0,0,0,14.13-56,213.09,213.09,0,0,0-53-10c-90.14-5.26-161.72,118.24-95.49,216.53,36.88-12,76.8-45.81,107.43-95.34a312,312,0,0,0,20.56-39.23Z" transform="translate(-51.46 -51.9)"/><path class="cls-4" d="M595.56,522.75c-.86-37.07,6.44-71,21.71-100.95,12.21-23.94,29.51-45.35,51.42-63.64C706,327,744.25,315.6,744.63,315.48l.42,1.44c-.38.11-38.4,11.48-75.45,42.42-21.74,18.16-38.91,39.41-51,63.17-15.14,29.69-22.38,63.4-21.53,100.2Z" transform="translate(-51.46 -51.9)"/><rect class="cls-4" x="687.61" y="321.44" width="30.05" height="1.49" transform="matrix(0.15, -0.99, 0.99, 0.15, 226.98, 916.48)"/><rect class="cls-4" x="649.45" y="330.76" width="48.77" height="1.49" transform="translate(255.65 934.94) rotate(-86.96)"/><rect class="cls-4" x="646.3" y="315.19" width="1.49" height="63.6" transform="translate(-60.51 -34.48) rotate(-1.53)"/><rect class="cls-4" x="621.52" y="334.42" width="1.49" height="69.91" transform="translate(-109.29 70.24) rotate(-10.72)"/><rect class="cls-4" x="604.06" y="359.19" width="1.49" height="69.3" transform="translate(-142.15 149.1) rotate(-17.57)"/><rect class="cls-4" x="589.63" y="394.38" width="1.49" height="68.31" transform="translate(-170.96 208.5) rotate(-22.65)"/><rect class="cls-4" x="583.31" y="434.78" width="1.49" height="61.33" transform="translate(-196.53 251.87) rotate(-26.05)"/><rect class="cls-4" x="718.86" y="322.11" width="1.49" height="39.12" transform="translate(133.67 880.45) rotate(-73.26)"/><rect class="cls-4" x="701.39" y="332.32" width="1.49" height="60.72" transform="translate(139.56 913.52) rotate(-77.02)"/><rect class="cls-4" x="682.35" y="352.76" width="1.49" height="73.64" transform="translate(58.8 876.42) rotate(-72.94)"/><rect class="cls-4" x="664.59" y="378.18" width="1.49" height="77.92" transform="translate(-6.95 846.14) rotate(-69.85)"/><rect class="cls-4" x="649.12" y="403.59" width="1.49" height="74.68" transform="translate(-54.7 825.14) rotate(-67.89)"/><rect class="cls-4" x="631.61" y="439.91" width="1.49" height="61.38" transform="translate(-78.23 851.01) rotate(-69.92)"/><rect class="cls-4" x="615.28" y="478.72" width="1.49" height="38.25" transform="translate(-73.01 915.86) rotate(-75.33)"/><path class="cls-3" d="M351.69,435.16a108.9,108.9,0,0,1,54.48,85.75,108.66,108.66,0,0,1-156-89A108.93,108.93,0,0,1,351.69,435.16Z" transform="translate(-51.46 -51.9)"/><rect class="cls-4" x="330.75" y="398.43" width="1.76" height="158.65" transform="translate(-299.13 477.23) rotate(-60.3)"/><rect class="cls-4" x="264.9" y="458.42" width="26.92" height="1.76" transform="translate(-188.29 66.72) rotate(-19.41)"/><rect class="cls-4" x="282.31" y="472.86" width="33.19" height="1.76" transform="translate(-191.85 74.29) rotate(-19.4)"/><rect class="cls-4" x="284.15" y="489.97" width="55.47" height="1.76" transform="translate(-196.8 79.57) rotate(-19.4)"/><rect class="cls-4" x="309.11" y="503.12" width="53.97" height="1.76" transform="translate(-199.84 88.42) rotate(-19.41)"/><rect class="cls-4" x="355.85" y="512.55" width="30.05" height="1.76" transform="translate(-201 100.52) rotate(-19.41)"/><rect class="cls-4" x="284.96" y="426.13" width="1.76" height="26.92" transform="translate(-131.33 11.93) rotate(-11.19)"/><rect class="cls-4" x="307" y="424.63" width="1.76" height="41.98" transform="translate(-132.07 16.3) rotate(-11.19)"/><rect class="cls-4" x="329.47" y="427.56" width="1.76" height="52.55" transform="translate(-133.27 20.86) rotate(-11.19)"/><rect class="cls-4" x="352.83" y="439.55" width="1.76" height="53.97" transform="translate(-135.26 25.6) rotate(-11.19)"/><rect class="cls-4" x="377.07" y="460.48" width="1.76" height="46.36" transform="translate(-138.17 30.67) rotate(-11.19)"/><path class="cls-2" d="M329.05,512.26a201.23,201.23,0,0,0-50.76-87.61c-18.09-18.22-33.65-26.64-33.8-26.72l-.75,1.39c.15.08,15.54,8.42,33.47,26.49a199.6,199.6,0,0,1,50.31,86.88Z" transform="translate(-51.46 -51.9)"/><path class="cls-2" d="M246.08,399.49a16.91,16.91,0,0,0-6.87-6.76c-1.65-.81-5.09-1-5.83.58s.74,3.78,3.13,4.95A17,17,0,0,0,246.08,399.49Z" transform="translate(-51.46 -51.9)"/><path class="cls-2" d="M253.23,404.55a16,16,0,0,0-8.6-1.41c-1.65.24-4.32,1.84-4.1,3.29s2.48,2.31,4.87,2A15.92,15.92,0,0,0,253.23,404.55Z" transform="translate(-51.46 -51.9)"/><path class="cls-2" d="M264.58,414.18a12,12,0,0,0-7.55-.5c-1.34.44-3.27,2.36-2.8,3.82s2.55,2.1,4.5,1.47A12,12,0,0,0,264.58,414.18Z" transform="translate(-51.46 -51.9)"/><path class="cls-2" d="M252.5,404.65a12,12,0,0,0,3.24-6.79c.09-1.4-1-3.89-2.5-4s-2.88,1.59-3,3.62A12,12,0,0,0,252.5,404.65Z" transform="translate(-51.46 -51.9)"/><path class="cls-2" d="M313.84,474.72a14.17,14.17,0,0,0,5.84-5.55c.71-1.35.92-4.22-.34-4.88s-3.19.51-4.22,2.48A14.1,14.1,0,0,0,313.84,474.72Z" transform="translate(-51.46 -51.9)"/><path class="cls-2" d="M265.15,413.44a15.91,15.91,0,0,0,3.45-8.33c.11-1.71-1-4.74-2.56-4.85s-3,2-3.17,4.45A15.83,15.83,0,0,0,265.15,413.44Z" transform="translate(-51.46 -51.9)"/><path class="cls-2" d="M277.17,423.82s3.62-3.1,3.9-7.22c.1-1.49-1.24-4.17-3.11-4.3s-3.52,1.67-3.67,3.84C274,420.25,277.17,423.82,277.17,423.82Z" transform="translate(-51.46 -51.9)"/><path class="cls-2" d="M276.14,424.48s-3.88-2.65-8.06-2c-1.52.24-3.93,2.05-3.66,3.8s2.41,2.88,4.62,2.54C273.23,428.16,276.14,424.48,276.14,424.48Z" transform="translate(-51.46 -51.9)"/><path class="cls-2" d="M313.73,475.49a12.76,12.76,0,0,0-6.51-4.71c-1.58-.5-4.94-.36-5.71.88s.63,2.86,2.93,3.58A20.4,20.4,0,0,0,313.73,475.49Z" transform="translate(-51.46 -51.9)"/><path class="cls-2" d="M296.85,447.38a10.77,10.77,0,0,0-6.7.37c-1.37.5-3.81,2.3-3.9,3.47s1.59,1.49,3.58.76A22.34,22.34,0,0,0,296.85,447.38Z" transform="translate(-51.46 -51.9)"/><path class="cls-2" d="M288.3,435.8a9.22,9.22,0,0,0,1.79-5.81c0-1.31-.94-3.88-2-4.27s-1.9.95-1.86,2.85A18.29,18.29,0,0,0,288.3,435.8Z" transform="translate(-51.46 -51.9)"/><path class="cls-2" d="M306,462s-2.91-4-6.33-5.4c-1.24-.49-3.33,0-3.25,1.59s1.71,3.56,3.51,4.28A6.77,6.77,0,0,0,306,462Z" transform="translate(-51.46 -51.9)"/><path class="cls-2" d="M296.9,448.06s4.23-4,5.65-8.47c.52-1.63,0-4.26-1.65-4.06s-3.72,2.42-4.48,4.78A10.19,10.19,0,0,0,296.9,448.06Z" transform="translate(-51.46 -51.9)"/><path class="cls-2" d="M306.89,462.23s4-3.79,5.13-7.89c.41-1.48-.26-3.83-1.95-3.57s-3.6,2.36-4.19,4.52A8.35,8.35,0,0,0,306.89,462.23Z" transform="translate(-51.46 -51.9)"/><path class="cls-2" d="M222.85,442.59a14.19,14.19,0,0,0,5.84-5.54c.71-1.36.92-4.22-.34-4.89s-3.19.52-4.22,2.48A14.11,14.11,0,0,0,222.85,442.59Z" transform="translate(-51.46 -51.9)"/><path class="cls-2" d="M320,488.53a10.74,10.74,0,0,0-5.93-3.13c-1.44-.27-4.47.05-5.15,1s.59,2.11,2.68,2.51A22.09,22.09,0,0,0,320,488.53Z" transform="translate(-51.46 -51.9)"/><path class="cls-2" d="M272.57,445.45s-3.93-2.45-7.59-2.6c-1.33-.06-3.19.89-2.66,2.18s2.65,2.4,4.57,2.48A7.55,7.55,0,0,0,272.57,445.45Z" transform="translate(-51.46 -51.9)"/><path class="cls-2" d="M288.54,436.88a16.18,16.18,0,0,0-8.23-2.1c-1.78,0-5.18,1-5.56,2.18s1.57,2.15,4.16,2.13A26.3,26.3,0,0,0,288.54,436.88Z" transform="translate(-51.46 -51.9)"/><path class="cls-2" d="M352.48,521.46c-2,.92-19.62,4.71-23.55,17.12-3.11,9.84-7.73,7.33-10.71,3.82s-4.24-8.17-8.92-4.76c-15.44,11.23-34.43,9.86-28.07-1.46,3.44-6.12-4.52-9.35-8.49-6.6-8.43,5.84-16.77,5.95-15.2-1.52s-.45-11.9-4.83-10.74-10.72,7.39-14.09-.66c-1.33-3.17,3-10.65,9.92-12.52,3.91-1.07,16.79-1,9.93-8.67-7.07-7.9,1.24-10.3,6.42-7.61,1.92,1,20.51,8.88,18.32,2.59-2.58-7.42,3.69-10.15,11.57-3.92,3.57,2.84,9.47,11.35,11.66,8.09s12.06-9,14.63-2.49C328.34,510.6,348.41,523.37,352.48,521.46Z" transform="translate(-51.46 -51.9)"/><path class="cls-3" d="M352.41,522.42c-7.8,0-15.37-2.27-25-5.14-7.24-2.16-15.44-4.62-25.91-6.83-31.64-6.67-58,2.55-58.23,2.65l-.68-1.89c.27-.09,27.11-9.51,59.32-2.71,10.55,2.22,18.8,4.69,26.07,6.87,15.55,4.65,24.94,7.45,38.58,2.33l.7,1.88A41.58,41.58,0,0,1,352.41,522.42Z" transform="translate(-51.46 -51.9)"/><path class="cls-3" d="M266.28,523.8l-1.71-1c.34-.56,8.48-13.91,19.39-17.07l.56,1.92C274.36,510.55,266.36,523.66,266.28,523.8Z" transform="translate(-51.46 -51.9)"/><path class="cls-3" d="M286.58,507.85c-14.14-3.7-24.42-15-24.85-15.46l1.49-1.34c.1.11,10.32,11.32,23.87,14.86Z" transform="translate(-51.46 -51.9)"/><path class="cls-3" d="M288.48,538.3l-.78-1.84.39.92-.4-.91c.07,0,7.13-3.3,25.32-24.4l1.52,1.31C295.87,535,288.78,538.18,288.48,538.3Z" transform="translate(-51.46 -51.9)"/><path class="cls-3" d="M303.67,510.91c-4.73-3.55-17.13-23.21-17.65-24.05l1.69-1.07c.13.21,12.72,20.19,17.16,23.52Z" transform="translate(-51.46 -51.9)"/><path class="cls-3" d="M332.37,518.52c-11.19-5.84-19.56-23.21-19.91-23.95l1.81-.86c.08.17,8.43,17.51,19,23Z" transform="translate(-51.46 -51.9)"/><path class="cls-3" d="M665.34,525a82,82,0,0,1-75-14.9,81.8,81.8,0,0,1,129.56-38.73A82,82,0,0,1,665.34,525Z" transform="translate(-51.46 -51.9)"/><rect class="cls-4" x="592.86" y="491.28" width="119.43" height="1.33" transform="translate(-164.94 155.39) rotate(-16.63)"/><rect class="cls-4" x="680.18" y="471.86" width="20.27" height="1.33" transform="translate(-75.35 856.18) rotate(-65.77)"/><rect class="cls-4" x="659.28" y="475.54" width="24.98" height="1.33" transform="translate(-89.93 840.96) rotate(-65.73)"/><rect class="cls-4" x="634.82" y="473.72" width="41.76" height="1.33" transform="translate(-97.49 825.68) rotate(-65.77)"/><rect class="cls-4" x="615.64" y="480.07" width="40.63" height="1.33" transform="translate(-115.18 810.93) rotate(-65.73)"/><rect class="cls-4" x="601.44" y="494.11" width="22.62" height="1.33" transform="translate(-141.38 798.58) rotate(-65.77)"/><rect class="cls-4" x="696.49" y="476.71" width="1.33" height="20.27" transform="translate(-139.32 761.72) rotate(-57.53)"/><rect class="cls-4" x="681.76" y="479.91" width="1.33" height="31.6" transform="translate(-153.64 753.37) rotate(-57.53)"/><rect class="cls-4" x="665.6" y="483.9" width="1.33" height="39.56" transform="translate(-167.82 743.5) rotate(-57.53)"/><rect class="cls-4" x="646.55" y="489.48" width="1.33" height="40.63" transform="translate(-181.82 730.22) rotate(-57.53)"/><rect class="cls-4" x="624.62" y="496.64" width="1.33" height="34.9" transform="translate(-195.58 713.77) rotate(-57.53)"/><rect class="cls-8" x="342.01" y="157.9" width="293.95" height="159.01" rx="19.34"/><polygon class="cls-8" points="590.38 265.07 590.38 182.78 672.66 182.78 590.38 265.07"/><rect class="cls-4" x="386.66" y="202.17" width="201.32" height="6.84"/><rect class="cls-4" x="386.66" y="224.67" width="58.83" height="6.84"/><rect class="cls-4" x="460.15" y="224.67" width="100.82" height="6.84"/><rect class="cls-4" x="386.66" y="247.17" width="127.82" height="6.84"/><rect class="cls-4" x="529.48" y="247.17" width="58.5" height="6.84"/><rect class="cls-4" x="386.66" y="269.67" width="87.32" height="6.84"/><path class="cls-9" d="M468.52,160.21l1.57-3.91a14.56,14.56,0,0,0,1.05-4.25c.22-2.42-1.37-3.82-3.65-4.47a6.32,6.32,0,0,0-3.5-.21s-1.88,2.38-.41,4.4,1.8,8,2.82,7.92A4.35,4.35,0,0,1,468.52,160.21Z" transform="translate(-51.46 -51.9)"/><polygon class="cls-9" points="411.71 96.46 412.93 91.92 414.25 87.75 415.03 88.36 414.5 91.45 416.02 96.52 414.58 96.5 411.71 96.46"/><polygon class="cls-9" points="416.06 92.06 418.26 88.88 419.17 89.26 417.57 92.79 417.23 96.92 414.58 96.5 416.06 92.06"/><polygon class="cls-9" points="420.47 90.33 418.56 92.76 417.06 94.2 416.7 96.45 418.68 97.47 418.99 95.03 420.97 91.4 420.47 90.33"/><polygon class="cls-9" points="422.44 92.72 418.3 96.47 418.15 98.09 419.46 98.86 420.7 96.5 422.51 93.7 422.44 92.72"/><polygon class="cls-9" points="465.23 138.56 467.57 155.83 456.62 158.66 450.79 158.83 462.1 153.18 459.13 138.47 465.23 138.56"/><path class="cls-10" d="M522.14,105.85s-21.94,40.82-21.94,43.59,9.86,43.19,9.86,43.19l8.46,1.06s-5.19-35.61-4.27-39.25c1.2-4.79,29-37.87,24.72-48S522.14,105.85,522.14,105.85Z" transform="translate(-51.46 -51.9)"/><path class="cls-11" d="M519.21,210.56l-2.29.18-1.24-1.6L506,212l-6.18.48a4.87,4.87,0,0,1,.84-1.27c1.13-.92,5.61-2.62,5.61-2.62s-.09,1.42.62,1.6,7.42-1.68,9-2.3c2.73-1.06,3.36-1.92,3.53-1.77C519.83,206.54,519.21,210.56,519.21,210.56Z" transform="translate(-51.46 -51.9)"/><path class="cls-12" d="M461.86,133.49s-.5-.46-.88-.09a9.44,9.44,0,0,0-1.48,2.81c-.23.65-.81,3.91-.81,3.91a3.83,3.83,0,0,0,1.18-2.1A16.83,16.83,0,0,1,461.86,133.49Z" transform="translate(-51.46 -51.9)"/><path class="cls-12" d="M461.67,133.9c-.86.91-1,2.35-.76,4.08a2.85,2.85,0,0,1-.53,2.4,20.28,20.28,0,0,1-.35-3.64,6.23,6.23,0,0,1,.23-2.2C461,132.49,463.87,131.56,461.67,133.9Z" transform="translate(-51.46 -51.9)"/><path class="cls-9" d="M488.06,106c-2.08,6.63-19.34,20.49-19.34,20.49s-7.86,3.36,11.42-18.86C485.93,100.93,488.57,104.35,488.06,106Z" transform="translate(-51.46 -51.9)"/><path class="cls-9" d="M461.29,135.21l-.41-.47.29-2.14a24.39,24.39,0,0,1,3.23-4.3c1.21-1,4.17-6.15,4.7-6.66s3.8.52,3.8.52-4.25,4.47-5.79,6.38-2.78,5.4-3.36,6.18a23.08,23.08,0,0,0-1.4,2s-.64-.62.78-2.78c.38-.57-.46-.68-.46-.68Z" transform="translate(-51.46 -51.9)"/><path class="cls-9" d="M461.93,132.59a6.48,6.48,0,0,0-1.12,2.63c0,.69.59,4,.59,4a3.89,3.89,0,0,0,.38-2.38A13.24,13.24,0,0,1,461.93,132.59Z" transform="translate(-51.46 -51.9)"/><path class="cls-2" d="M472.9,113.85l6.91-9.65s8.08-24.76,11.07-26c3.56-1.51,9.63-1.79,9.63-1.79l-10.29,29.84-6.2,12Z" transform="translate(-51.46 -51.9)"/><polygon class="cls-9" points="504.19 144.92 508.84 163.29 497.89 166.12 492.06 166.29 503.37 160.65 497.48 143.86 504.19 144.92"/><path class="cls-11" d="M560.48,218l-2.29.18L557,216.61l-8.79,2.47-7.47.35a1.4,1.4,0,0,1,.31-.84c1.11-1,6.58-2.6,6.58-2.6s-.22,1.67.49,1.86,7.46-1.86,9-2.48c2.74-1.06,3.37-1.91,3.54-1.76C561.1,214,560.48,218,560.48,218Z" transform="translate(-51.46 -51.9)"/><path class="cls-13" d="M544.39,106.64c4.58,12.29-3,52-3,52s6.14,11.2,7.8,16.92c2.88,9.91,8.3,22.66,8.3,22.66l-9.15.38s-20.33-36-21.16-40.79-4.67-45.15.75-54.83S542.57,101.74,544.39,106.64Z" transform="translate(-51.46 -51.9)"/><path class="cls-10" d="M487.56,73.62a12.18,12.18,0,1,0-.79-17A12.06,12.06,0,0,0,487.56,73.62Z" transform="translate(-51.46 -51.9)"/><path class="cls-10" d="M499.82,84.76A12.72,12.72,0,1,0,499,67,12.59,12.59,0,0,0,499.82,84.76Z" transform="translate(-51.46 -51.9)"/><path class="cls-10" d="M474.6,74.79a9.17,9.17,0,0,0,12.93-.74l-1.72-4.61a9.16,9.16,0,0,0-.73-12.93l-2.57-2.28a9.16,9.16,0,0,0-12.93.73l-1.52,1.71a9.16,9.16,0,0,0,.73,12.93Z" transform="translate(-51.46 -51.9)"/><path class="cls-9" d="M467,63.09a20.73,20.73,0,0,0,2.07,1.56c5,3.22,10.72,3.52,13.73,1A28,28,0,0,0,489,69.38c2.21,1,5.85.6,5.85.6,3.5,2.24-1.3,16.69-1.57,16s-1.6-6.48-4.16-10.28a9.06,9.06,0,0,0-6.46-3.88,7.53,7.53,0,0,0-5.45,2.31,1,1,0,0,1-.77.35,6.6,6.6,0,0,1-1.62-1l-5.63-5A6.48,6.48,0,0,1,467,63.09Z" transform="translate(-51.46 -51.9)"/><path class="cls-6" d="M526.68,120.22s-9.58,1.94-11.81,0c-2.92-2.53-1.23-8.57-5.87-14.31s-6.51-7.23-8.46-8.43-4.63-2.18-5.54-4.94-2.5-7.24-2.15-8.13a11.16,11.16,0,0,0,1-4.76C493.84,78.73,526.68,120.22,526.68,120.22Z" transform="translate(-51.46 -51.9)"/><path class="cls-3" d="M527.42,123.94s-10.93-14-16.59-21S495.25,82,493.9,80.31a26.36,26.36,0,0,1-2.63-4.48s-.85-4.13,1.55-6,3.75-2,13.6.69c18,4.84,41,33,39.87,37.57a44.79,44.79,0,0,1-5.07,1.15S528.77,114.73,527.42,123.94Z" transform="translate(-51.46 -51.9)"/><polygon class="cls-2" points="440.39 16.51 439.87 19.49 439.31 23.9 442.68 25.96 442.65 16.76 440.39 16.51"/><path class="cls-9" d="M490.58,130c-2.24,5.17-5.55,6.37-7.16,8.09a43,43,0,0,1-3.59,3.31c2.5-.28,3.28-1.92,4.29-2.48s.59-.48-.08,1.42c-.38,1.08-2.85,2.19-4.35,3.11A4.73,4.73,0,0,0,478,145a23.52,23.52,0,0,0,4.37-1.71,28.51,28.51,0,0,0,5.49-3.8c.87-.93,2.47-4.34,3.23-6.94C492,129.57,492.18,126.27,490.58,130Z" transform="translate(-51.46 -51.9)"/><path class="cls-9" d="M503.92,98.69s-2.09-.76-6.47,10.25-8.36,28.17-8.36,28.17l12.28-24.54S505.66,103,503.92,98.69Z" transform="translate(-51.46 -51.9)"/><path class="cls-2" d="M496.37,105s4.14-10.24,9.54-7.65c3.07,1.47,3.37,4.22,2.07,7.3-2.43,5.71-5.47,12.09-5.47,12.09l-9.77.06Z" transform="translate(-51.46 -51.9)"/><path class="cls-2" d="M497.8,99l-2.41-23.73s.72-3,3-3.48c3.26-.68,5,.09,5.82,1.86,1.71,3.49,1.44,1.56,3.1,15.21,1.52,12.48,2.29,17.61-3.56,18.6C498.27,108.43,497.8,99,497.8,99Z" transform="translate(-51.46 -51.9)"/><path class="cls-12" d="M486.3,140.62a33.71,33.71,0,0,1-3.63,3.84c-.56.31-3.42,1.31-3.42,1.31a6,6,0,0,1,2.06-1.8A49.17,49.17,0,0,0,486.3,140.62Z" transform="translate(-51.46 -51.9)"/><path class="cls-10" d="M573.3,487.66c.08,0,3.74-12.64,2-19.63-1.13-4.88-5-11.12-5-11.12a23.69,23.69,0,0,0-.57,7.83C570.25,469.19,573.42,483.22,573.3,487.66Z" transform="translate(-51.46 -51.9)"/><path class="cls-10" d="M575,486.56s4.23,3.46,7.9,7a115.49,115.49,0,0,1,8.92,9.28,47.85,47.85,0,0,1,3.48,4.47s-7.19-2.25-11.47-7S575.49,488.71,575,486.56Z" transform="translate(-51.46 -51.9)"/><path class="cls-10" d="M583.49,482.1c.08,0,1.75-13.73.33-18.86-1.57-6.23-6.7-14.92-7.61-16.75,0,0,1,7.09,1.84,13.88C579,467,581,478.4,583.49,482.1Z" transform="translate(-51.46 -51.9)"/><path class="cls-10" d="M584.85,482.44s1.27.64,4.34,2.33,11.75,6.39,14.92,8.71,8.63,8.23,10.48,10.29c.7.8-6.24-2.13-10.43-4.47-3.19-1.73-7.85-4.35-10.48-7-1.23-1.22-6.47-7.5-9.56-8.51S584.85,482.45,584.85,482.44Z" transform="translate(-51.46 -51.9)"/><path class="cls-10" d="M589.77,478.48s2.8-9.7,2.23-14.47A49.53,49.53,0,0,0,588,449c-2.31-5.09-4.41-9.48-4.41-9.48a77.35,77.35,0,0,0,.63,11.15c.79,5,1,9.68,2.67,15.36S589.77,478.48,589.77,478.48Z" transform="translate(-51.46 -51.9)"/><path class="cls-10" d="M592.31,477.58c1.6-.2,3.23-.13,7.07,2s13.16,5.94,17.78,9.42,11.44,8.38,11.84,8.5-11.61-2.1-17.58-5.8a111.1,111.1,0,0,1-12.73-9.29c-2.88-2.34-5.94-4.31-7.87-4.38A6.78,6.78,0,0,1,592.31,477.58Z" transform="translate(-51.46 -51.9)"/><path class="cls-10" d="M598.65,471.83s1.61-3.52,1.18-10.37-1.15-12.81-2-15.84-4.11-9.38-4.38-10.27-1,5.48-.89,7.67a53.32,53.32,0,0,0,2.55,12.31C596.94,461,598.6,469.62,598.65,471.83Z" transform="translate(-51.46 -51.9)"/><path class="cls-10" d="M599.42,471.67c2.16.52,6.84,2.8,9.67,4s5,3.32,15.72,6.44a49.63,49.63,0,0,0,16.92,1.9s-1.64-.72-7-3.8-14.13-4.43-21.24-6.55a71,71,0,0,0-12.07-2.52Z" transform="translate(-51.46 -51.9)"/><path class="cls-10" d="M607.11,467.12s1.3-11.31,1-16.84-.08-9.61-4-15A66.34,66.34,0,0,1,598.8,427s.77,6.64,2,12.18,2.65,13.19,3.48,15.88S606,466.39,607.11,467.12Z" transform="translate(-51.46 -51.9)"/><path class="cls-10" d="M610.61,462.45c2.68-.05,5.38.28,11.27,1.48,5.57,1.14,12.1,2.26,15.34,3.43s13.74,4.74,14,4.79-9.07,1.83-14.35.53-9.94-2-16.3-5.49-10.17-4.12-12.33-3.46S610,462.47,610.61,462.45Z" transform="translate(-51.46 -51.9)"/><path class="cls-10" d="M614.48,457.73s.6-5.15-1-8.64-3.62-12.54-4-15.32-2.7-14.24-2.64-15,2.12,4.2,4.57,7.92,4.11,10,4.63,15,.27,13.88-.11,15.06A1.21,1.21,0,0,1,614.48,457.73Z" transform="translate(-51.46 -51.9)"/><path class="cls-10" d="M618.32,454.84s5.52.46,10.38,1,12.95,2.19,15.19,2.27,12.72,2.81,13.07,2.55-7.16,2.41-14.5,1.93a51.2,51.2,0,0,1-16.89-3.95c-4.75-1.87-7.88-2.54-9.2-2.06S618.33,454.85,618.32,454.84Z" transform="translate(-51.46 -51.9)"/><path class="cls-10" d="M625.22,445.45s-.22-9.57-1.26-13.83-1.68-9.12-3.3-12.6-4.09-8.68-4.1-8.68a100,100,0,0,0,.73,11.57,102.68,102.68,0,0,0,3.35,15.78,88.64,88.64,0,0,0,3.92,9.93C624.79,446.9,625,446.17,625.22,445.45Z" transform="translate(-51.46 -51.9)"/><path class="cls-10" d="M626.84,445.86c0,.06,9.78.07,14.79.21a158.55,158.55,0,0,1,16.45,1.65,43,43,0,0,0,6.38.88c0,.15-14.39,3.42-20.6,2-6.17-1.11-17.28-3.44-20.18-2.2S626.87,445.89,626.84,445.86Z" transform="translate(-51.46 -51.9)"/><path class="cls-10" d="M632.25,436.41s-.1-10.14-.5-13.35a31.73,31.73,0,0,0-4.26-11.73c-1.9-2.81-6-9.4-6.21-10.76s-.52,5.07,1.06,9.92,4.13,11.77,6,17.46,3.13,8.23,2,11.13S632.26,436.41,632.25,436.41Z" transform="translate(-51.46 -51.9)"/><path class="cls-10" d="M633.76,436.13s5.62-.73,9.87-.76,10.26.69,13.21.69,12.93,1.43,13.58,1-9.8,4.17-17.34,3.39-12.51-2.33-15.37-2.52-5.78-.12-5.78-.12Z" transform="translate(-51.46 -51.9)"/><path class="cls-10" d="M639,425.26s-.42-8.34-2.36-13.8-6.89-11.69-8.6-14a23.4,23.4,0,0,0-3-3.38s1,4.59,2.72,9.69,5.35,11.22,7.06,14,3.51,8.26,3.2,9.47S639,425.26,639,425.26Z" transform="translate(-51.46 -51.9)"/><path class="cls-10" d="M639.62,426.44s7.2-1.78,12.45-1.86,10.1-.67,12.7-.51a74,74,0,0,0,9.34-.46A32.33,32.33,0,0,1,662,428.34c-4.75.79-17.79-.77-22.19-.64C636.3,427.89,639.62,426.44,639.62,426.44Z" transform="translate(-51.46 -51.9)"/><path class="cls-10" d="M643.68,416.45s1-8.42-2.13-15.06a53.53,53.53,0,0,0-8.73-12.6,36.22,36.22,0,0,1-4.51-5.54,33.66,33.66,0,0,0,2,7.51c1.36,3,3.86,8.16,6.14,12.42S643.79,415.3,643,418,643.69,416.45,643.68,416.45Z" transform="translate(-51.46 -51.9)"/><path class="cls-10" d="M644.5,415.24s3.39-.77,6.57-1.59,9.63-2.75,13.44-3,13.9-1.24,14.36-1.66-7.48,5.42-12.45,6.57-14.29,1.19-18.77,1S643.35,415.53,644.5,415.24Z" transform="translate(-51.46 -51.9)"/><path class="cls-10" d="M648.42,406.22c.05,0-.91-11.08-3-15.6a58.84,58.84,0,0,0-8.45-13.15,46.65,46.65,0,0,0-4.41-4.78s2.49,8.73,4.4,12.65a127.29,127.29,0,0,0,6.27,11.92c2.55,4,5,8.59,4.13,11.31S648.44,406.22,648.42,406.22Z" transform="translate(-51.46 -51.9)"/><path class="cls-10" d="M648.61,406.9s2.36-1.36,6.4-4,9-6,11.43-7.07S679.73,393,680,392.7s-6.44,7.89-11.15,9.83c-5.5,2.39-10.6,2.48-16.31,4.48s-5.7,2.38-5.69,2.41Z" transform="translate(-51.46 -51.9)"/><path class="cls-10" d="M651.86,396.58a36.84,36.84,0,0,0-1.79-11.18c-2-6.71-3.49-10.54-5.81-13.52s-6.15-6.86-6.15-6.86a46.61,46.61,0,0,0,2.24,8.2c1.45,3.36,4.93,10.15,7,14.49s4,9,3.41,12.38S651.89,396.58,651.86,396.58Z" transform="translate(-51.46 -51.9)"/><path class="cls-10" d="M652.57,395.14a26.3,26.3,0,0,1,8.23-8.24c5.21-3.13,7.14-5.3,9.56-6s10.48-4.05,10.45-4.12c.1.1-8.63,10.56-13.38,12.7-4.63,2.3-10.1,3.13-14.55,6.32C650.57,397.41,652.57,395.13,652.57,395.14Z" transform="translate(-51.46 -51.9)"/><path class="cls-10" d="M655.62,385.81a60.74,60.74,0,0,0-2-10.83,42,42,0,0,0-6.31-12.77c-3.43-4.68-5.18-6.56-5.18-6.57s-.58,4,2.06,9.94,5.74,10.68,7.06,13.51,3.42,6.75,3.54,8.62S655.63,385.81,655.62,385.81Z" transform="translate(-51.46 -51.9)"/><path class="cls-10" d="M658.09,379.66c.06.07,7.34-7.4,9.56-10.7,3.35-4.53,11.46-7.56,12.09-8.2s-5.27,10.15-8.62,12.65c-1.76,1.53-9.5,6.33-12.28,8.3S656.49,381.79,658.09,379.66Z" transform="translate(-51.46 -51.9)"/><path class="cls-10" d="M658.36,375.4s-.85-4.59-2-8.61-3.58-11-5.53-13.23-5.64-5.91-5.64-5.9a13.14,13.14,0,0,0,1.43,8.17c2.28,4.6,4.54,8.82,6.46,11.87s4.67,8.36,4.39,10.53S658.38,375.4,658.36,375.4Z" transform="translate(-51.46 -51.9)"/><path class="cls-10" d="M660.39,368.26a52,52,0,0,1,4.06-6.82c2.36-3.25,5-7.25,6.83-9.73a79.87,79.87,0,0,1,5.33-6s-2.13,8.26-4.68,11.95-9.22,9.51-11.73,12.72C658.09,373.19,660.41,368.26,660.39,368.26Z" transform="translate(-51.46 -51.9)"/><path class="cls-10" d="M660.17,365.68a49.78,49.78,0,0,1-.75-8.71c.25-3.25-1.24-9.91-3.24-12.86s-4.5-6.64-4.5-6.63.6,4.58,1.14,7.06a90,90,0,0,0,3,11,125.7,125.7,0,0,1,3.94,13.6C659.94,370.46,660.18,365.68,660.17,365.68Z" transform="translate(-51.46 -51.9)"/><path class="cls-10" d="M661.35,363.28s.56-1.64,2-5.71,3.16-11.61,3-14.11-2.92-11.57-2.94-12.32-1.62,8.32-2.06,11.09-1.43,6-1.13,8.88.68,11.73.15,13S661.35,363.28,661.35,363.28Z" transform="translate(-51.46 -51.9)"/><path class="cls-10" d="M554.94,495.94c0,.17,20.29-6.23,33.32-14.28,14.4-7.7,35.6-30.11,40-36.89,5.41-6.27,18.51-31.64,20.86-37.94,3.73-7.25,10.27-28.88,11.79-38.44a50.88,50.88,0,0,0,.67-10.51c.17-.45-1.48,6.44-1.93,8.68s-2.84,12.93-4.57,19.05c-1.57,6.15-5.57,16.05-7.36,20.21-1.44,4.26-12.19,26-21.22,37.3-3.15,5.88-31.16,32.19-43.38,37.46A70.26,70.26,0,0,1,562,488.12C558,488.71,554.39,493.67,554.94,495.94Z" transform="translate(-51.46 -51.9)"/><path class="cls-14" d="M646.92,504.48s18.16.83,27.26,6.54c11.23,7.07,12.29,19.05,12.84,22.07,0,.22-5.51,2.85-12.13,3.19-3.31.17-12.68-1.19-18.7-6.83s-7.69-7.71-8.66-12C646.62,513.51,648.23,506.19,646.92,504.48Z" transform="translate(-51.46 -51.9)"/><path class="cls-14" d="M665.65,500.16s14.56-1.78,22.4-6.23c9.26-5.25,14.48-16,14.48-16a79.81,79.81,0,0,1-8,2c-4.17.71-16.6-.49-22.64,4.14C668.06,487,664.77,489.87,665.65,500.16Z" transform="translate(-51.46 -51.9)"/><path class="cls-14" d="M622.68,510.82s10.39,2.94,16.91,7.91,13.85,13.79,13,29a21.6,21.6,0,0,0-6.29-3.62C643.1,543,632,541,625.46,533.67c-3.93-4.43-4.59-7.08-5.12-10.75S623.41,512.24,622.68,510.82Z" transform="translate(-51.46 -51.9)"/><path class="cls-14" d="M640,501.94a6.52,6.52,0,0,1,2.13-3.61c4.05-3.09,7-3.58,8.87-7.12s2.58-10,2.58-10-10.19.92-13,6.15S637.18,495,640,501.94Z" transform="translate(-51.46 -51.9)"/><path class="cls-14" d="M695.14,504.81s5-2.92,13.17-.17,9.9,5.74,9.91,6.46-1.81,1.5-6.61,1.78c-4.06.24-7.12.28-11.39-2.35S695.14,504.81,695.14,504.81Z" transform="translate(-51.46 -51.9)"/><path class="cls-14" d="M605.22,513.55a170.27,170.27,0,0,0-21,10.89,9.75,9.75,0,0,1,1,1.51A168.56,168.56,0,0,1,606,515.23c20.92-9.05,53.67-17.86,90.78-8.47l.44-1.76C659.56,495.48,626.41,504.4,605.22,513.55Z" transform="translate(-51.46 -51.9)"/><rect class="cls-15" x="266.3" y="287.84" width="293.95" height="194.59" rx="19.34"/><polygon class="cls-15" points="311.88 398.03 311.88 315.74 229.59 315.74 311.88 398.03"/><rect class="cls-4" x="314.66" y="347.67" width="201.32" height="6.84"/><rect class="cls-4" x="314.66" y="370.17" width="187.82" height="6.84"/><rect class="cls-4" x="314.66" y="392.67" width="93.32" height="6.84"/><rect class="cls-4" x="422.66" y="392.67" width="93.32" height="6.84"/><rect class="cls-4" x="314.66" y="415.17" width="201.32" height="6.84"/><polygon class="cls-9" points="373.32 257.82 371.86 242.02 378.75 241.59 379.5 259.82 373.32 257.82"/><path class="cls-16" d="M439.09,323.38c.09.92-1,2.4-1,2.4s-9.8-3.65-12.43-5.87a17.14,17.14,0,0,1-2.53-3.24c-.15-.22-.16-1.12-.3-1.34-.26-.41-.64-.14-.86-.5a13.68,13.68,0,0,1-.92-1.69c1.34-4.67,3.29-5.84,3.29-5.84s2.53,3.93,2.62,2.67c.18-2.71,5.17-1.26,5.2.29C432.26,316.47,438.8,320.69,439.09,323.38Z" transform="translate(-51.46 -51.9)"/><path class="cls-17" d="M438.9,324.42c-3-1.08-9.43-3.39-10.44-4.15-4.11-3.11-5.61-6.86-6.71-9.25a19,19,0,0,0-.74,2.12,13.68,13.68,0,0,0,.92,1.69c.22.36.6.09.86.5.14.22.15,1.12.3,1.34a17.14,17.14,0,0,0,2.53,3.24c2.63,2.22,12.43,5.87,12.43,5.87A6.62,6.62,0,0,0,438.9,324.42Z" transform="translate(-51.46 -51.9)"/><path class="cls-17" d="M435.57,317.73c0,.18-.46.08-.95-.19a18,18,0,0,0-3.15-1.43c-.54-.18-.94-.47-.88-.66s.58-.21,1.12,0a18.12,18.12,0,0,1,3.09,1.43C435.28,317.14,435.61,317.54,435.57,317.73Z" transform="translate(-51.46 -51.9)"/><path class="cls-17" d="M434.43,315.7c-.05.18-.5.12-1-.11a18.22,18.22,0,0,0-3.23-1.16c-.55-.15-1-.4-.88-.59s.6-.25,1.15-.11a18.88,18.88,0,0,1,3.18,1.18C434.14,315.14,434.48,315.51,434.43,315.7Z" transform="translate(-51.46 -51.9)"/><path class="cls-17" d="M433.29,313.79c-.06.19-.52.16-1,0a18.88,18.88,0,0,0-3.3-.9c-.57-.11-1-.32-.89-.52s.62-.29,1.18-.19a19,19,0,0,1,3.25.92C433,313.27,433.35,313.6,433.29,313.79Z" transform="translate(-51.46 -51.9)"/><path class="cls-9" d="M355.36,333.06c-1.42-2.48.93-5.62.93-5.62l2.91-8.79,4.16.12-1.16,15.5S356.77,335.55,355.36,333.06Z" transform="translate(-51.46 -51.9)"/><path class="cls-16" d="M356.49,327.36a7.44,7.44,0,0,0-1.54,1.13c-1.22,1-1.48,1.82-1.43,2.55.17,2.83,1.22,4.53,2.26,11.1s2.6,8.1,6.09,8.87,5-1.9,4.17-5c-1.25-4.46-2.62-6.69-3.09-9.08s0-2.84.33-4.53-4.86-1.06-5.52.57C357.18,334.42,355,328.93,356.49,327.36Z" transform="translate(-51.46 -51.9)"/><path class="cls-17" d="M354.23,329.66c.18,2.83,1.23,4.53,2.27,11.11s2.6,8.09,6.09,8.86a3.47,3.47,0,0,0,3.53-.84c-.44,1.69-1.9,2.74-4.25,2.22-3.49-.77-5.05-2.29-6.09-8.87s-2.09-8.27-2.26-11.1a2.51,2.51,0,0,1,.74-1.89A3,3,0,0,0,354.23,329.66Z" transform="translate(-51.46 -51.9)"/><path class="cls-9" d="M356.41,327.4a.15.15,0,0,1,.08,0l-.07.09A.43.43,0,0,0,356.41,327.4Z" transform="translate(-51.46 -51.9)"/><path class="cls-17" d="M359.09,341.44c0,.23.44.27,1,.14a15.55,15.55,0,0,1,3.42-.44c.59,0,1.05-.18,1-.42s-.52-.45-1.09-.43a15.56,15.56,0,0,0-3.37.46C359.52,340.89,359.1,341.22,359.09,341.44Z" transform="translate(-51.46 -51.9)"/><path class="cls-17" d="M358.75,339.41c0,.23.46.28,1,.16a14.21,14.21,0,0,1,3.23-.37c.55,0,1-.17.91-.41s-.55-.46-1.09-.45a14.51,14.51,0,0,0-3.19.4C359.09,338.87,358.72,339.19,358.75,339.41Z" transform="translate(-51.46 -51.9)"/><path class="cls-17" d="M358.11,337.38c.05.23.52.3,1.05.2a15.59,15.59,0,0,1,3.38-.28c.57,0,1-.15.92-.39s-.6-.47-1.17-.48a15.75,15.75,0,0,0-3.33.31C358.43,336.85,358.06,337.16,358.11,337.38Z" transform="translate(-51.46 -51.9)"/><path class="cls-9" d="M465.62,161.65a5.69,5.69,0,0,0-.85-4.54s-3.77-5.47-3.42-6.88a11.44,11.44,0,0,0-.43-4.2s.23-1.32,1.79.88a11.05,11.05,0,0,1,1.46,3s3.25,2.35,3.68,3.45c.88,2.26-1,8-1,8S465.53,162,465.62,161.65Z" transform="translate(-51.46 -51.9)"/><path class="cls-9" d="M447.11,168.31s16.27,3.38,20.47-13.12c1.25-4.9,1.7.22,1.76,5.19s-5.24,17.72-14.84,21.16-13.53,3.92-16.49,1S447.11,168.31,447.11,168.31Z" transform="translate(-51.46 -51.9)"/><path class="cls-10" d="M381,203.68l44.47,35.94-3.85,15.1a73.75,73.75,0,0,1-30-12.49C377.54,231.94,381,203.68,381,203.68Z" transform="translate(-51.46 -51.9)"/><path class="cls-10" d="M423.66,306.66c-3.17-11-9.8-31.19-10.6-38.35a101.81,101.81,0,0,1-.19-22.71l12.83-5.8L431.62,306Z" transform="translate(-51.46 -51.9)"/><path class="cls-13" d="M379.75,203.21l11.88,20.58,4.09,42.61-18.09,12.72s-2-20.67-5-38.35C369.74,223.58,379.75,203.21,379.75,203.21Z" transform="translate(-51.46 -51.9)"/><path class="cls-13" d="M356.23,326.61c3.78-13.53,10-38.93,13.67-47,6.85-15,9.66-14.53,9.66-14.53l16.07,1.39-31.24,64.1Z" transform="translate(-51.46 -51.9)"/><path class="cls-16" d="M409.47,172.23s-1.31,5.53,19.88,13.16c13.21,4.75,18.34.48,18.34.48l6.25-2.49-5.24-16.17L441,168.67l-.24,1.14a3.17,3.17,0,0,1-2.71.11c-1.32-.66-7.54-3.48-20.22-6C403.1,160.94,409.8,170.93,409.47,172.23Z" transform="translate(-51.46 -51.9)"/><path class="cls-18" d="M438.41,176.3l.1-4.32.14-1.73a3.45,3.45,0,0,0,2.3-.39l-.7,3.19-.11,3.92,1.56,5.15Z" transform="translate(-51.46 -51.9)"/><path class="cls-18" d="M400.53,222.06l-30.21-1.14,24.51-55.28s11-14.43,22.23-6.27a81.62,81.62,0,0,0,12.53,7.41S432.44,190.71,400.53,222.06Z" transform="translate(-51.46 -51.9)"/><path class="cls-9" d="M462.82,217.16c1.55,0,4.91-3.5,4.91-3.5L466,209l-3.54-.8-1.16,2.41-.59,4.82S461.88,217.17,462.82,217.16Z" transform="translate(-51.46 -51.9)"/><path class="cls-16" d="M416,181.36l13.9,25.17-.73,2,2.08.42-6.11,9.64-9.89-2.4-18.36-34.72s-2.3-9,4.4-18.19C406.16,156.62,414.79,179.34,416,181.36Z" transform="translate(-51.46 -51.9)"/><path class="cls-9" d="M430.21,209.08l34.11,4.9s-.51,2.61-2.36,3.29c-5,1.87-16.83,3.48-22.65,3.14a90.68,90.68,0,0,1-15.73-2.54Z" transform="translate(-51.46 -51.9)"/><path class="cls-18" d="M420,214.81s6.29-4.62,9.47-7.15l-.32.87,2.08.42-2.14,3.32-3.74,4.26-2.2-.83.8-1.51Z" transform="translate(-51.46 -51.9)"/><path class="cls-9" d="M424,152.4c1.88,6.11-.08,12.94-.4,13.24-3.13,2.85-8.09-2.67-7.95-4.33s-1.65-8.78-2.15-9.79S422.93,148.92,424,152.4Z" transform="translate(-51.46 -51.9)"/><path class="cls-9" d="M419.15,150.21a19,19,0,0,0-4.93.76c.7,1.79,1.43,3.55,2,4.69,1.64,3.15,4.77,3.73,6.82,4.32a4.85,4.85,0,0,0,1.52.15c0-1.07-.16-3.33-.58-7.73C423.85,150.75,421.56,150.21,419.15,150.21Z" transform="translate(-51.46 -51.9)"/><path class="cls-9" d="M422.51,135.94l6.05,15.36s1.44,3.64.26,4.71-5,2.28-7.06,1.68-5.17-1.17-6.82-4.33-4.42-11.19-4.42-11.19.11-3,5.58-3.41S422.51,135.94,422.51,135.94Z" transform="translate(-51.46 -51.9)"/><path class="cls-13" d="M420.51,132.41a3,3,0,0,1,2.8,1.05,3.36,3.36,0,0,1-.58,3.91,47.06,47.06,0,0,1-8.43,3.32c-.92,0-2.57.31-3.77-.67-.78-.63,1-3.37,2.67-3.52C417.39,136.13,417.75,132.71,420.51,132.41Z" transform="translate(-51.46 -51.9)"/><path class="cls-13" d="M412.25,139.43l2.62,6.64.87,3.72-.79.31-1.43.56s-5.93-8.19-4.13-10.1S411.92,139,412.25,139.43Z" transform="translate(-51.46 -51.9)"/><path class="cls-9" d="M415.13,150.78a1.12,1.12,0,0,1-.63,1.45l-.61.25a1.13,1.13,0,0,1-1.46-.64l-.95-2.43a1.11,1.11,0,0,1,.63-1.45l.61-.24a1.13,1.13,0,0,1,1.45.63Z" transform="translate(-51.46 -51.9)"/><polygon class="cls-16" points="367.73 113.92 364.41 117.22 361.87 106.41 363.7 105.62 367.73 113.92"/><polygon class="cls-16" points="371.54 113.03 372.28 111.64 371.91 114.72 369.01 118.69 368.09 114.31 371.54 113.03"/><path class="cls-6" d="M170.9,532l.32,7.31h6s.33-.91.83-.91,1,.91,1.55.91H194.7s.27-1.35-.06-1.82a5.51,5.51,0,0,0-1.82-.86c-3.08-1-11.88-3.93-13.41-7.18C177.55,525.55,170.9,532,170.9,532Z" transform="translate(-51.46 -51.9)"/><path class="cls-19" d="M194.75,537.82a4.56,4.56,0,0,1-.05,1.53H179.56c-.58,0-1.13-.91-1.55-.91s-.83.91-.83.91h-6l-.26-1.53Z" transform="translate(-51.46 -51.9)"/><path class="cls-19" d="M183.73,535c.13.19.47,0,.92-.4,1.09-.92,1-.82.71-1s-.43-.21-1.06.34C183.86,534.31,183.6,534.76,183.73,535Z" transform="translate(-51.46 -51.9)"/><path class="cls-19" d="M182.12,534.17c.13.19.47,0,.92-.4,1.09-.92,1-.82.71-1s-.43-.21-1.06.34C182.25,533.53,182,534,182.12,534.17Z" transform="translate(-51.46 -51.9)"/><path class="cls-19" d="M180.64,533.28c.13.2.47,0,.92-.4,1.09-.92,1-.82.71-1s-.43-.21-1.06.34C180.77,532.64,180.51,533.09,180.64,533.28Z" transform="translate(-51.46 -51.9)"/><path class="cls-6" d="M125.76,539.41a5.26,5.26,0,0,0-.14,2.55s9.16,1.12,12.11.36a15,15,0,0,0,3.28-1.7c.21-.13.57-.91.77-1,.37-.24.56.16.87-.05a11,11,0,0,0,1.4-1.07c.81-4.64-.26-6.51-.26-6.51s-5.87-2.86-7.33-.87C133,535.78,127.06,537.2,125.76,539.41Z" transform="translate(-51.46 -51.9)"/><path class="cls-19" d="M125.5,540.4c2.82.4,8.76,1.2,9.85,1,4.48-.89,7.15-3.49,9-5.09,0,.65-.13,1.36-.27,2.17a11,11,0,0,1-1.4,1.07c-.31.21-.5-.19-.87.05-.2.13-.56.91-.77,1a15,15,0,0,1-3.28,1.7c-2.95.76-12.11-.36-12.11-.36A7.33,7.33,0,0,1,125.5,540.4Z" transform="translate(-51.46 -51.9)"/><path class="cls-19" d="M130.48,536c0,.2.34.31.85.28a14.52,14.52,0,0,1,3.15.17c.53.08,1,0,1-.2s-.38-.49-.9-.57a14.79,14.79,0,0,0-3.11-.13C131,535.58,130.52,535.8,130.48,536Z" transform="translate(-51.46 -51.9)"/><path class="cls-19" d="M132.24,534.62c0,.21.35.36.86.38a14.8,14.8,0,0,1,3.12.46c.51.13.94.09,1-.13s-.39-.53-.9-.66a14.91,14.91,0,0,0-3.07-.42C132.71,534.23,132.28,534.42,132.24,534.62Z" transform="translate(-51.46 -51.9)"/><path class="cls-19" d="M134,533.36c0,.21.35.4.86.47a15.49,15.49,0,0,1,3.06.74c.51.18.93.17.94-.05s-.39-.59-.88-.76a15.33,15.33,0,0,0-3-.7C134.4,533,134,533.15,134,533.36Z" transform="translate(-51.46 -51.9)"/><path class="cls-9" d="M187.1,355.93l-1-5.63-.33-3.23.19-4.34s1.32-1.73,1.92,2.38c.09.62,1-4.21,1-4.21l1-3.34,1.22-.51,2.74,1.71s-.25,1.54-2.49.77c-.23-.09-.36,2.79-.36,2.79l2.92,4.26s.58,2.23-.3,3.21l-.88,1-.35-.39-.22,4.3a3.71,3.71,0,0,1-1.79,2.39c-1.43.69-.61,2.3-.61,2.3Z" transform="translate(-51.46 -51.9)"/><path class="cls-19" d="M181.26,388.57s-5.74-11.52-4.34-15.75,7.39-19.77,7.39-19.77l7.38,4s-5.23,30.54-6.89,32.61S181.7,389.22,181.26,388.57Z" transform="translate(-51.46 -51.9)"/><path class="cls-10" d="M182.7,531.65l-12.15.4,2.95-127.23,25.77-7.72S195.22,480,182.7,531.65Z" transform="translate(-51.46 -51.9)"/><polygon class="cls-13" points="112.09 355.36 80.34 482.2 94.7 482.61 141.55 347.64 112.09 355.36"/><path class="cls-13" d="M173.48,405.68l2.06-1.47,23.73-7.11s-.41,8.43-1.38,21.58l-25,14.46Z" transform="translate(-51.46 -51.9)"/><path class="cls-10" d="M163.44,407.7l.11-.44L178,403.48l21.3-6.38s-.07,1.51-.23,4.23Z" transform="translate(-51.46 -51.9)"/><path class="cls-6" d="M148.58,340.19s13.87-9.75,26.39,6.51,25.6,50.16,25.6,50.16l-38.12,12.43L150.05,360S143.18,343.44,148.58,340.19Z" transform="translate(-51.46 -51.9)"/><path class="cls-19" d="M148.46,340.87s-4.3-.41-2.46,12.6,6.39,38.35,8.47,44.71c.52,1.58,2.58,8.95,5.89,4.48s5.53-21.68-.12-43.9C156.62,344.51,150.67,340.87,148.46,340.87Z" transform="translate(-51.46 -51.9)"/><polygon class="cls-11" points="146.33 310.63 147.04 311.47 144.28 320.15 138.75 321.79 137.48 320.62 139.59 312.82 146.33 310.63"/><path class="cls-9" d="M178.74,374.05l8.07-4.69,3.19-.48-.85,2.82,3.19,1.18,3.19-1.18,1.49-2.11.63,2.34a4.77,4.77,0,0,1-1.06,2.12c-.85.94-3.83,6.1-3.83,6.1l-2.33-.47-5.32-1.41-3.4,2.58Z" transform="translate(-51.46 -51.9)"/><path class="cls-19" d="M156.68,400.49s1.72-13,5.16-15.45,16.69-10.84,16.69-10.84l3.68,8.13s-20.86,20.87-23.32,21.41S156.68,401.3,156.68,400.49Z" transform="translate(-51.46 -51.9)"/><polygon class="cls-9" points="115.4 291.32 107.15 289.2 110.6 272.84 118.84 274.96 115.4 291.32"/><path class="cls-10" d="M176.11,321.2a3.3,3.3,0,0,1-3.78,2.91L160.2,321.7a3.58,3.58,0,0,1-2.64-4.18h0a3.31,3.31,0,0,1,3.79-2.91l12.13,2.4a3.6,3.6,0,0,1,2.63,4.19Z" transform="translate(-51.46 -51.9)"/><path class="cls-10" d="M172.89,326.9c-.59,3.62-3.72,6-7,5.38L159.56,331c-3.27-.64-5.45-4.1-4.86-7.72h0c.58-3.62,3.72-6,7-5.38l6.33,1.26c3.28.65,5.46,4.1,4.87,7.72Z" transform="translate(-51.46 -51.9)"/><path class="cls-9" d="M176,338.33l3.33-20.48c.53-3.26-2.4-.47-5.35-1.06l-2.86-.56a5.5,5.5,0,0,0-6.31,4.85l-2.37,14.57Z" transform="translate(-51.46 -51.9)"/><path class="cls-9" d="M166.38,326.12a2.42,2.42,0,0,1-2.77,2.13h0a2.63,2.63,0,0,1-1.93-3.06h0a2.42,2.42,0,0,1,2.78-2.13h0a2.62,2.62,0,0,1,1.92,3.06Z" transform="translate(-51.46 -51.9)"/><path class="cls-9" d="M175.45,331.61a1.5,1.5,0,0,0,1.07,1.77l1.09.22a1.39,1.39,0,0,0,1.56-1.25s-1.14-8.25-1.86-8.4a2.53,2.53,0,0,0-.85,1.39Z" transform="translate(-51.46 -51.9)"/><path class="cls-10" d="M168.64,335.73c-5.35-1.06-5.61-3-5.43-5.09a47,47,0,0,0-2.55,6.58l-.3,1.87c-.58,3.6,2.3,7.18,6.43,8l7.5,1.49,1.49-9.19.35-2.17Z" transform="translate(-51.46 -51.9)"/><path class="cls-10" d="M176.75,333.41l-4.28-.85a3.68,3.68,0,0,0-4.21,3.23,4.94,4.94,0,0,0,0,1l7.72,1.53Z" transform="translate(-51.46 -51.9)"/><path class="cls-9" d="M170.55,336.45l-.21,1.31a.66.66,0,0,0,.48.78l3.47.69a.62.62,0,0,0,.7-.54l.22-1.31Z" transform="translate(-51.46 -51.9)"/><path class="cls-10" d="M178,313.85l-11-2.17a2.21,2.21,0,0,0-2.53,1.94l-.76,4.72,13.11,2.6Z" transform="translate(-51.46 -51.9)"/><path class="cls-10" d="M184.25,318.73a3.33,3.33,0,0,1-3.81,2.93L173,320.18a3.6,3.6,0,0,1-2.65-4.2h0a3.31,3.31,0,0,1,3.81-2.93l7.43,1.47a3.62,3.62,0,0,1,2.65,4.21Z" transform="translate(-51.46 -51.9)"/><polygon class="cls-10" points="116.82 265.57 113.85 264.99 112.45 273.61 115.42 274.19 116.82 265.57"/><polygon class="cls-10" points="124.11 263.19 115.38 261.46 113.73 271.61 122.46 273.34 124.11 263.19"/><path class="cls-9" d="M167.21,324.05a4.55,4.55,0,0,1,5.21-4l2.28.45c2.44.49,3.39,2.93,3,5.62h0a4.54,4.54,0,0,1-5.21,4l-1.61-.32a4.93,4.93,0,0,1-3.62-5.75Z" transform="translate(-51.46 -51.9)"/><path class="cls-1" d="M802.14,374.25a65.87,65.87,0,1,0,56.59,74A65.95,65.95,0,0,0,802.14,374.25Z" transform="translate(-51.46 -51.9)"/><path class="cls-3" d="M858.41,429.48l-6.81,9.4-12,17.95-4.47-12.75-9.75,4.85-4.62-11.6-6,5.84-2.5-1-7.87-4.32.47,8.85,6,3.35-14.65,25.75L791,478.29l-3.14-10.69-.7-17.33-8.29-1.45-2.76-6.75,6.39-12.33,7.19-.71,4,3.42,10.59-1.14-10.47-7.7-9.21-2.86-.12-2.9,9.79-4.06-3.08-6.45,10.33-7.15,9.38,4.76,17-2.94s7.15-2.67,15.16-5.6A66,66,0,0,1,858.41,429.48Z" transform="translate(-51.46 -51.9)"/><path class="cls-3" d="M759.19,383.38l-4.57,5.92-8,10.93a1,1,0,0,0-.1,1l3.57,7.84a1.12,1.12,0,0,0,.8.58,1,1,0,0,0,.91-.37l4.64-5.77,6.45,10.38L746.2,425.25l-8.55-.32a1,1,0,0,0-.94.56l-2.49,4.92a1,1,0,0,0,0,1l4.69,7.93-8.55-5.4-2.17-3.48A65.72,65.72,0,0,1,759.19,383.38Z" transform="translate(-51.46 -51.9)"/><path class="cls-3" d="M746.74,462.93l-4.29-12,7.82-12.77,15.6,18.38-19,28.71-2.13-7.36,2-14.47A1,1,0,0,0,746.74,462.93Z" transform="translate(-51.46 -51.9)"/><path class="cls-3" d="M769.9,403.34,764.58,387c11.36-4,18.67-4.27,21.46-4.17l-5,13.77Z" transform="translate(-51.46 -51.9)"/><path class="cls-2" d="M932.14,508.57c1.84-2.82-.45-5.22-9.17-6.5a71.24,71.24,0,0,0-26.11,1.28c17.66-8.55,38.24-20.57,19.45-22-5.86-.43-14.87,2.41-24.9,6.84,11.18-9.1,17.33-16.58,10.56-18-6.29-1.29-19.11,6.11-32.76,15.94C877,478,881.49,470.78,878,467.39c-2.85-2.76-8.93.41-15.93,6.29.31-5.17-1.86-8.29-6.82-7.67-4.66.59-8.44,6.58-11.14,13.76-4.48-11.14-16.29-17.95-28.22-14.57-14,4-2.75,30.68,3.51,43.37Z" transform="translate(-51.46 -51.9)"/><path class="cls-2" d="M862.94,499.58l-.62-.25c20.24-51.26,45.9-70.1,46.16-70.29l.39.55C908.61,429.77,883.1,448.52,862.94,499.58Z" transform="translate(-51.46 -51.9)"/><path class="cls-2" d="M860.07,493.4l-.66-.11c5.28-31.37,23.55-57.16,23.74-57.42l.54.39C883.51,436.52,865.32,462.18,860.07,493.4Z" transform="translate(-51.46 -51.9)"/><path class="cls-2" d="M871.73,497.4l-.66-.12c2.6-15.07,9.86-24.13,15.49-29.08A37.55,37.55,0,0,1,898.31,461l.2.64C898.3,461.69,876.63,469,871.73,497.4Z" transform="translate(-51.46 -51.9)"/><path class="cls-2" d="M912,425.37c4.09,3.43,6.27,7.56,4.88,9.21s-5.83.21-9.92-3.22-6.27-7.56-4.87-9.22S907.91,421.93,912,425.37Z" transform="translate(-51.46 -51.9)"/><path class="cls-14" d="M910.27,427.41c1.3,1.09,2,2.4,1.55,2.93s-1.85.06-3.15-1-2-2.4-1.55-2.92S909,426.32,910.27,427.41Z" transform="translate(-51.46 -51.9)"/><path class="cls-2" d="M884.8,434.42c1.7,1.43,2.61,3.15,2,3.84s-2.43.09-4.13-1.34-2.61-3.15-2-3.84S883.1,433,884.8,434.42Z" transform="translate(-51.46 -51.9)"/><path class="cls-14" d="M884.08,435.27c.55.46.83,1,.65,1.22s-.77,0-1.31-.42-.83-1-.65-1.22S883.55,434.82,884.08,435.27Z" transform="translate(-51.46 -51.9)"/><path class="cls-2" d="M900.14,460.1c1.63,2.35,2.19,4.8,1.24,5.46s-3.06-.71-4.69-3.06-2.19-4.8-1.24-5.46S898.5,457.75,900.14,460.1Z" transform="translate(-51.46 -51.9)"/><path class="cls-14" d="M899,460.92c.52.75.7,1.52.39,1.73s-1-.22-1.49-1-.69-1.52-.39-1.73S898.44,460.17,899,460.92Z" transform="translate(-51.46 -51.9)"/><path class="cls-13" d="M762.28,365.43l0-.12.08-.09a66.11,66.11,0,0,1,5.95-17.93c2-3.91,6.09-7.61,7.89-9.47,4.63,2.52,9.21,1.35,13.54,4.62a40.33,40.33,0,0,1,1.34,5.83c.66,3.78,1.23,7.3,1.71,10.59,6.72.63,23.29,1.9,29.53,3.12,3.69.85,3.91,2.29,4.49,2.76-.33,6-5.22,9.43-8.19,14.26-.52.86-40.18.12-47,.46C772.5,379.93,759,378.11,762.28,365.43Z" transform="translate(-51.46 -51.9)"/><path class="cls-12" d="M824.21,373.29a25.92,25.92,0,0,0,2.5-4.24c.63-2.69.63-4.5-.15-5.15-2.93-2.42-12.93,2.63-38.09,40.34-5.47,8.21-16.3,23.9-14,22.17a60.91,60.91,0,0,0,7.07-6.75C815.92,384,819.09,379.22,824.21,373.29Z" transform="translate(-51.46 -51.9)"/><path class="cls-10" d="M773.65,425l4.46-7.14a2.05,2.05,0,0,1,1.8-1l-3.43,5.5a2.5,2.5,0,0,0,.36,3.2,1.66,1.66,0,0,0,1,.36l-1,1.65a1.85,1.85,0,0,1-2.77.65A2.49,2.49,0,0,1,773.65,425Z" transform="translate(-51.46 -51.9)"/><path class="cls-20" d="M789.47,342.2c0,.18-.9.28-2,.21l-12.32-.77c-1.08-.06-2-.27-1.95-.46l0-.7c0-.18.91-.28,2-.21l12.31.76c1.09.07,2,.28,2,.47Z" transform="translate(-51.46 -51.9)"/><path class="cls-9" d="M817.23,376.08a22.82,22.82,0,0,0,1.66-4.51c.13-2.71-.35-4.29-1.09-5C814.42,363.53,807,369.22,795,394c-6.06,12.47-10.91,24.08-19.1,30.75-1.2,1-1.51,1.11-1.9,2.24a16.21,16.21,0,0,0-.51,7.75C779.19,429.44,801.2,401.41,817.23,376.08Z" transform="translate(-51.46 -51.9)"/><path class="cls-13" d="M771.1,432.12l3.86-7.48a2,2,0,0,1,1.72-1.17l-3,5.76a2.48,2.48,0,0,0,.62,3.15,1.6,1.6,0,0,0,1,.29l-.89,1.72a1.86,1.86,0,0,1-2.71.88A2.49,2.49,0,0,1,771.1,432.12Z" transform="translate(-51.46 -51.9)"/><path class="cls-14" d="M802,299a12.29,12.29,0,0,0-4.3-4.3,11.91,11.91,0,1,0,4.14,16.81A14.35,14.35,0,0,1,802,299Z" transform="translate(-51.46 -51.9)"/><path class="cls-21" d="M795.08,306.08c1.45-.22,3.63,1.5,4.12,4.36,2.4,14,1,30.17,1,30.17s-.32,4.55-2.78,3.55-5.33-10.8-7.39-30.67C789.49,307.76,792.61,306.45,795.08,306.08Z" transform="translate(-51.46 -51.9)"/><path class="cls-12" d="M816.38,353.26s2.15,1.13,2.71,2.21c.39.75,1.62,4.6,1.62,4.6a4.77,4.77,0,0,1-1.77-2.35A16.15,16.15,0,0,0,816.38,353.26Z" transform="translate(-51.46 -51.9)"/><path class="cls-12" d="M818,355.48c1.42.56,2.31,2.08,2.93,4.12a3.47,3.47,0,0,0,1.82,2.38,24.66,24.66,0,0,0-1.48-4.2c-.34-.82-.74-1.63-1.14-2.41C818.85,352.79,814.4,354,818,355.48Z" transform="translate(-51.46 -51.9)"/><path class="cls-9" d="M814.27,352.05c.12,1.06,1.59,2.44,1.46,3.1a7.12,7.12,0,0,1-1.13,2.8c2.25,0,2.6-3.15,3.58-4.13S814,349.3,814.27,352.05Z" transform="translate(-51.46 -51.9)"/><path class="cls-9" d="M803.61,345.38c3.73,1.47,8,3.07,9.7,4.7,2.38,2.3,2.59,4.54,4.73,5.4a6,6,0,0,1,.66.35c.59.33,1.31.59,1.53.76s.93.8.76.45c-1.46-3.13-3.39-6.49-4.08-7-1.39-1-9.35-6.18-12.71-7.49C800.43,341.08,798.59,343.4,803.61,345.38Z" transform="translate(-51.46 -51.9)"/><path class="cls-9" d="M818.14,355.15s.32-.76.92-.55a11.58,11.58,0,0,1,3.09,2.35c.58.6,2.9,3.92,2.9,3.92a4.75,4.75,0,0,1-2.39-1.72A20.34,20.34,0,0,0,818.14,355.15Z" transform="translate(-51.46 -51.9)"/><path class="cls-9" d="M799.2,339.15c-2.66.71-2.85,1.2-3.05,2.63,6.26,4.89,19.44,7.4,19.44,7.4Z" transform="translate(-51.46 -51.9)"/><path class="cls-21" d="M806.46,348.76a12.92,12.92,0,0,1,2.29-4.46,119.35,119.35,0,0,0-10.51-6.57,2.06,2.06,0,0,0-3,2c.38,2.68.86,3.78,3.74,5.46A57.9,57.9,0,0,0,806.46,348.76Z" transform="translate(-51.46 -51.9)"/><path class="cls-14" d="M786.32,288.88a14.52,14.52,0,0,0-2.36-1.12,14,14,0,0,1-1.11,2.36,14.57,14.57,0,0,1-17.74,6,14.75,14.75,0,1,0,21.21-7.26Z" transform="translate(-51.46 -51.9)"/><path class="cls-14" d="M804.24,294.18c-1.32,6.14-7.06,10.1-12.8,8.85s-9.33-7.22-8-13.35,7.07-10.1,12.81-8.85S805.57,288.05,804.24,294.18Z" transform="translate(-51.46 -51.9)"/><path class="cls-9" d="M776.58,307s2.84,10.64,8.33,13.21,8.52,1.93,9.85-.2,2.53-6.62,1.46-8.07a15.15,15.15,0,0,1-2.8-5.27c-.57-2,.41-5.09,1.61-7.43s3.21-2.07,1.48-3.65-.65-2.57-2.7-2.66-3-1.1-3.47.8c-.75,3.47-1.52,8.4-3.93,10.21C783.72,305.94,781.46,306.24,776.58,307Z" transform="translate(-51.46 -51.9)"/><path class="cls-9" d="M799.18,286.18c-.16-.09-.33-.17-.49-.24-.8,2-3,4-5.88,5.39a15.68,15.68,0,0,1-2.12.79l-.41,1.92A5.49,5.49,0,0,0,801,296.36l.94-4.31A11.72,11.72,0,0,1,799.18,286.18Z" transform="translate(-51.46 -51.9)"/><path class="cls-20" d="M790,344c0,.21-1,.31-2.22.24l-13.71-.86c-1.21-.07-2.19-.3-2.17-.51l.05-.78c0-.2,1-.31,2.21-.24l13.71.86c1.22.07,2.19.3,2.18.51Z" transform="translate(-51.46 -51.9)"/><path class="cls-22" d="M797,322.72c.32-6.47-.35-9.16-1.62-12.48-.34-.87-1.2-1.75-1.49-2.48,2.09,13-7.5,7.34-11,1-2.17,2-10,3.44-10,3.85-.18,4.5,0,9-.09,13.49a7,7,0,0,0,2.22,4.95,4.29,4.29,0,0,0-.18,1.1l-.25,2.18c-.07,1.8-3.72,7.93-2.48,8l18,1c1.24.09,2.86-3.6,2.93-5.4l1.86-8.81c0-.15,0-.31,0-.46A10.09,10.09,0,0,0,797,322.72Z" transform="translate(-51.46 -51.9)"/><path class="cls-23" d="M782.45,305.81s-7.16-.71-9,2.55c-2.46,4.32-1.85,8.94-1.41,12,.51,3.58.29,8.22,1.08,12.84,1,5.62-3.69,10.57-2.74,9.66.19-.18,6.87.79,10.51-.83s1.74-8.84,1.47-10.9c-.6-4.63,3.49-13.71,2.85-17.42A31.71,31.71,0,0,0,782.45,305.81Z" transform="translate(-51.46 -51.9)"/><path class="cls-23" d="M798.5,314.76a14.41,14.41,0,0,0-2-4.87A7.69,7.69,0,0,0,794.6,308c-1.17-.9-1-.78-.58.28.83,2,1.89,5.81,1,13.47-.26,2.24-2.25,7.44-3.33,10.86s-2.44,9.85-2.44,9.85,3.64,1.13,3.76,1.71a28.82,28.82,0,0,1,1.17-9.64C798.24,323,799.32,321,798.5,314.76Z" transform="translate(-51.46 -51.9)"/><path class="cls-21" d="M777,306.75c1.37-.62,3.69-.86,4.29,2.11,2.67,13,4.24,38.63,4.24,38.63s-1.19,1.24-3.75.58c-4.39-1.13-4.4-10.29-8.23-31.34C772.49,310.65,774.73,307.8,777,306.75Z" transform="translate(-51.46 -51.9)"/><path class="cls-9" d="M796.8,352.12s6.44,5.46,7,5.66.94,0,2.26-.09,1.56,0,2.6,0a9.27,9.27,0,0,1,1.16,0s-.08.58-.49.68-1.25.07-1.56.15.74,0,2.26.37a21.57,21.57,0,0,1,3.56,1.15c.38.17.44.2.43.22,0,.19-.06.36-.25.36s-.75-.12-.72-.08a8.39,8.39,0,0,0,1.14.62,4.9,4.9,0,0,1,.51.21c.27.14.09.46-.42.53,0,0-.15.23-.31.25l-.22,0h-.28a6.68,6.68,0,0,1-1,0,9.09,9.09,0,0,0-1.27-.2,5.48,5.48,0,0,1,.85.4c-.06.15-.26.32-.42.28s-.72-.16-1.9-.49a9.7,9.7,0,0,0-3.28-.57,3.42,3.42,0,0,1-2.79-1.11c-2.89-2.64-9.22-5-10.08-5.78S796.8,352.12,796.8,352.12Z" transform="translate(-51.46 -51.9)"/><path class="cls-21" d="M795.46,357.49c1.53-.87,1.58-2.83,2.53-5-4.46-3.39-7.67-6.65-12.6-9.81-1.84-1.18-5.89.08-6.43,1.44-.9,2.29,6.65,7.41,10.47,9.65C791.63,355.09,793.83,357,795.46,357.49Z" transform="translate(-51.46 -51.9)"/><rect class="cls-24" x="739.19" y="309.8" width="34.83" height="0.71"/><path class="cls-24" d="M806,361.65a1,1,0,0,0,.88,1h17.86c.49,0,1.15-.35,1.74-1.76l8.83-16.12a.92.92,0,0,0-1-1l-18.32.56a1.69,1.69,0,0,0-1.16,1.22Z" transform="translate(-51.46 -51.9)"/><path class="cls-25" d="M808.18,362.41H790.57a6.34,6.34,0,0,0,2.85.55h29.35a6.37,6.37,0,0,0,2.85-.55Z" transform="translate(-51.46 -51.9)"/><path class="cls-26" d="M500,75.88C376.42,75.88,275.88,176.42,275.88,300S376.42,524.12,500,524.12,724.12,423.58,724.12,300,623.58,75.88,500,75.88ZM331.91,300a166.94,166.94,0,0,1,31.23-97.24l234.1,234.1A167,167,0,0,1,500,468.09C407.31,468.09,331.91,392.69,331.91,300Zm305,97.24-234.1-234.1A167,167,0,0,1,500,131.91c92.69,0,168.09,75.4,168.09,168.09a167,167,0,0,1-31.23,97.24Z" transform="translate(-51.46 -51.9)"/></svg>